<?xml version="1.0" encoding="UTF-8"?>
<svg xmlns="http://www.w3.org/2000/svg" version="1.1" viewBox="0 0 1920 1080">
  <defs>
    <style>
      .cls-1 {
        fill: #def4fc;
      }

      .cls-2 {
        fill: #fcdff0;
      }

      .cls-3 {
        fill: #ec008c;
      }

      .cls-4 {
        fill: #00aeef;
      }

      .cls-5 {
        fill: #fff;
      }

      .cls-6 {
        fill: #aee5f9;
      }

      .cls-7 {
        fill: #eb018c;
      }

      .cls-8 {
        fill: #01aeee;
      }

      .cls-9 {
        fill: #eb048d;
      }
    </style>
  </defs>
  <!-- Generator: Adobe Illustrator 28.7.1, SVG Export Plug-In . SVG Version: 1.2.0 Build 142)  -->
  <g>
    <g id="Layer_1">
      <g id="Layer_1-2" data-name="Layer_1">
        <g>
          <g>
            <path d="M1148.2,456.5c.4-1,.6-1.7,1.1-2-.4.4-.6,1-1,1.9-2.8,8.2-5.4,16.4-8.2,24.4-.3.8-.8,2.2-1.5,2.9.6-.8,1-2.1,1.4-2.8,2.8-8.1,5.4-16.3,8.2-24.4h0Z"/>
            <path d="M1142.5,413.5c-.3-1.1-.8-2.8-1.7-3.4h-.3.4c.9.6,1.4,2.3,1.7,3.4,2.4,9.1,4.4,18.4,6.9,27.4.7,3,2.2,5.7,4.9,7.4,7.3,5.2,14.9,10.1,22.3,15.1,7.5,5,1.5.8,2.1.8h0c-.6,0-1.5-.4-2.1-.8-7.5-5-15.1-9.9-22.3-15.1-2.7-1.7-4.2-4.4-4.9-7.4-2.5-9.1-4.5-18.4-6.9-27.4Z"/>
            <path d="M1132.9,429.7c.6,3.6,2.1,7.3,5.8,8.6.9.4,1.6.5,2,.4-.5.2-1.2,0-2.1-.4-3.7-1.3-5.2-5-5.8-8.6-1.5-6.9-3.3-13.7-5-20.4-.4-2.2-1.7-4.3-2.6-4.4.9,0,2.3,2.1,2.7,4.4,1.7,6.8,3.5,13.6,5,20.4Z"/>
            <path d="M1124,478.2c-.3.5-.6,1.1-1,1.6.4-.5.7-1.1.9-1.5,1-2.1,2-4.2,2.8-6.4,2.3-6.4,4-13.1,6.1-19.6.5-1.3,1.1-3,1.9-4,0,0,.2-.2.3-.3,0,0,0,0-.2.2-.8,1-1.4,2.7-1.9,4-2.1,6.5-3.8,13.2-6.1,19.6-.8,2.2-1.8,4.3-2.8,6.4h0Z"/>
            <path d="M1117.1,420.4c-1.3-6.4-2.8-12.7-4.6-19-.8-2-1.7-3.6-2.4-3.7.7,0,1.7,1.6,2.5,3.7,1.8,6.3,3.3,12.6,4.6,19,.5,3.9,2.4,7.7,6.3,9.2.5.2,1,.4,1.4.4-.4,0-1-.2-1.5-.4-3.9-1.5-5.8-5.3-6.3-9.2Z"/>
            <path class="cls-5" d="M1108.1,421.4c-2.7-1.7-5.8-4.3-6.5-7.6-2-6.8-3.2-14.1-5.8-20.6-.5-.9-.9-1.2-1.2-1.1-.9,0-1.3,2.1-1.3,3.3.3,5.7,1.6,11.3,2,16.9,0,1.1-.7,1.6-1.5,1.6-2,0-5.1-2.2-5.8-3.2-1.4-1.6-2-3.9-2.4-5.9-1.2-5.8-2.8-11.3-4.4-16.9-.4-1.2-.8-2.7-1.6-3.7-.4-.4-.7-.6-.9-.5-2.5-.2,1.4,18.6,1,20,0,1.9-.2,2.8-1.3,2.8s-1-.2-1.8-.4c-4.5-1.2-6.7-4.4-7.4-8.8-1.4-6.1-3.1-12.1-4.8-18.2-.6-2.3-1.4-3.4-2.1-3.3-.7,0-1.2,1.2-1,3.8.5,4.8,1.1,9.6,1.7,14.4.3,2.2.9,5.3-1.1,5.6h-.2c-.5,0-1.1-.2-1.8-.5-4-1.5-5.8-5.3-6.4-9.2-1.2-5.9-2.9-11.7-4.5-17.4-.2-.9-1.1-3.6-2.1-3.4-.3,0-.6.2-.9.6-.4,1.1-.2,2.6-.2,3.8.5,5.2,1.5,10.4,1.5,15.8s-.4,3.7-1.9,3.8c-.4,0-.9-.2-1.5-.5-2.7-1.2-5.1-3.4-5.8-6.3-1.5-5.8-2.8-11.9-4.3-17.7-.5-2-1.2-4.2-2.4-5.8-.4-.5-.8-.7-1-.7-1.1,0-.9,3.6-.7,4.6.6,5,1.3,9.9,1.8,15,.2,2.8.7,5.1-1.1,5.3h-.5c-.4,0-.9-.2-1.5-.4-9.4-3.3-18.7-6.5-28.1-9.5-1.1-.4-2.3-.8-3.1-1.7-1.3-1.3-1-3.8-.9-5.6,2.1-22.8-2.3-43.9-17.1-62.2-3.3-4-1.7-6.1,1.6-6.2h1.1c.8,0,1.6.2,2.5.4,22.5,4.8,45.1,11,65.9,21.1,9.6,4.9,18.6,11,27,17.5,13.4,10.4,26.6,21,38.9,32.7,12.9,13.7,25.5,27.8,36.6,42.9,9.9,14.3,17.7,29.8,25.1,45.4h0c.4.5.8,1.5.8,2.2s0,.3,0,.4h0c-.6,0-1.5-.4-2.1-.8-7.5-5-15.1-9.9-22.3-15.1-2.7-1.7-4.2-4.4-4.9-7.4-2.5-9.1-4.5-18.4-6.9-27.4-.3-1.1-.8-2.8-1.7-3.4h-.4c-1.3,0-.8,3.6-.8,4.6.4,7.1,1.6,14.2,2,21.2,0,1.4,0,2.4-.7,2.8,0,0,0,0-.2,0-.5,0-1.1,0-2-.4-3.7-1.3-5.2-5-5.8-8.6-1.5-6.9-3.3-13.7-5-20.4-.4-2.3-1.8-4.5-2.7-4.4-.6,0-1.1.9-1,3.4.7,6,1.5,12,2.1,17.9,0,1.3.3,3.3-1.1,3.8h-.4c-.4,0-.9-.2-1.4-.4-3.9-1.5-5.8-5.3-6.3-9.2-1.3-6.4-2.8-12.7-4.6-19-.8-2.1-1.8-3.8-2.5-3.7-.5,0-.9.9-.9,3.4s0,2.8.2,4.1v.3c0,.5,0,1,.2,1.4v.2c.2,1.3.4,2.7.5,4,.4,3.1.9,6.4.2,9.6,0,.5-.4.9-.7,1.1h-.3c-.4,0-.8-.2-1.3-.6v.2Z"/>
            <path d="M1109.5,405.7c0,.5,0,.9.2,1.4,0-.4,0-.9-.2-1.4Z"/>
            <path d="M1107.7,472.6c0,.2-.2.3-.4.5,0,0,.2-.2.3-.4,2.9-6.9,5.1-14.2,7.6-21.2,1.1-3.2,1.6-6.6,3.2-9.6.2-.4.4-.7.6-1-.2.3-.4.6-.5.9-1.6,3-2.1,6.4-3.2,9.6-2.5,7.1-4.7,14.4-7.6,21.2Z"/>
            <path d="M1101.5,413.9c-2-6.8-3.2-14.1-5.8-20.6-.4-.8-.8-1.1-1.1-1.1.3,0,.8.3,1.2,1.1,2.6,6.6,3.8,13.9,5.8,20.6.7,3.3,3.8,5.9,6.5,7.6.5.4.9.6,1.3.6-.4,0-.9-.2-1.4-.6-2.7-1.7-5.8-4.3-6.5-7.6Z"/>
            <path d="M1102.6,437.1c-3,10.2-5.7,20.4-10.5,29.9-.3.6-.7,1-1,1,.3,0,.7-.4.9-.9,4.8-9.5,7.5-19.8,10.5-29.9.3-1,.7-2.2,1.5-2.9-.7.7-1.1,1.9-1.4,2.8h0Z"/>
            <path d="M1079.7,384.2c.8,1,1.2,2.5,1.6,3.7,1.6,5.6,3.2,11.1,4.4,16.9.4,2,1,4.3,2.4,5.9.7,1,3.8,3.2,5.8,3.2-2,0-5.2-2.2-5.9-3.2-1.4-1.6-2-3.9-2.4-5.9-1.2-5.8-2.8-11.3-4.4-16.9-.4-1.2-.8-2.7-1.6-3.7-.3-.3-.6-.5-.8-.5.2,0,.5,0,.9.5Z"/>
            <path d="M1078.5,454.2c-.5,1.2-1,3-2,4,.9-1,1.4-2.7,1.9-3.9,3.2-8.8,6.3-17.7,8.8-26.5,0-.3.3-.6.5-.8-.2.2-.3.4-.4.7-2.5,8.9-5.6,17.8-8.8,26.5Z"/>
            <path class="cls-5" d="M1039.4,408.7c.5-.5,1.1-.7,1.9-.6,5.1.5,6.8,2.5,5.8,7.6-1.1,7.7-2.5,15.3-3.7,22.8,0,1.3-.7,3.8.4,4.6.4,0,.8-.2,1.1-.5h0c.8-.9,1.3-2.5,1.7-3.4,2.2-6.1,4.3-12.3,6.3-18.5.8-2,1-4.8,2.4-6.2h0c.7-.6,1.7-.9,3.2-.6,5.2.8,4.7,5,4.1,9-1.1,7.8-2.6,15.5-3.8,23.2,0,1-1,6.7,1,4.8,0,0,0,0,0,0s0,0,0,0c1-1.1,2-2.9,2.5-4.5,2.5-7.2,4.7-14.5,7.1-21.7.5-1.3.6-3.3,1.7-4.3.4-.3.8-.5,1.4-.6h1c1.7.4,3.9.8,4.9,2.2,1.1,1.6.8,3.8.6,5.6-1,7.2-2,14.3-3.2,21.3,0,1.8-3,9.9-.6,10.2.3,0,.6-.3.9-.6,0,0,0,0,.2-.2.9-1,1.4-2.7,2-4,3.2-8.8,6.3-17.7,8.8-26.5,0-.3.3-.5.4-.7,0,0,0,0,.2-.2,2.2-1.8,7.2.8,7.2,3.6.3,1.3,0,2.7,0,4-.9,7.4-1.9,14.9-3.1,22.2-.4,3.5-1.7,7.1-1.7,10.6,0,.8.4,1,.8.9h0c.4,0,.7-.4,1-1,4.8-9.5,7.5-19.8,10.5-29.9.3-1,.7-2.1,1.4-2.8h0c0,0,.2-.2.4-.3,2.2-1.3,5.8.5,6,3.3.2,1.4,0,2.9-.2,4.2-1.5,9-2.9,18-4.3,26.8,0,1.4-.6,2.9-.3,4.3.3,1.2,1,1.3,1.6.6h0c0,0,.2-.3.4-.5,2.9-6.9,5.1-14.2,7.6-21.2,1.1-3.2,1.6-6.6,3.2-9.6.2-.4.3-.6.5-.9,0,0,.2-.2.3-.3,1.2-1.1,2.9-1,4.6.2,1.8,1,2.3,3.2,2.2,5.1-.3,10.1-3.2,19.8-4.7,29.6,0,1.2-.9,4.9.7,4.9h.2c.2,0,.5-.3.7-.6.4-.4.8-1.1,1-1.6,1-2.1,2-4.2,2.8-6.4,2.3-6.4,4-13.1,6.1-19.6.5-1.3,1.1-3,1.9-4,0,0,0,0,.2-.2,1.6-1.6,4.2-.3,5.4,1.4.8,1.3.9,3.2.7,4.8-.9,8.4-2.8,16.7-4.1,24.9,0,1.5-.7,4,.5,5.1.4,0,.8,0,1.1-.5h0c.7-.9,1.1-2.3,1.5-3,2.8-8.1,5.4-16.3,8.2-24.4.3-.9.6-1.5,1-1.9h0c.5-.5,1.2-.4,2.3,0,2.2,1.1,4.6,2.5,6.9,3.5,5.5,2.8,11,5.7,16.5,8.6h0c2.3,1.3,4.7,2.8,2.1,5.5-1,1.2-2.1,2.3-3.1,3.5-5.2,5.7-10.7,11.1-16.4,16.3-29.7,27-65.3,47.3-103.1,60.7-25.9,10.2-53.3,15.3-81,17.3-7,.3-13-3.6-17.5-8.7-13.9-16.6-27.3-33.4-40.9-50.2-1.1-1.5-1.5-2.9-.4-4.1l.2-.2c.2-.2.5-.4.8-.6,10.4-5.9,20.1-12.9,28.9-20.7,4.1-3.7,8-7.6,11.7-11.6,18.2-20,31.1-44.6,36.4-71.6.5-3.1,1-5.2,1.9-6.3,0,0,0,0,.2-.2,1.2-1,3.3-.8,7.1.5,8.7,2.6,17.3,5,26,7.4,2,.5,4.1,1.7,3.9,4.1-1,7.9-2.7,15.8-4,23.5-.2,1.7-2,6.3-.2,7.3.4,0,.7-.2,1.1-.6,0,0,0,0,.2-.2,2.4-2.6,4.9-11.6,5.6-13.8,1.3-4.1,2.5-8.3,3.7-12.4.3-.9.6-1.9,1.2-2.6h0v-.4Z"/>
            <path d="M1069.3,397.4c.7,4.4,2.9,7.6,7.4,8.8.7.3,1.3.4,1.8.4-.5,0-1.1,0-1.9-.4-4.5-1.2-6.7-4.4-7.4-8.8-1.4-6.1-3.1-12.1-4.8-18.2-.6-2.2-1.4-3.3-2-3.3.6,0,1.5,1.1,2.1,3.3,1.7,6.1,3.4,12.1,4.8,18.2h0Z"/>
            <path d="M1062.6,446.2c-.5,1.6-1.5,3.4-2.5,4.5h0c1-1,2-2.8,2.5-4.4,2.5-7.2,4.7-14.5,7.1-21.7.5-1.4.7-3.4,1.8-4.4-1,1-1.2,3-1.7,4.3-2.4,7.3-4.6,14.6-7.1,21.7h0Z"/>
            <path d="M1047.1,369.3c1,0,1.9,2.6,2.1,3.4,1.6,5.7,3.3,11.5,4.5,17.4.6,3.9,2.4,7.7,6.4,9.2.7.3,1.3.5,1.8.5-.5,0-1.1,0-1.9-.5-4-1.5-5.8-5.3-6.4-9.2-1.2-5.9-2.9-11.7-4.5-17.4-.2-.9-1.1-3.4-2-3.4Z"/>
            <path d="M1046.6,439.3c2.2-6.1,4.3-12.3,6.3-18.5.9-2.1,1-4.9,2.5-6.3-1.3,1.4-1.5,4.2-2.4,6.2-2,6.2-4.1,12.4-6.3,18.5-.4.9-.9,2.4-1.7,3.3.7-.9,1.2-2.3,1.6-3.2Z"/>
            <path d="M1191,474.3c.2.2.4.4.5.6v.5l-.4-.2c-.8,0-1.6-.4-2.3-.8-2-1-4.2-1.9-5.5-1-2.4,2.1-3.2,6-5.1,8.5-29.7,47.2-82.3,74.4-133.2,93.3-3.5,1-5.1,3.4-5.1,6.9-.8,9.5-3,18.8-9.8,25.9-16.6,16.7-43.1,6.5-59.3-5.4-3.9-2.7-7.5-5.7-11.2-8.7-3.8-3-7.4-6.7-12.2-8.2-5.8-1.9-11.7-3.7-17.5-5.5-4.4-1.2-8.7-3-13.2-3.7-2.3-.2-4.3,1.5-6,2.8-6.3,4.8-13.3,6.8-21.1,6-2.2-.2-4.4-.5-6.4.5s-2.3,1.4-3.3,2.2c-6.4,5.5-13.2,10.4-20.3,14.5-6.6,3.7-13.6,7.2-20.9,9.3-11.6,3.2-25.5,1.5-34.5-6.9-6.4-6-9-15-10-23.5-3.5-29,8.3-56.4,18.1-83.1,1-2.6,2.3-5.8-1.2-6.9-20.8-6.2-41.7-12-60.6-22.9-11-6.1-19.8-15.8-21.7-28.6-2.7-12.7,1.5-25.4,10.2-34.9,17.7-19.7,43.6-27.3,68.3-33.6,7.9-2,8.6-2.7,6.3-10.5-8.9-28.2-17.8-57.6-11.6-87.3,1.6-5.7,2.8-11.7,7-16.2,6.1-7,17.7-11.6,25.7-10.9,11.6,1.8,22.3,6.6,32.1,12.8,2.3,1.6,4.8,3,7.4,1.1,14.9-12.3,36.6-8.3,45,9.6,1,2,2.1,4.2,4.2,4.9,1.5.6,3.3.7,4.9.9,13.2,1.2,26.3,3,39.5,4.4,3.3.3,6.3-.9,8.9-2.8,10.1-7.1,20.6-13.2,32.6-16.7,12.4-4.1,26.7-2.3,35.1,8.3,6.6,8.1,7.1,19,9.7,28.7.7,2.9,2.5,5.4,4.9,7.2,8,6,16.1,11.8,24.1,17.8,28.8,20.4,54,45.6,74.1,74.7,8,11.5,14.9,23.6,19.6,36.8,4.1,10.7,5.1,22.1,8.3,33,1,2.9,3.7,5.1,5.9,7.2h0ZM1034.2,423.8c-.8,2.2-3.2,11-5.5,13.7,0,0,0,0-.2.2-.3.3-.7.5-1,.5-1.8-1,.2-5.6.2-7.3,1.3-7.8,3-15.7,4-23.5.2-2.4-1.9-3.6-3.9-4.1-8.8-2.4-17.4-4.8-26-7.4-3.9-1.3-6-1.5-7.2-.4,0,0,0,0-.2.2-1,1.1-1.5,3.1-2,6.4-5.2,27-18.2,51.6-36.3,71.5-3.7,4.1-7.6,8-11.7,11.6-8.8,7.9-18.5,14.9-28.8,20.6-.3.2-.6.4-.9.7l-.2.2c-1.2,1.2-.9,2.6.3,4.2,13.6,16.8,27,33.6,40.9,50.2,4.5,5.1,10.5,9,17.5,8.7,27.7-2,55.1-7.1,81-17.3,37.9-13.4,73.5-33.7,103.2-60.8,5.7-5.2,11.2-10.6,16.4-16.3,1.1-1.2,2.2-2.4,3.2-3.6h0c2.6-2.8.2-4.3-2.1-5.5-5.5-2.9-11-5.8-16.5-8.6-2.3-1-4.7-2.4-6.9-3.5-1.2-.6-1.9-.6-2.4,0h0c-.4.3-.7,1-1.1,2-2.8,8.2-5.4,16.4-8.2,24.4-.3.7-.7,2.1-1.4,2.8h0c-.3.4-.6.5-1,.5-1.2-1.1-.5-3.6-.5-5.1,1.3-8.3,3.2-16.6,4.1-24.9.2-1.6,0-3.5-.7-4.8-1.2-1.7-3.9-3-5.5-1.3,0,0-.2.2-.3.3-.8,1-1.4,2.7-1.9,4-2.1,6.5-3.8,13.2-6.1,19.6-.8,2.2-1.8,4.3-2.8,6.4-.2.4-.6,1-.9,1.5-.2.2-.4.4-.6.4h-.2c-1.6,0-.7-3.6-.7-4.8,1.5-9.9,4.4-19.6,4.7-29.6,0-1.9-.4-4.1-2.2-5.1-1.8-1.2-3.5-1.3-4.7,0,0,0-.2.2-.3.3-.3.3-.5.6-.6,1-1.6,3-2.1,6.4-3.2,9.6-2.5,7.1-4.7,14.4-7.6,21.2,0,0-.2.3-.3.4h0c-.6.6-1.3.4-1.5-.7-.3-1.4.3-2.9.3-4.3,1.4-8.9,2.8-17.9,4.3-26.8.2-1.3.4-2.8.2-4.2-.2-2.8-3.8-4.6-6-3.3-.2,0-.3.2-.5.4h0c-.8.7-1.2,1.9-1.5,2.9-3,10.2-5.7,20.4-10.5,29.9-.3.5-.6.8-.9.9h0c-.3,0-.6-.3-.7-1,0-3.5,1.3-7.1,1.7-10.6,1.2-7.4,2.2-14.9,3.1-22.2,0-1.3.2-2.7,0-4,0-2.8-5.1-5.5-7.3-3.5,0,0,0,0-.2.2-.2.2-.4.5-.5.8-2.5,8.9-5.6,17.8-8.8,26.5-.5,1.2-1,2.9-1.9,3.9,0,0,0,0-.2.2-.2.2-.5.4-.8.5-2.4-.3.6-8.4.6-10.2,1.2-7.1,2.2-14.2,3.2-21.3.2-1.8.5-4-.6-5.6-1-1.4-3.2-1.8-4.9-2.2h-1c-.7,0-1.1.3-1.5.7-1.1,1-1.2,3.1-1.8,4.4-2.4,7.3-4.6,14.6-7.1,21.7-.5,1.6-1.5,3.4-2.5,4.5,0,0,0,0,0,0-1.9,1.6-.9-4-.9-4.9,1.2-7.8,2.7-15.5,3.8-23.2.6-4,1.1-8.2-4.1-9-1.6-.3-2.6,0-3.4.7h0c-1.4,1.4-1.6,4.2-2.5,6.3-2,6.2-4.1,12.4-6.3,18.5-.4.8-.9,2.3-1.6,3.2,0,0,0,0,0,0-.3.2-.6.4-1,.4-1.1-.8-.4-3.3-.4-4.6,1.2-7.6,2.6-15.2,3.7-22.8,1-5.1-.7-7.1-5.8-7.6-.9,0-1.5.2-2,.7h0c-.7.8-1.1,1.8-1.4,2.8-1.2,4.1-2.4,8.3-3.7,12.4l.2.2ZM1031.6,363c1.2,1.6,1.9,3.8,2.4,5.8,1.5,5.8,2.8,11.9,4.3,17.7.7,2.9,3.1,5.1,5.8,6.3.6.3,1.2.5,1.6.5,1.6,0,2-1.9,2-3.8,0-5.4-1-10.6-1.5-15.8,0-1.2-.2-2.7.2-3.8.3-.4.5-.6.8-.6,1,0,1.8,2.6,2,3.4,1.6,5.7,3.3,11.5,4.5,17.4.6,3.9,2.4,7.7,6.4,9.2.8.3,1.4.5,1.9.5h.2c2.1,0,1.5-3.3,1.2-5.6-.6-4.8-1.2-9.6-1.7-14.4-.2-2.5.3-3.8.9-3.8s1.4,1.2,2,3.3c1.7,6.1,3.4,12.1,4.8,18.2.7,4.4,2.9,7.6,7.4,8.8.8.3,1.4.4,1.9.4,1.2,0,1.6-.9,1.4-2.8.4-1.4-3.4-19.8-1.1-20,.2,0,.5.2.8.5.8,1,1.2,2.5,1.6,3.7,1.6,5.6,3.2,11.1,4.4,16.9.4,2,1,4.3,2.4,5.9.7,1,3.9,3.2,5.9,3.2s1.5-.4,1.6-1.6c-.4-5.6-1.7-11.2-2-16.9,0-1.2.4-3.2,1.2-3.3.3,0,.7.3,1.1,1.1,2.6,6.6,3.8,13.9,5.8,20.6.7,3.3,3.8,5.9,6.5,7.6.5.4,1,.6,1.4.6h.4c.3-.2.7-.6.7-1.1.7-3.2.2-6.5-.2-9.6-.2-1.6-.4-2.7-.6-4v-.2c0-.5,0-.9-.2-1.4v-.3c0-1.1,0-2.4,0-4.1s.3-3.3.8-3.4c.7,0,1.6,1.7,2.4,3.7,1.8,6.3,3.3,12.6,4.6,19,.5,3.9,2.4,7.7,6.3,9.2.5.2,1,.4,1.5.4h.5c1.4-.5,1.1-2.5,1.1-3.8-.6-5.9-1.4-11.9-2.1-17.9,0-2.4.3-3.3.9-3.4.9,0,2.2,2.1,2.6,4.4,1.7,6.8,3.5,13.6,5,20.4.6,3.6,2.1,7.3,5.8,8.6,1,.4,1.7.6,2.1.4,0,0,.2,0,.2,0,.7-.4.8-1.4.8-2.8-.4-7.1-1.6-14.2-2-21.2,0-.9-.4-4.4.7-4.6h.3c.9.6,1.4,2.3,1.7,3.4,2.4,9.1,4.4,18.4,6.9,27.4.7,3,2.2,5.7,4.9,7.4,7.3,5.2,14.9,10.1,22.3,15.1s1.5.9,2.1.9h0c.6-.2,0-2-.5-2.7-7.5-15.6-15.3-31.1-25.1-45.4-11.1-15.1-23.7-29.2-36.6-42.9-12.3-11.7-25.5-22.3-38.9-32.7-8.5-6.5-17.5-12.6-27-17.5-20.8-10.2-43.4-16.4-65.9-21.1-.9-.2-1.8-.4-2.6-.4h-1.1c-3.4,0-5.1,2.2-1.7,6.2,14.8,18.4,19.2,39.4,17.1,62.2,0,1.8-.4,4.3.9,5.6.8.9,2,1.3,3.1,1.7,9.5,3,18.8,6.2,28.1,9.5.6.2,1.2.3,1.6.4h.5c1.9,0,1.4-2.4,1.2-5.3-.5-5.1-1.2-10-1.8-15-.2-.9-.4-4.5.6-4.6.2,0,.5.2.9.7v-.2ZM870.7,568.6c4.7,8.8,14.2,14.2,24.3,13.5,13.1-.8,23.4-11.8,23.4-24.8v-.2c.4-13.1-10.2-24.9-23.3-25.5-19.8-1.8-33.8,20-24.4,37.1ZM893.1,307.3c13.9.2,25.3-11.2,25.3-25v-.2c.2-18.3-18.7-30.6-35.3-23.3-25.1,11.2-17.8,48.2,10,48.6ZM1029.4,289.1c.9.3,2.4.6,2.4-.7-.3-2.4-2-4-4.1-5-2.2-1-4.8-1.4-6.9-1.4h-.2c-.9,0-6.5.4-4.3,2,4.1,2.3,8.8,3.4,13.1,5.1ZM1018.3,586.5c.3-1.1,0-2.5-1.5-2.5-7.3,1.2-14.6,3-21.8,4.4-2.8.6-2.2,2.1,0,2.9,3.4,1.2,6.3,2.7,9.7,3.4h.3c5.9.5,12.6-1.9,13.4-8.2h0ZM946.4,362.7c2.3,0,2.5-2.4,2.5-4.5-.9-6.1-2.3-12.2-3.5-18.2-.4-2.9-1.2-4.9-3.8-2-4.3,4.7-8.6,9.4-12.8,14.2-3.9,4.2-2.8,6.8,2.7,7.8,4.7.9,9.4,1.9,14.2,2.6h.7,0ZM945.6,389c.2-1.3.7-3.1,0-4.2-.9-1.2-2.8-1.3-4.3-1.5-8.7-.9-16.4-2-23.9-2.6-5.8,0-11,.3-14.9,4.4-4.6,5.1-8.6,10.8-12.5,16.3-6.7,10-13.4,19.9-19.8,30.1-2.1,3.1-.8,6.7,1.1,9.6,3.9,6.5,7.5,13.1,11.1,19.8,2.9,6.1,5,5.3,10,1.9,25.9-17,46-43.2,53.2-73.7h0ZM931.4,316.3c1.7-2,.8-4.2-.8-5.8-2.7-3.1-5.3-6.2-8.1-9.1-3-3.2-4.4-4.1-7.7-.6-6,6.1-13.5,10.2-21.6,9.9-14-.5-25-8.7-28-22.3-1.7-6.1-6.5-9.6-11.5-12.8-5.6-3.7-11.8-6.9-18.7-7.3v-.2h-.2c-6.7-.4-12.1,3.4-13.3,9.9-1.2,5.5-1.7,11.2-1.6,16.8.7,21,7.2,40.9,12.9,60.8.8,2.6,1.6,6.7,4.2,7.9,2.6,1.1,6.2-.2,8.9-.5,14.6-1.5,29.1-2.6,43.7-4.2,3.8-.3,7.4-1.8,9.7-4.9,10.8-12.5,21.5-24.9,32.1-37.6h0ZM900.1,527.5c0-.3,0-.8-.3-1.3-1.5-2.2-3.2-4.4-4.7-6.6-4.1-5.7-7.7-11.7-11.5-17.8-7.9-12.7-15.6-25.5-23.5-38.1-3.4-4.9-6.1-4.2-8.8.7-18.2,32.2-32.4,66.6-37.9,103.3-.4,3.8-.4,7.7.3,11.5,1.3,7.4,4.8,11.8,12.6,11.3,13.6-1.1,25.2-8.6,35.9-16.5,4.1-2.8,4.9-5.1,3.4-9.8-2.4-8.9-.5-17.8,4.6-24.5,4.8-6.7,13.5-11.2,22-11.5,2.1-.3,4.5,0,6.5-.3.6,0,1.1-.2,1.3-.5h0ZM873.5,388.9c1.6-2.2,1.3-5-1.9-5.3h-.2c-6.5.9-13,1.5-19.6,2.1-1.6.2-3.8.5-4.8,2-.9,1.5,0,3.4.5,4.9,1.5,3.6,3,7,4.7,10.4,3.5,6.8,5.6,10.3,10.8,2.2,3.7-5.3,7.1-10.8,10.5-16.3h0ZM842.3,438.2c1.5-2.5,1.5-5.5,0-8.1-5-11.2-10.2-22.2-15.3-33.3-2.2-5.7-5.1-6.1-10.6-4.9-18.9,3.3-36.2,11.6-52.2,21.8-4.5,3.1-9.9,5.4-13.2,9.9-.9,1.2-1.7,2.9-2.3,4.6s-1,3.7-1,5.5v.2c3.5,11.9,16.4,16.4,26.6,21h0c13.8,6,28,10.7,42.7,14.3,2.4.5,5.5,1.5,7.7.2,1.5-.9,2.5-2.7,3.3-4.3,4.6-9.1,9.4-18,14-26.9h0Z"/>
            <path d="M1034.2,423.8c1.3-4.1,2.5-8.3,3.7-12.4.3-1,.7-2,1.4-2.6-.6.7-1,1.6-1.2,2.6-1.2,4.1-2.4,8.3-3.7,12.4-.8,2.2-3.3,11.2-5.6,13.8,2.3-2.7,4.8-11.5,5.5-13.7h0Z"/>
            <path d="M1044.1,392.7c-2.7-1.2-5.1-3.4-5.8-6.3-1.5-5.8-2.8-11.9-4.3-17.7-.5-2-1.2-4.2-2.4-5.8-.4-.5-.7-.7-.9-.7.2,0,.6.2,1,.7,1.2,1.6,1.9,3.8,2.4,5.8,1.5,5.8,2.8,11.9,4.3,17.7.7,2.9,3.1,5.1,5.8,6.3.6.3,1.1.5,1.5.5-.4,0-1,0-1.6-.5Z"/>
            <path d="M979.5,307.7c14.8,18.4,19.2,39.4,17.1,62.2,0,1.8-.4,4.3.9,5.6.8.9,2,1.3,3.1,1.7,9.5,3,18.8,6.2,28.1,9.5.6.2,1.1.3,1.5.4-.4,0-1-.2-1.6-.4-9.4-3.3-18.7-6.5-28.1-9.5-1.1-.4-2.3-.8-3.1-1.7-1.3-1.3-.9-3.8-.9-5.6,2.1-22.8-2.3-43.9-17.1-62.2-3.4-4-1.7-6.1,1.7-6.2-3.4,0-5,2.2-1.6,6.2h0Z"/>
            <path d="M956.1,473.6c18.2-20,31-44.5,36.3-71.5.5-3.2,1-5.3,2-6.4-1,1.1-1.4,3.1-1.9,6.3-5.2,27.1-18.2,51.7-36.4,71.6Z"/>
            <path class="cls-4" d="M918.5,282.3c0,13.9-11.5,25.2-25.3,25-27.7-.4-35.1-37.4-10-48.6,16.7-7.3,35.5,5.1,35.3,23.3v.2Z"/>
            <path d="M955.7,561.2c-13.9-16.6-27.3-33.4-40.9-50.2-1.2-1.6-1.5-3-.3-4.2-1.1,1.2-.7,2.6.4,4.1,13.6,16.8,27,33.6,40.9,50.2,4.5,5.1,10.5,9,17.5,8.7,27.7-2,55.1-7.1,81-17.3,37.8-13.4,73.4-33.6,103.1-60.7-29.7,27.1-65.4,47.4-103.2,60.8-25.9,10.2-53.3,15.3-81,17.3-7,.3-13-3.6-17.5-8.7h0Z"/>
            <path class="cls-3" d="M895.1,531.5c13.2.6,23.7,12.5,23.3,25.5v.2c0,13.1-10.4,24-23.4,24.8-10.2.7-19.7-4.7-24.3-13.5-9.4-17.1,4.7-38.9,24.4-37.1Z"/>
          </g>
          <g id="LINE_WORK">
            <path d="M1191.5,474.9c0-.2-.3-.4-.5-.6-2.2-2.1-4.9-4.3-5.9-7.2-3.2-10.9-4.2-22.3-8.3-33-4.7-13.2-11.6-25.3-19.6-36.8-20.1-29.1-45.3-54.3-74.1-74.7-8.1-6-16.2-11.8-24.1-17.8-2.4-1.8-4.2-4.3-4.9-7.2-2.6-9.8-3.1-20.6-9.7-28.7-8.4-10.6-22.7-12.4-35.1-8.3-12,3.5-22.5,9.6-32.6,16.7-2.6,1.9-5.6,3.1-8.9,2.8-13.2-1.4-26.3-3.2-39.5-4.4-1.6-.2-3.4-.3-4.9-.9-2.1-.7-3.2-2.9-4.2-4.9-8.4-17.9-30.1-21.8-45-9.6-2.6,1.9-5.1.5-7.4-1.1-9.8-6.2-20.5-11-32.1-12.8-8.1-.7-19.7,3.9-25.7,10.9-4.2,4.5-5.4,10.5-7,16.2-6.2,29.7,2.7,59.1,11.6,87.3,2.3,7.8,1.6,8.5-6.3,10.5-24.7,6.3-50.7,14-68.3,33.6-8.7,9.5-12.9,22.2-10.2,34.9,2,12.9,10.8,22.5,21.7,28.6,19,11,39.8,16.8,60.6,22.9,3.5,1.1,2.2,4.3,1.2,6.9-9.8,26.7-21.5,54.1-18.1,83.1,1,8.6,3.6,17.6,10,23.5,9,8.4,22.9,10.1,34.5,6.9,7.4-2.1,14.4-5.6,20.9-9.3,7.2-4.1,14-9,20.3-14.5,1-.8,2.1-1.6,3.3-2.2,2-1,4.2-.7,6.4-.5,7.9.8,14.9-1.2,21.1-6,1.7-1.3,3.7-3,6-2.8,4.5.7,8.8,2.5,13.2,3.7,5.8,1.8,11.7,3.6,17.5,5.5,4.8,1.5,8.4,5.2,12.2,8.2,3.7,3,7.3,6,11.2,8.7,16.2,11.9,42.7,22,59.3,5.4,6.8-7.2,9-16.5,9.8-25.9,0-3.5,1.6-5.9,5.1-6.9,50.9-18.9,103.4-46.1,133.2-93.3,1.9-2.5,2.7-6.4,5.1-8.5,1.3-.9,3.5,0,5.5,1,.7.4,1.5.8,2.3.8l.4.2v-.5h0ZM1020.6,282h.2c4.3,0,10.3,1.5,11,6.4,0,1.3-1.5,1-2.4.7-4.3-1.7-9-2.8-13.1-5.1-2.2-1.6,3.4-2.1,4.3-2h0ZM945.4,340.1c1.2,6,2.6,12.1,3.5,18.2h0q0,0,0,0h0c0,0,0,0,0,0,0,2.2-.2,4.8-3.2,4.3-4.8-.7-9.5-1.7-14.2-2.6-5.5-1-6.6-3.6-2.7-7.8,4.2-4.8,8.5-9.5,12.8-14.2,2.6-2.9,3.4-.9,3.8,2h0ZM873.5,388.9c-3.4,5.5-6.8,11-10.5,16.3-5.2,8.1-7.3,4.6-10.8-2.2-1.7-3.4-3.2-6.8-4.7-10.4-.6-1.5-1.4-3.4-.5-4.9,1-1.5,3.2-1.8,4.8-2,6.6-.6,13.1-1.2,19.6-2.1h.2c3.2.3,3.5,3.1,1.9,5.3ZM870.3,431.5c6.4-10.2,13.1-20.1,19.8-30.1,3.9-5.5,7.9-11.2,12.5-16.3,3.9-4.1,9.1-4.3,14.9-4.4h.2-.2c7.6.6,15.3,1.7,23.9,2.6,1.5.2,3.4.3,4.3,1.5.7,1.1.2,2.9,0,4.2-7.2,30.5-27.2,56.8-53.2,73.7-5,3.4-7.1,4.2-10-1.9-3.6-6.7-7.2-13.3-11.1-19.8-1.9-2.9-3.2-6.5-1.1-9.6h0ZM883.2,258.8c16.7-7.3,35.5,5.1,35.3,23.3v.2c0,13.9-11.5,25.2-25.3,25-27.7-.4-35.1-37.4-10-48.6ZM821.6,278c1.2-6.5,6.6-10.3,13.3-9.9h.2v.2c6.9.4,13.1,3.6,18.7,7.3,5,3.2,9.8,6.7,11.5,12.8,3,13.7,14.1,21.8,28,22.3,8.2.3,15.7-3.8,21.6-9.9,3.3-3.5,4.7-2.6,7.7.6,2.8,2.9,5.4,6,8.1,9.1,1.6,1.6,2.5,3.8.8,5.8-10.6,12.7-21.3,25.1-32.1,37.6-2.3,3.1-5.9,4.6-9.7,4.9-14.6,1.6-29.1,2.7-43.7,4.2-2.7.3-6.3,1.6-8.9.5-2.6-1.2-3.4-5.3-4.2-7.9-5.7-20-12.2-39.8-12.9-60.8,0-5.6.4-11.3,1.6-16.8h0ZM774.5,455c-10.3-4.7-23.1-9.2-26.6-21v-.2h0c0-3.6,1.5-7.6,3.3-10.1,3.3-4.5,8.7-6.8,13.2-9.9,16-10.3,33.3-18.6,52.2-21.8,5.5-1.2,8.4-.8,10.6,4.9,5.1,11.1,10.3,22.1,15.3,33.3,1.4,2.6,1.4,5.6,0,8.1-4.6,9-9.4,17.9-14,26.9-.8,1.6-1.8,3.4-3.3,4.3-2.2,1.3-5.3.3-7.7-.2-14.7-3.6-28.9-8.3-42.7-14.3h-.2,0ZM862.2,574.1c-10.7,7.9-22.3,15.4-35.9,16.5-7.8.5-11.3-3.9-12.6-11.3-.7-3.8-.7-7.7-.3-11.5,5.5-36.7,19.8-71.1,37.9-103.3,2.7-4.9,5.4-5.6,8.8-.7,8,12.6,15.7,25.4,23.5,38.1,3.8,6.1,7.4,12.1,11.5,17.8,1.5,2.2,3.2,4.4,4.7,6.6.3.5.4,1,.3,1.3h0c-.2.3-.7.5-1.3.5-2,.2-4.4,0-6.5.3-8.6.3-17.3,4.8-22,11.5-5.1,6.8-7,15.7-4.6,24.5,1.5,4.7.7,7-3.4,9.8h0ZM918.5,557v.2c0,13.1-10.4,24-23.4,24.8-10.2.7-19.7-4.7-24.3-13.5-9.4-17.1,4.7-38.9,24.4-37.1,13.2.6,23.7,12.5,23.3,25.5ZM1018.3,586.5c-.8,6.3-7.5,8.7-13.4,8.2h-.3c-3.4-.7-6.3-2.2-9.7-3.4-2.2-.8-2.8-2.3,0-2.9,7.3-1.4,14.6-3.2,21.8-4.4,1.4,0,1.8,1.4,1.5,2.5h0ZM1177,472c-33,37.1-76.2,64-122.8,80.5-25.9,10.2-53.3,15.3-81,17.3-7,.3-13-3.6-17.5-8.7-13.9-16.6-27.3-33.4-40.9-50.2-1.4-1.9-1.6-3.6.7-5,39-22,68.3-59.6,76.9-103.9,1.2-7.1,1.9-8.6,9.3-6.1,8.7,2.6,17.3,5,26,7.4,2,.5,4.1,1.7,3.9,4.1-1,7.9-2.7,15.8-4,23.5,0,1.7-2,6.3-.2,7.3,2.6,0,5.9-11.9,6.8-14.5,1.3-4.1,2.5-8.3,3.7-12.4.5-1.7,1.4-3.6,3.4-3.4,5.1.5,6.8,2.5,5.8,7.6-1.1,7.7-2.5,15.3-3.7,22.8,0,1.3-.7,3.8.4,4.6,1.5,0,2.2-2.6,2.8-3.8,2.2-6.1,4.3-12.3,6.3-18.5,1.3-3.1,1-8,5.8-7,5.2.8,4.7,5,4.1,9-1.1,7.8-2.6,15.5-3.8,23.2,0,1-1.1,7,1.1,4.7,1-1.1,2-2.9,2.5-4.5,2.5-7.2,4.7-14.5,7.1-21.7.7-1.8.7-4.8,3.2-5h1c1.7.4,3.9.8,4.9,2.2,1.1,1.6.8,3.8.6,5.6-1,7.2-2,14.3-3.2,21.3,0,1.8-3,9.9-.6,10.2,1.6-.6,2.2-3,2.9-4.6,3.2-8.8,6.3-17.7,8.8-26.5,1.5-3.5,7.8-.6,7.9,2.6.2,1.3,0,2.7,0,4-.9,7.4-1.9,14.9-3.1,22.2-.4,3.5-1.6,7.1-1.7,10.6.2,1.5,1.2,1.2,1.8,0,4.8-9.5,7.5-19.8,10.5-29.9.4-1.2.9-2.7,2-3.3,2.2-1.3,5.8.5,6,3.3.2,1.4,0,2.9-.2,4.2-1.5,9-2.9,18-4.3,26.8,0,1.4-.6,2.9-.3,4.3.3,1.4,1.2,1.3,1.9.2,2.9-6.9,5.1-14.2,7.6-21.2,1.1-3.2,1.6-6.6,3.2-9.6,1.1-2.4,3.3-2.6,5.5-1.1,1.8,1,2.3,3.2,2.2,5.1-.3,10.1-3.2,19.8-4.7,29.6,0,1.2-.9,4.8.7,4.8h.2c.6-.2,1.2-1.3,1.6-2,1-2.1,2-4.2,2.8-6.4,2.3-6.4,4-13.1,6.1-19.6.5-1.3,1.1-3,1.9-4,1.6-2,4.4-.7,5.7,1.1.8,1.3.9,3.2.7,4.8-.9,8.4-2.8,16.7-4.1,24.9,0,1.5-.7,4,.5,5.1,1.4.3,2.1-2.3,2.6-3.4,2.8-8.1,5.4-16.3,8.2-24.4.8-2.2,1.3-2.9,3.4-1.9,2.2,1.1,4.6,2.5,6.9,3.5,5.5,2.8,11,5.7,16.5,8.6,2.3,1.2,4.7,2.7,2.1,5.4h0ZM1178.8,464.1h0c-.6,0-1.5-.4-2.1-.8-7.5-5-15.1-9.9-22.3-15.1-2.7-1.7-4.2-4.4-4.9-7.4-2.5-9.1-4.5-18.4-6.9-27.4-.3-1.1-.8-2.8-1.7-3.4-1.6-.6-1.1,3.5-1.1,4.5.4,7.1,1.6,14.2,2,21.2,0,2.4-.5,3.7-3.1,2.5-3.7-1.3-5.2-5-5.8-8.6-1.5-6.9-3.3-13.7-5-20.4-.7-3.8-3.9-7.1-3.6-1,.7,6,1.5,12,2.1,17.9,0,1.3.3,3.3-1.1,3.8-.5.2-1.2,0-1.9-.3-3.9-1.5-5.8-5.3-6.3-9.2-1.3-6.4-2.8-12.7-4.6-19-1.4-3.6-3.3-5.9-3.3-.3s.6,6.7,1,10.1c.4,3.1.9,6.4.2,9.6,0,.5-.4.9-.7,1.1-.4.2-1,0-1.7-.5-2.7-1.7-5.8-4.3-6.5-7.6-2-6.8-3.2-14.1-5.8-20.6-1.6-2.9-2.5.5-2.4,2.2.3,5.7,1.6,11.3,2,16.9-.3,3.8-6.4-.2-7.4-1.6-1.4-1.6-2-3.9-2.4-5.9-1.2-5.8-2.8-11.3-4.4-16.9-.4-1.2-.8-2.7-1.6-3.7-4-4.2.6,18,.2,19.6.2,2.6-.5,3.4-3.2,2.4-4.5-1.2-6.7-4.4-7.4-8.8-1.4-6.1-3.1-12.1-4.8-18.2-1.2-4.6-3.4-4.4-3,.5.5,4.8,1.1,9.6,1.7,14.4.4,2.8,1.2,7-3.1,5.1-4-1.5-5.8-5.3-6.4-9.2-1.2-5.9-2.9-11.7-4.5-17.4-.3-1.1-1.6-5-2.9-2.8-.4,1.1-.3,2.6-.2,3.8.5,5.2,1.4,10.4,1.5,15.8,0,2.4-.7,4.8-3.5,3.3-2.7-1.2-5.1-3.4-5.8-6.3-1.5-5.8-2.8-11.9-4.3-17.7-.5-2-1.2-4.2-2.4-5.8-2.1-2.6-1.8,2.7-1.6,3.9.6,5,1.3,9.9,1.8,15,.3,3.6,1,6.4-3.2,4.9-9.4-3.3-18.7-6.5-28.1-9.5-1.1-.4-2.3-.8-3.1-1.7-1.3-1.3-1-3.8-.9-5.6,2.1-22.8-2.3-43.9-17.1-62.2-4.4-5.3-.2-7.2,5.3-5.8,22.5,4.8,45.1,11,65.9,21.1,9.6,4.9,18.6,11,27,17.5,13.4,10.4,26.6,21,38.9,32.7,12.9,13.7,25.5,27.8,36.6,42.9,9.9,14.3,17.7,29.8,25.1,45.4.4.7,1.1,2.5.5,2.6h0Z"/>
          </g>
        </g>
      </g>
      <g id="Layer_1-3" data-name="Layer_1">
        <g>
          <path class="cls-8" d="M772.7,667.2v-36.2q0-3,3.1-3h11.9c2.2,0,2.7.5,2.7,2.7v65.6c0,2.2-.5,2.7-2.6,2.7h-12.7c-1.6,0-2.6-.5-3.4-1.8-8.2-13-16.4-26-24.6-39-.2-.3-.4-.7-.6-1l-.2-.2v40c0,1.3-.7,1.9-1.9,1.9h-13.8c-1.5,0-2-.5-2-2v-67.2c0-.9.3-1.5,1.3-1.6.5,0,1-.1,1.5-.1h13.9c1.7,0,2.9.6,3.8,2.1,6.7,10.9,13.4,21.7,20.2,32.5,1,1.7,2.1,3.3,3.2,5,0,0,.2.2.3.3v-.6h-.1Z"/>
          <path class="cls-8" d="M1152.3,676.3v20.2c0,1.8-.6,2.4-2.3,2.4h-13.6c-1.9,0-2.3-.4-2.3-2.2v-66.1c0-2.2.3-2.6,2.6-2.6h28.1c5.9,0,11.4,1.4,16.1,5.1,4.4,3.4,7.2,7.9,8.3,13.4,1.1,5.3.8,10.5-1.4,15.5-1.6,3.7-4.2,6.5-7.5,8.8-.4.3-.7.5-1.2.8,1.7,3.4,3.4,6.9,5.2,10.3,2.4,4.7,4.7,9.4,7.1,14.1,1.1,2.1.6,2.9-1.8,2.9h-14.8c-2.5,0-3-.6-4.1-3.1-1.5-3.6-3.2-7-4.9-10.6-.9-2-1.8-4-2.7-6-.4-.8-.7-1.6-1.1-2.4,0-.2-.4-.5-.7-.5h-9,0ZM1152.3,660.8c3.9,0,7.6,0,11.3,0,3.5-.2,5.9-2.3,7-5.5,2.1-6.1-1.4-11.6-7.9-11.4h-10.4v16.9h0Z"/>
          <path class="cls-8" d="M1017.9,644.4v11h23.5c2,0,2.6.6,2.6,2.6v10.3c0,2-.6,2.5-2.6,2.5h-23.5v11.7h31.4c2.3,0,2.6.4,2.7,2.6v11.3c0,2-.5,2.5-2.5,2.5h-47.3c-.5,0-1,0-1.4,0-.8-.2-1.2-.7-1.1-1.5v-67.5c0-.9.3-1.5,1.3-1.7.5,0,1-.2,1.5-.2h45.9c2.3,0,2.8.5,2.8,2.8v11.3c0,1.8-.6,2.4-2.5,2.4h-30.9,0Z"/>
          <path class="cls-8" d="M803.2,652.6v-22.1c0-2.4.3-2.6,2.6-2.6h12.7c2.4,0,2.8.4,2.8,2.8v37.2c0,3.2.4,6.2,1.8,9.1,3.1,6.4,11,8.4,16.8,4.7,3.6-2.3,5.7-5.8,5.8-10.1.3-13.5.3-27.1.4-40.6,0-3,0-3.1,3.1-3.1h12.4c2.2,0,2.7.5,2.7,2.7v40.4c0,6.1-1.3,11.8-4.7,17-4.5,6.8-11,10.5-18.9,11.9-6.3,1.1-12.6.8-18.7-1.1-3.2-1-6.1-2.7-8.8-4.8-3.8-3-6.3-6.8-8-11.2-1.5-3.7-2-7.5-1.9-11.5v-18.7h0Z"/>
          <path class="cls-8" d="M1116.5,698.9h-7.1c-1.2,0-1.9-.6-2.2-1.7-1-2.8-2-5.6-2.9-8.4-.3-.8-.6-1-1.4-1h-23.3c-.8,0-1.2.2-1.4,1-.9,2.7-1.8,5.4-2.8,8.1-.5,1.6-1.1,2-2.7,2h-13.9c-2,0-2.5-.7-1.8-2.6,1.4-3.6,2.8-7.3,4.2-10.9,1.6-4.2,3.2-8.5,4.9-12.8,1.3-3.4,2.7-6.8,4-10.2,1.5-3.8,2.9-7.6,4.4-11.5,1.1-2.8,2.2-5.6,3.3-8.5,1.1-2.8,2.1-5.6,3.2-8.4.6-1.6,1.3-3.3,1.9-4.9.3-.8,1-1.3,1.9-1.3h12.8c1.1,0,1.9.6,2.2,1.6,2.5,6.4,4.9,12.7,7.4,19.1,3.5,9.2,7.1,18.4,10.6,27.7,2.5,6.6,5.1,13.3,7.6,19.9.7,1.9,0,2.7-1.9,2.7h-7.1.1ZM1098.9,672.6c-2.6-7.6-5.1-15-7.6-22.4-2.5,7.4-5,14.8-7.5,22.4h15.1Z"/>
          <path class="cls-8" d="M908.9,626.6c9.5,0,16.9,2.3,23.5,7,1.5,1.1,1.6,1.9.5,3.4-2.5,3.3-5,6.5-7.4,9.8-.2.3-.4.5-.6.7-.8.9-1.7,1.1-2.8.4-1.3-.8-2.7-1.6-4.1-2.2-6.4-2.8-14.1-2-19.6,3-5.2,4.7-7.1,10.7-6.3,17.5,1.1,8.3,7.3,15,15.5,16.4,5.1.9,9.8-.4,14-3.5,1.5-1.1,2.6-1,3.8.6,2.5,3.4,5,6.7,7.5,10.1,1.1,1.5.9,2.2-.6,3.4-4,3-8.6,4.9-13.4,6.2-1.8.5-3.7.7-5.6.7-2.5,0-5,.2-7.4,0-1.8,0-3.6-.5-5.4-1-2.4-.7-4.7-1.5-6.9-2.6-2.9-1.4-5.6-3.4-8.1-5.5-3.3-2.8-5.8-6.2-7.9-10-1.8-3.2-3.1-6.6-3.6-10.3-.4-2.8-.9-5.6-.8-8.4.3-7.8,2.7-14.9,7.3-21.2,3.6-4.8,8.2-8.5,13.7-11,5-2.3,10.3-3.4,14.5-3.3l.2-.2Z"/>
          <path class="cls-8" d="M961.7,681.5h26.8c2.1,0,2.6.5,2.6,2.6v12.1c0,2.1-.5,2.6-2.6,2.6h-43.8c-.8-.2-1.2-.6-1.2-1.5v-67.6c0-.8.3-1.5,1.2-1.6.5,0,.9-.2,1.4-.2h12.7c2.4,0,2.8.5,2.8,2.9v49.2c0,16.4,0,.9,0,1.6h0Z"/>
          <path class="cls-9" d="M810.8,724.7v-22h5.6c.3,0,.8.9.8,1.4v30.1c0,1.6-.4,2-2,2-5.1,0-3.7.3-6.7-4-4.5-6.3-8.9-12.7-13.5-19.3v21.3c0,1.5-.4,2-2,2-5.1,0-4.4.4-4.4-4.2v-27.2c0-.7,0-1.3,0-2.1h5.7c.5,0,1,.6,1.4,1,4.4,6.2,8.7,12.4,13.1,18.6.6.8,1.2,1.6,1.7,2.4h.3,0Z"/>
          <path class="cls-7" d="M1080.5,703c5.3,0,10.5-.3,15.7,0,4.8.4,7.9,3.9,7.8,8.9,0,2.4-1.3,4.5-3.9,6.3,1.8.8,3.3,1.9,4.3,3.6,3,4.9.5,11.8-5,13.4-1.5.4-3,.7-4.5.7h-14.4v-33.1.2ZM1086.8,730.6h7.7c2.9,0,4.7-1.9,4.7-4.6s-2-4.7-4.8-4.8h-7.1c-.2,0-.4,0-.5,0v9.3h0ZM1086.8,716.2c2.6,0,5.1.2,7.6,0,2-.2,3.2-2,3.2-4s-1.2-3.5-3.3-3.7c-2.5-.2-5,0-7.5,0v7.8h0Z"/>
          <path class="cls-9" d="M1031.1,702.2c9.4-.3,17.4,7.6,17.3,17.3,0,9.5-7.6,17.4-17.6,17.2-9.7-.2-16.2-7.1-16.9-15.5-1-12.4,8.4-19.4,17.2-19ZM1020.4,719.3c0,6.2,4.8,11.2,10.7,11.2s10.6-5,10.7-11c0-6.1-4.7-11.1-10.7-11.2-5.9,0-10.7,4.9-10.8,11h.1Z"/>
          <path class="cls-9" d="M992.4,702.2c9.5-.4,17.5,7.7,17.3,17.2,0,9.6-7.6,17.4-17.6,17.3-9.7-.2-16.2-7-16.9-15.4-1.1-12,8-19.4,17.2-19.1ZM1003.2,719.4c0-6.1-4.8-11.1-10.7-11.1s-10.7,4.9-10.7,11,4.8,11.2,10.8,11.1c5.8,0,10.6-5,10.7-11h0Z"/>
          <path class="cls-9" d="M861.5,702.7q2.8,0,3.9,2.6c3.7,9.5,7.5,19.1,11.2,28.6.7,1.9.4,2.3-1.6,2.3h-2.3c-1.6,0-2.1-.4-2.7-1.9-.5-1.3-.9-2.7-1.5-3.9,0-.3-.6-.7-1-.7h-12.3c-.4,0-.9.5-1,.8-.6,1.4-1.1,3-1.7,4.4-.2.4-.7,1-1.1,1h-5c-.2,0-.6-.8-.5-1,1.4-3.8,2.9-7.5,4.4-11.2,1.1-2.8,2.3-5.7,3.4-8.5,1.5-3.8,2.9-7.7,4.4-11.5.3-.7.7-1.2,1.6-1h1.8,0ZM866.5,724.1c-1.7-4.6-3.3-9-5-13.4-1.7,4.5-3.3,8.9-5,13.4h10Z"/>
          <path class="cls-9" d="M768.4,702.7c2.8,0,2.9,0,3.9,2.6,3.7,9.5,7.5,19.1,11.2,28.6.7,1.9.4,2.3-1.6,2.3-5.4,0-3.9,0-5.7-4.3-.2-.6-.4-1.2-.7-1.7-.2-.3-.6-.5-.9-.5h-12.3c-.4,0-.9.4-1.1.8-.6,1.4-1.1,3-1.7,4.4-.2.5-.7,1.1-1.2,1.1-1.6,0-3.3,0-4.9,0s-.7-.7-.6-1c.9-2.3,1.8-4.6,2.7-6.9,1.2-3.1,2.5-6.3,3.7-9.4,1.5-3.7,2.9-7.4,4.4-11.1.4-1.1,1-2.1,1.3-3.3s1-1.8,2.3-1.6h1.3-.1ZM763.4,724.1h9.9c-1.7-4.5-3.3-8.9-4.9-13.4-1.7,4.5-3.3,8.9-5,13.4Z"/>
          <path class="cls-9" d="M1135.4,736.3h-.5c-3.1,0-2.6-.3-3.5-2.5-.5-1.2-.9-2.3-1.4-3.5,0-.3-.6-.5-.9-.5h-12.5c-.3,0-.8.4-1,.8-.6,1.5-1.1,3-1.7,4.4-.2.5-.8,1.2-1.2,1.2-1.6,0-3.2,0-4.8,0s-.8-.6-.5-1.2c1.7-4.4,3.4-8.7,5.2-13.1,1.9-4.7,3.8-9.4,5.7-14.1.5-1.2.9-2.4,1.3-3.6.3-.8.7-1.4,1.8-1.3,1.2,0,2.4,0,3.6,0s1.1.5,1.3.9c4,10,7.9,20,11.8,29.9.9,2.4.7,2.7-1.9,2.7h-.8ZM1123.1,710.7c-1.7,4.5-3.3,8.9-4.9,13.4h9.9c-1.7-4.5-3.3-8.9-4.9-13.4h0Z"/>
          <path class="cls-9" d="M891.6,702.2c4.3,0,7.8,1.3,11.1,3.7.8.6.9,1.2.2,2-.8.8-1.5,1.6-2.2,2.5-.6.7-1.1.8-1.8.2-2.8-2-5.8-3-9.3-2.1-2.8.7-3.4,2.8-2.5,4.4.5.9,1.7,1.7,2.7,2.1,2.9,1.2,6,2.1,9,3.4,3.6,1.6,5.7,4.4,5.5,8.6-.3,3.9-2.2,6.7-5.7,8.2-2,.9-4.3,1.5-6.4,1.5-4.1,0-8.1-1.1-11.3-4,0,0-.3-.2-.5-.3-1.7-1.2-1.7-1.9-.3-3.3.6-.6,1.2-1.2,1.7-1.8.6-.7,1.2-.7,1.9,0,2.5,2.4,5.5,3.5,9,3.4,1.4,0,2.6-.5,3.8-1.4,1.8-1.3,1.7-4.6-.8-5.6-2.3-1-4.8-1.7-7.2-2.6-2.2-.8-4.4-1.7-6.1-3.5-2.3-2.4-2.9-5.2-2-8.5,1.3-4.8,5.6-6.4,9.6-6.8h1.6Z"/>
          <path class="cls-7" d="M957.2,723.6v10.3c0,2.2-.2,2.4-2.4,2.4-4.7,0-4,.2-4-4v-27.5c0-.7,0-1.3,0-2.1h20.7c1.1,0,1.6.5,1.6,1.6v3c0,1.1-.5,1.2-1.4,1.2h-14.6v9.3h10.9c1.5,0,1.6.2,1.6,1.7v2.3c0,1.5-.2,1.7-1.6,1.7h-11,.1Z"/>
          <path class="cls-7" d="M738.9,708.6v9.3h11c1.2,0,1.6.5,1.5,1.6v2.6c0,1-.4,1.4-1.4,1.4h-11.2v10.8c0,1.5-.2,1.8-1.7,1.9h-3.4c-.9,0-1.4-.6-1.3-1.5v-30.2c0-.6,0-1.2.2-2h20.7c1.2,0,1.7.3,1.6,1.5v2.8q0,1.6-1.6,1.6h-14.3v.2Z"/>
          <path class="cls-9" d="M920.2,716.6c2.3-4.4,4.4-8.7,6.6-12.9.3-.7.8-1,1.6-1h4.7c1.4,0,1.7.4,1,1.6-2.2,3.8-4.4,7.6-6.6,11.4-1.2,2.1-2.5,4.2-3.7,6.4-.2.4-.3,1-.3,1.5v10.7c0,1.7-.3,2-2.1,2-2.9,0-4.4-1.4-4.4-4.3v-8.2c0-.6-.2-1.2-.5-1.8-3-5.2-5.9-10.3-8.9-15.5-.5-.9-1-1.9-1.5-2.8-.4-.7-.2-1.1.6-1.1h5.5c.5,0,1.1.6,1.3,1.1,2.2,4.1,4.4,8.3,6.8,12.7v.2Z"/>
          <path class="cls-9" d="M1065.6,709v25.3c0,1.2-.4,1.9-1.6,2-1.2,0-2.5,0-3.7,0-.7,0-1.3-.5-1.2-1.4v-26.1h-8.2q-1.6,0-1.6-1.6v-3.4c0-.7.3-1.1,1-1.1h23.8c.9,0,1.2.4,1.3,1.2v3.6c0,.9-.4,1.3-1.4,1.2h-8.2l-.2.2h0Z"/>
          <path class="cls-9" d="M838.3,709v25.3c0,1.2-.4,1.9-1.6,2-1.2,0-2.5,0-3.7,0-.7,0-1.3-.5-1.2-1.4v-26.1h-8.2q-1.6,0-1.6-1.6v-3.4c0-.7.3-1.1,1-1.1h23.8c.9,0,1.2.4,1.3,1.2v3.6c0,.9-.4,1.3-1.4,1.2h-8.2s-.2,0-.2.2h0Z"/>
          <path class="cls-7" d="M1143.4,735.9v-33.2h5.3c.7,0,1,.4,1,1v26.2h13.9c1.4,0,1.6.2,1.6,1.6v3.4c0,.7-.2,1.3-1.1,1.3h-20.7v-.3Z"/>
          <path class="cls-7" d="M1170,702.7h5.3c.8,0,1,.5,1,1.2v26h13.9c1.4,0,1.6.2,1.6,1.6v3.2c0,.7-.2,1.3-1.1,1.3h-20.6v-33.2h-.1Z"/>
          <path class="cls-6" d="M772.7,667.2v.6c0,0-.2-.2-.3-.3,0,0,.2-.2.3-.3Z"/>
          <path class="cls-1" d="M746.2,657.1v-.2l.2.2h-.2Z"/>
          <path class="cls-2" d="M838.3,709l.2-.2-.2.2Z"/>
          <path class="cls-2" d="M1065.6,709l.2-.2-.2.2Z"/>
        </g>
      </g>
    </g>
  </g>
</svg>