<?xml version="1.0" encoding="UTF-8"?>
<svg xmlns="http://www.w3.org/2000/svg" version="1.1" viewBox="0 0 1920 1080">
  <defs>
    <style>
      .cls-1 {
        fill: #a1e1f8;
      }

      .cls-2 {
        fill: #ec008c;
      }

      .cls-3 {
        fill: #eef9fd;
      }

      .cls-4 {
        fill: #00aeef;
      }

      .cls-5 {
        fill: #fff;
      }

      .cls-6 {
        fill: #eb018c;
      }

      .cls-7 {
        fill: #01aeee;
      }
    </style>
  </defs>
  <!-- Generator: Adobe Illustrator 28.7.1, SVG Export Plug-In . SVG Version: 1.2.0 Build 142)  -->
  <g>
    <g id="Layer_2">
      <g id="Layer_1">
        <g>
          <path class="cls-7" d="M770.9,472.9c6.1-11.2,13.3-21.6,22.7-29.9,16.6-15.1,36-24.5,58.3-27.7,28.8-4.3,55.8.7,80.6,15.5l1.1-.4v-7.2c0-3.2,1.8-5,5.4-5h43.9c4,0,5.8,1.8,6.5,5.4v158.4h75.2v-158.4c0-3.6,1.8-5.8,5.4-5.4h144c7.6,0,8.6,1.4,8.6,8.6v33.8c0,6.5-1.4,7.9-7.9,7.9h-94v33.8h71.3c7.6,0,8.6,1.1,8.6,8.6v30.6c0,6.1-1.4,7.6-7.6,7.6h-72v35.6h91.4c3.2,0,5-1.1,6.1-4,4.3-11.2,8.6-22.7,13-33.8,4.7-11.9,9-23.8,13.7-35.6,6.1-15.8,12.2-31.3,18.4-47.2,5.4-14,10.4-27.7,15.5-41.8,1.1-3.2,3.2-5.4,7.2-5.4h39.2c3.6,0,5.8,2.2,6.8,5,12.2,31.7,24.1,63,36.4,94.7,8.6,22.7,17.3,45.7,26.3,68.4,0,0,.4.7,1.4,1.8v-163.8c0-5,1.4-6.1,6.1-6.1h91.1c16.2,0,31.3,4.7,44.6,14.4,11.9,8.6,19.8,20.2,24.8,33.8,0,1.1.7,2.2.7,3.2v46.8c-5.8,15.1-15.1,27-29.2,35.3,9.7,19.4,19.4,38.5,29.2,57.2v19.4c0,2.2,2.2,4.7,3.2,6.8h-50c-4,0-5.4-2.9-6.5-5.4-6.5-13.7-13-27.4-19.4-41-2.9-6.5-5.8-13-8.6-19.4-1.1-2.9-2.5-4-5.8-4h-24.8v60.5c0,7.6-1.4,9-8.6,9h-80.6c-5,0-7.6-1.4-9-6.5-2.2-7.6-5-15.1-7.6-23-1.1-3.2-2.5-5-6.5-5h-68.8c-3.6,0-5,1.1-6.1,4.3-2.5,7.6-5,15.5-7.9,23-1.8,5.8-3.2,6.8-9.4,6.8h-305.3c-8.6,0-9-.4-9.4-9.4v-4.3c-29.9,18-61.2,22.3-94,13.3-32.4-9-56.2-29.9-71.3-61.2-.7,1.8-1.4,2.9-1.8,4-9.7,33.5-32.8,52.9-66.2,59.8-9.4,1.8-19.4,2.9-28.8,2.5-19.1-.7-37.4-5-53.6-16.2-14.8-10.1-24.5-23.8-30.2-40.3-.7-1.8-1.4-3.2-2.2-4.7h-1.1v47.9c0,6.5-1.4,7.9-8.3,7.9h-38.9c-5,0-8.3-1.8-11.2-6.1-25.2-40-50.4-79.9-75.6-119.9,0-.7-.7-1.1-1.8-2.5v119.9c0,7.6-1.4,9-9,9h-38.2c-6.5,0-7.6-1.1-7.6-7.9v-201.6c0-7.9.7-8.6,8.6-8.6h43.6c4.7,0,7.9,1.8,10.4,5.8,23.4,37.8,47.2,76,70.9,113.8,0,.4.7,1.1,2.2,1.4v-112.7c0-7.6,2.2-8.6,8.6-8.6,12.2,0,24.1-.7,36.4,0,9,.7,18.4-.7,27.4,0,9.4.4,18.7,0,28.1,0s8.3,1.4,8.3,8.3c0,41,0,82.1.4,123.1,0,17.6,10.1,34.6,29.5,38.2,11.2,2.2,21.6,0,30.6-7.2,8.6-7.2,13.3-16.2,14-27.4.7-7.2,1.4-14.4,1.4-21.2v-105.1c0-8.3.4-8.6,8.6-8.6h39.6c5.4,0,7.2,1.8,7.2,7.2v48.6l.4-.4,1.4,2.9ZM932.9,455.2c-5,6.8-9.7,13-14.4,19.1-5,6.8-6.1,6.8-13.3,2.5-15.1-9.4-31.3-13-48.6-7.9-27.7,8.3-44.6,36-40.7,65.5,4.7,34.2,35.6,56.5,69.1,49.7,7.2-1.4,14.4-5.8,21.2-9.4s8.3-4,13,2.5c4,5.4,7.9,10.4,11.9,15.8.7,1.1,1.4,1.8,2.5,3.2v-140.8l-.7-.4ZM1452.7,466.7v51.5h31.3c11.9,0,21.2-6.8,24.8-18,5-15.8-3.6-32.4-18.7-33.5-12.6-1.1-24.8,0-37.8,0h.4ZM1282.8,554.6h46.4c-7.9-23-15.5-46.1-23.4-68.8-7.6,22.7-15.1,45.4-23,68.8ZM584.4,577.6h1.1l-1.1-5.4h0v5.4Z"/>
          <path class="cls-6" d="M1563.9,515.7v-46.8c0-1.1-.4-2.2-.7-3.2,0-1.4.7-2.5.7-4v-37.1c0-6.1,1.1-7.2,7.2-7.2h272.2c5.8,0,7.6,1.8,7.6,7.6v35.3c0,5.8-1.8,7.6-7.6,7.6h-85.7v45.7s.4.4.7.7h61.2c7.2,0,8.6,1.4,8.6,8.6v31c0,5.8-1.8,7.6-7.6,7.6h-63.4v64.8c0,7.6-1.4,9-9,9h-37.4c-9,0-9.4-.4-9.4-9.4v-158h-81v45.4s.4.4.7.7h61.2c7.2,0,8.6,1.4,8.6,8.6v31c0,5.8-1.8,7.6-7.6,7.6h-63.4v64.8c0,7.9-1.4,9-9,9h-43.6c-1.1-2.2-3.2-4.3-3.2-6.8-.4-6.5,0-13,0-19.4v-92.9h-.4Z"/>
          <path class="cls-1" d="M770.9,472.9l-.4.4v-.7h.4v.4Z"/>
          <path class="cls-3" d="M1620.8,513.9s-.4-.4-.7-.7c0,0,.4.4.7.7Z"/>
          <path class="cls-3" d="M1758.3,513.9s-.4-.4-.7-.7c0,0,.4.4.7.7Z"/>
        </g>
      </g>
    </g>
    <g id="Layer_3">
      <g id="Layer_1-2" data-name="Layer_1">
        <g>
          <g>
            <path d="M417.1,538.3c.2-.6.4-1,.6-1.2-.2.2-.4.6-.6,1.1-1.6,4.8-3.2,9.6-4.8,14.4-.2.5-.5,1.3-.9,1.7.4-.5.6-1.2.8-1.6,1.6-4.8,3.2-9.6,4.8-14.4h0Z"/>
            <path d="M413.8,512.9c-.2-.6-.5-1.6-1-2h-.2.2c.5.4.8,1.4,1,2,1.4,5.4,2.6,10.8,4.1,16.2.4,1.8,1.3,3.4,2.9,4.4,4.3,3.1,8.8,5.9,13.2,8.9,4.4,2.9.9.5,1.2.5h0c-.4,0-.9-.2-1.2-.5-4.4-2.9-8.9-5.8-13.2-8.9-1.6-1-2.5-2.6-2.9-4.4-1.5-5.4-2.6-10.8-4.1-16.2Z"/>
            <path d="M408.2,522.5c.4,2.1,1.2,4.3,3.4,5.1.5.2.9.3,1.2.2-.3.1-.7,0-1.2-.2-2.2-.8-3.1-2.9-3.4-5.1-.9-4.1-1.9-8.1-2.9-12.1-.2-1.3-1-2.5-1.5-2.6.5,0,1.4,1.2,1.6,2.6,1,4,2.1,8,2.9,12.1Z"/>
            <path d="M402.9,551.1c-.2.3-.4.6-.6.9.2-.3.4-.6.5-.9.6-1.2,1.2-2.5,1.6-3.8,1.4-3.8,2.4-7.7,3.6-11.5.3-.8.6-1.8,1.1-2.4,0,0,.1-.1.2-.2,0,0,0,0-.1.1-.5.6-.8,1.6-1.1,2.4-1.2,3.8-2.2,7.8-3.6,11.5-.5,1.3-1.1,2.5-1.6,3.8h0Z"/>
            <path d="M398.8,517c-.8-3.8-1.6-7.5-2.7-11.2-.5-1.2-1-2.1-1.4-2.2.4,0,1,.9,1.5,2.2,1.1,3.7,1.9,7.4,2.7,11.2.3,2.3,1.4,4.5,3.7,5.4.3.1.6.2.8.2-.2,0-.6-.1-.9-.2-2.3-.9-3.4-3.1-3.7-5.4Z"/>
            <path class="cls-5" d="M393.5,517.6c-1.6-1-3.4-2.5-3.8-4.5-1.2-4-1.9-8.3-3.4-12.2-.3-.5-.5-.7-.7-.6-.5,0-.8,1.2-.8,1.9.2,3.4.9,6.6,1.2,9.9,0,.6-.4.9-.9.9-1.2,0-3-1.3-3.4-1.9-.8-.9-1.2-2.3-1.4-3.5-.7-3.4-1.6-6.6-2.6-9.9-.2-.7-.5-1.6-.9-2.2-.2-.2-.4-.4-.5-.3-1.5-.1.8,10.9.6,11.8,0,1.1-.1,1.6-.8,1.6s-.6-.1-1.1-.2c-2.6-.7-3.9-2.6-4.4-5.2-.8-3.6-1.8-7.1-2.8-10.7-.4-1.4-.8-2-1.2-1.9-.4,0-.7.7-.6,2.2.3,2.8.6,5.6,1,8.5.2,1.3.5,3.1-.6,3.3h-.1c-.3,0-.6-.1-1.1-.3-2.4-.9-3.4-3.1-3.8-5.4-.7-3.5-1.7-6.9-2.6-10.2-.1-.5-.6-2.1-1.2-2-.2,0-.4.1-.5.4-.2.6-.1,1.5-.1,2.2.3,3.1.9,6.1.9,9.3s-.2,2.2-1.1,2.2c-.2,0-.5-.1-.9-.3-1.6-.7-3-2-3.4-3.7-.9-3.4-1.6-7-2.5-10.4-.3-1.2-.7-2.5-1.4-3.4-.2-.3-.5-.4-.6-.4-.6,0-.5,2.1-.4,2.7.4,2.9.8,5.8,1.1,8.8.1,1.6.4,3-.6,3.1h-.3c-.2,0-.5-.1-.9-.2-5.5-1.9-11-3.8-16.6-5.6-.6-.2-1.4-.5-1.8-1-.8-.8-.6-2.2-.5-3.3,1.2-13.5-1.4-25.9-10.1-36.7-1.9-2.4-1-3.6.9-3.6h.6c.5,0,.9.1,1.5.2,13.3,2.8,26.6,6.5,38.9,12.5,5.6,2.9,10.9,6.5,15.9,10.3,7.9,6.1,15.7,12.4,22.9,19.3,7.6,8.1,15.1,16.4,21.6,25.3,5.8,8.4,10.4,17.6,14.8,26.8h0c.2.3.5.9.5,1.3s0,.2,0,.2h0c-.4,0-.9-.2-1.2-.5-4.4-2.9-8.9-5.8-13.2-8.9-1.6-1-2.5-2.6-2.9-4.4-1.5-5.4-2.6-10.8-4.1-16.2-.2-.6-.5-1.6-1-2h-.2c-.8,0-.5,2.1-.5,2.7.2,4.2.9,8.3,1.2,12.5,0,.8,0,1.4-.4,1.6,0,0,0,0-.1,0-.3,0-.6,0-1.2-.2-2.2-.8-3.1-2.9-3.4-5.1-.9-4.1-1.9-8.1-2.9-12.1-.2-1.4-1.1-2.6-1.6-2.6-.4,0-.6.5-.6,2,.4,3.5.9,7.1,1.2,10.5,0,.8.2,1.9-.6,2.2h-.2c-.2,0-.5-.1-.8-.2-2.3-.9-3.4-3.1-3.7-5.4-.8-3.8-1.6-7.5-2.7-11.2-.5-1.2-1.1-2.2-1.5-2.2-.3,0-.5.5-.5,2s0,1.6.1,2.4v.2c0,.3,0,.6.1.8h0c.1.9.2,1.7.3,2.5.2,1.8.5,3.8.1,5.6,0,.3-.2.5-.4.6h-.2c-.2,0-.5-.1-.8-.4h0Z"/>
            <path d="M394.3,508.3c0,.3,0,.5.1.8,0-.2,0-.5-.1-.8Z"/>
            <path d="M393.3,547.8c0,.1-.1.2-.2.3,0,0,.1-.1.2-.2,1.7-4.1,3-8.3,4.5-12.5.6-1.9.9-3.9,1.9-5.6.1-.2.2-.4.4-.6-.1.2-.2.4-.3.5-.9,1.8-1.2,3.8-1.9,5.6-1.5,4.2-2.8,8.5-4.5,12.5Z"/>
            <path d="M389.6,513.1c-1.2-4-1.9-8.3-3.4-12.2-.2-.5-.5-.6-.6-.6.2,0,.5.2.7.6,1.5,3.9,2.2,8.2,3.4,12.2.4,1.9,2.2,3.5,3.8,4.5.3.2.5.4.8.4-.2,0-.5-.1-.8-.4-1.6-1-3.4-2.5-3.8-4.5Z"/>
            <path d="M390.3,526.8c-1.8,6-3.4,12.1-6.2,17.6-.2.4-.4.6-.6.6.2,0,.4-.2.5-.5,2.8-5.6,4.4-11.6,6.2-17.6.2-.6.4-1.3.9-1.7-.4.4-.6,1.1-.8,1.6h0Z"/>
            <path d="M376.8,495.7c.5.6.7,1.5.9,2.2.9,3.3,1.9,6.5,2.6,9.9.2,1.2.6,2.5,1.4,3.5.4.6,2.2,1.9,3.4,1.9-1.2,0-3.1-1.3-3.5-1.9-.8-.9-1.2-2.3-1.4-3.5-.7-3.4-1.6-6.6-2.6-9.9-.2-.7-.5-1.6-.9-2.2-.2-.2-.4-.3-.5-.3.1,0,.3,0,.5.3Z"/>
            <path d="M376.1,536.9c-.3.7-.6,1.8-1.2,2.4.5-.6.8-1.6,1.1-2.3,1.9-5.2,3.7-10.4,5.2-15.6,0-.2.2-.4.3-.5-.1.1-.2.2-.2.4-1.5,5.2-3.3,10.5-5.2,15.6Z"/>
            <path class="cls-5" d="M353,510.1c.3-.3.6-.4,1.1-.4,3,.3,4,1.5,3.4,4.5-.6,4.5-1.5,9-2.2,13.5,0,.8-.4,2.2.2,2.7.2,0,.5-.1.6-.3h0c.5-.5.8-1.5,1-2,1.3-3.6,2.5-7.2,3.7-10.9.5-1.2.6-2.8,1.4-3.6h0c.4-.4,1-.5,1.9-.4,3.1.5,2.8,2.9,2.4,5.3-.6,4.6-1.5,9.1-2.2,13.7,0,.6-.6,3.9.6,2.8,0,0,0,0,0,0s0,0,0,0c.6-.6,1.2-1.7,1.5-2.6,1.5-4.2,2.8-8.5,4.2-12.8.3-.8.4-1.9,1-2.5.2-.2.5-.3.8-.4h.6c1,.2,2.3.5,2.9,1.3.6.9.5,2.2.4,3.3-.6,4.2-1.2,8.4-1.9,12.6,0,1.1-1.8,5.8-.4,6,.2,0,.4-.2.5-.4,0,0,0,0,.1-.1.5-.6.8-1.6,1.2-2.4,1.9-5.2,3.7-10.4,5.2-15.6,0-.2.2-.3.2-.4,0,0,0,0,.1-.1,1.3-1.1,4.2.5,4.2,2.1.2.8,0,1.6,0,2.4-.5,4.4-1.1,8.8-1.8,13.1-.2,2.1-1,4.2-1,6.2,0,.5.2.6.5.5h0c.2,0,.4-.2.6-.6,2.8-5.6,4.4-11.6,6.2-17.6.2-.6.4-1.2.8-1.6h0c0,0,.1-.1.2-.2,1.3-.8,3.4.3,3.5,1.9.1.8,0,1.7-.1,2.5-.9,5.3-1.7,10.6-2.5,15.8,0,.8-.4,1.7-.2,2.5.2.7.6.8.9.4h0c0,0,.1-.2.2-.3,1.7-4.1,3-8.3,4.5-12.5.6-1.9.9-3.9,1.9-5.6.1-.2.2-.4.3-.5,0,0,.1-.1.2-.2.7-.6,1.7-.6,2.7.1,1.1.6,1.4,1.9,1.3,3-.2,5.9-1.9,11.6-2.8,17.5,0,.7-.5,2.9.4,2.9h.1c.1,0,.3-.2.4-.4.2-.2.5-.6.6-.9.6-1.2,1.2-2.5,1.6-3.8,1.4-3.8,2.4-7.7,3.6-11.5.3-.8.6-1.8,1.1-2.4,0,0,0,0,.1-.1.9-.9,2.5-.2,3.2.8.5.8.5,1.9.4,2.8-.5,4.9-1.6,9.8-2.4,14.7,0,.9-.4,2.4.3,3,.2,0,.5,0,.6-.3h0c.4-.5.6-1.4.9-1.8,1.6-4.8,3.2-9.6,4.8-14.4.2-.5.4-.9.6-1.1h0c.3-.3.7-.2,1.4,0,1.3.6,2.7,1.5,4.1,2.1,3.2,1.6,6.5,3.4,9.7,5.1h0c1.4.8,2.8,1.6,1.2,3.2-.6.7-1.2,1.4-1.8,2.1-3.1,3.4-6.3,6.5-9.6,9.6-17.5,15.9-38.5,27.9-60.8,35.8-15.3,6-31.4,9-47.7,10.2-4.1.2-7.6-2.1-10.3-5.1-8.2-9.8-16.1-19.7-24.1-29.6-.6-.9-.9-1.7-.2-2.4h.1c.1-.2.3-.4.5-.5,6.1-3.5,11.9-7.6,17.1-12.2,2.4-2.2,4.7-4.5,6.9-6.8,10.7-11.8,18.3-26.3,21.5-42.2.3-1.8.6-3.1,1.1-3.7,0,0,0,0,.1-.1.7-.6,1.9-.5,4.2.3,5.1,1.5,10.2,2.9,15.3,4.4,1.2.3,2.4,1,2.3,2.4-.6,4.6-1.6,9.3-2.4,13.9-.1,1-1.2,3.7-.1,4.3.2,0,.4-.1.6-.4,0,0,0,0,.1-.1,1.4-1.5,2.9-6.8,3.3-8.1.8-2.4,1.5-4.9,2.2-7.3.2-.5.4-1.1.7-1.5h0v-.2Z"/>
            <path d="M370.6,503.4c.4,2.6,1.7,4.5,4.4,5.2.4.2.8.2,1.1.2-.3,0-.6,0-1.1-.2-2.6-.7-3.9-2.6-4.4-5.2-.8-3.6-1.8-7.1-2.8-10.7-.4-1.3-.8-1.9-1.2-1.9.4,0,.9.6,1.2,1.9,1,3.6,2,7.1,2.8,10.7h0Z"/>
            <path d="M366.7,532.2c-.3.9-.9,2-1.5,2.6h0c.6-.6,1.2-1.6,1.5-2.6,1.5-4.2,2.8-8.5,4.2-12.8.3-.8.4-2,1.1-2.6-.6.6-.7,1.8-1,2.5-1.4,4.3-2.7,8.6-4.2,12.8h0Z"/>
            <path d="M357.6,486.9c.6,0,1.1,1.5,1.2,2,.9,3.4,1.9,6.8,2.6,10.2.4,2.3,1.4,4.5,3.8,5.4.4.2.8.3,1.1.3-.3,0-.6,0-1.1-.3-2.4-.9-3.4-3.1-3.8-5.4-.7-3.5-1.7-6.9-2.6-10.2-.1-.5-.6-2-1.2-2Z"/>
            <path d="M357.2,528.1c1.3-3.6,2.5-7.2,3.7-10.9.5-1.2.6-2.9,1.5-3.7-.8.8-.9,2.5-1.4,3.6-1.2,3.6-2.4,7.3-3.7,10.9-.2.5-.5,1.4-1,1.9.4-.5.7-1.4.9-1.9Z"/>
            <path d="M442.4,548.8c.1.1.2.2.3.4v.3h-.2c-.5-.1-.9-.4-1.4-.6-1.2-.6-2.5-1.1-3.2-.6-1.4,1.2-1.9,3.5-3,5-17.5,27.8-48.5,43.9-78.5,55-2.1.6-3,2-3,4.1-.5,5.6-1.8,11.1-5.8,15.3-9.8,9.8-25.4,3.8-34.9-3.2-2.3-1.6-4.4-3.4-6.6-5.1-2.2-1.8-4.4-3.9-7.2-4.8-3.4-1.1-6.9-2.2-10.3-3.2-2.6-.7-5.1-1.8-7.8-2.2-1.4-.1-2.5.9-3.5,1.6-3.7,2.8-7.8,4-12.5,3.5-1.3-.1-2.6-.3-3.8.3s-1.4.8-1.9,1.3c-3.8,3.2-7.8,6.1-12,8.5-3.9,2.2-8,4.2-12.3,5.5-6.8,1.9-15.1.9-20.3-4.1-3.8-3.5-5.3-8.8-5.9-13.9-2.1-17.1,4.9-33.2,10.6-49,.6-1.5,1.4-3.4-.7-4.1-12.3-3.6-24.6-7.1-35.7-13.5-6.5-3.6-11.6-9.3-12.8-16.9-1.6-7.5.9-15,6-20.6,10.4-11.6,25.7-16.1,40.3-19.8,4.6-1.2,5.1-1.6,3.7-6.2-5.2-16.6-10.5-33.9-6.8-51.4.9-3.4,1.6-6.9,4.1-9.5,3.6-4.1,10.4-6.8,15.2-6.4,6.8,1.1,13.2,3.9,18.9,7.5,1.4.9,2.8,1.8,4.4.6,8.8-7.2,21.6-4.9,26.5,5.6.6,1.2,1.2,2.5,2.5,2.9.9.4,1.9.4,2.9.5,7.8.7,15.5,1.8,23.3,2.6,1.9.2,3.7-.5,5.2-1.6,5.9-4.2,12.2-7.8,19.2-9.8,7.3-2.4,15.8-1.4,20.7,4.9,3.9,4.8,4.2,11.2,5.7,16.9.4,1.7,1.5,3.2,2.9,4.2,4.7,3.5,9.5,6.9,14.2,10.5,17,12.1,31.8,26.9,43.7,44,4.7,6.8,8.8,13.9,11.5,21.7,2.4,6.3,3,13.1,4.9,19.5.6,1.7,2.2,3,3.5,4.2h0ZM349.9,519c-.5,1.3-1.9,6.5-3.2,8.1,0,0,0,0-.1.1-.2.2-.4.3-.6.3-1.1-.6.1-3.3.1-4.3.8-4.6,1.8-9.2,2.4-13.9.1-1.4-1.1-2.1-2.3-2.4-5.2-1.4-10.2-2.8-15.3-4.4-2.3-.8-3.5-.9-4.2-.2,0,0,0,0-.1.1-.6.6-.9,1.8-1.2,3.8-3.1,15.9-10.7,30.4-21.4,42.2-2.2,2.4-4.5,4.7-6.9,6.8-5.2,4.6-10.9,8.8-17,12.2-.2.1-.4.2-.5.4h-.1c-.7.8-.5,1.6.2,2.6,8,9.9,15.9,19.8,24.1,29.6,2.6,3,6.2,5.3,10.3,5.1,16.3-1.2,32.5-4.2,47.7-10.2,22.3-7.9,43.3-19.9,60.9-35.9,3.4-3.1,6.6-6.2,9.6-9.6.6-.7,1.3-1.4,1.9-2.1h0c1.5-1.6.1-2.5-1.2-3.2-3.2-1.7-6.5-3.4-9.7-5.1-1.4-.6-2.8-1.4-4.1-2.1-.7-.4-1.1-.4-1.4,0h0c-.2.2-.4.6-.6,1.2-1.6,4.8-3.2,9.6-4.8,14.4-.2.4-.4,1.2-.8,1.6h0c-.2.2-.4.3-.6.3-.7-.6-.3-2.1-.3-3,.8-4.9,1.9-9.8,2.4-14.7.1-.9,0-2.1-.4-2.8-.7-1-2.3-1.8-3.2-.8,0,0-.1.1-.2.2-.5.6-.8,1.6-1.1,2.4-1.2,3.8-2.2,7.8-3.6,11.5-.5,1.3-1.1,2.5-1.6,3.8-.1.2-.4.6-.5.9-.1.1-.2.2-.4.2h-.1c-.9,0-.4-2.1-.4-2.8.9-5.8,2.6-11.5,2.8-17.5,0-1.1-.2-2.4-1.3-3-1.1-.7-2.1-.8-2.8,0,0,0-.1.1-.2.2-.2.2-.3.4-.4.6-.9,1.8-1.2,3.8-1.9,5.6-1.5,4.2-2.8,8.5-4.5,12.5,0,0-.1.2-.2.2h0c-.4.4-.8.2-.9-.4-.2-.8.2-1.7.2-2.5.8-5.2,1.6-10.5,2.5-15.8.1-.8.2-1.6.1-2.5-.1-1.6-2.2-2.7-3.5-1.9-.1,0-.2.1-.3.2h0c-.5.4-.7,1.1-.9,1.7-1.8,6-3.4,12.1-6.2,17.6-.2.3-.4.5-.5.5h0c-.2,0-.4-.2-.4-.6,0-2.1.8-4.2,1-6.2.7-4.4,1.3-8.8,1.8-13.1,0-.8.1-1.6,0-2.4,0-1.6-3-3.2-4.3-2.1,0,0,0,0-.1.1-.1.1-.2.3-.3.5-1.5,5.2-3.3,10.5-5.2,15.6-.3.7-.6,1.7-1.1,2.3,0,0,0,0-.1.1-.1.1-.3.2-.5.3-1.4-.2.4-4.9.4-6,.7-4.2,1.3-8.3,1.9-12.6.1-1.1.3-2.4-.4-3.3-.6-.8-1.9-1.1-2.9-1.3h-.6c-.4,0-.6.2-.9.4-.6.6-.7,1.8-1.1,2.6-1.4,4.3-2.7,8.6-4.2,12.8-.3.9-.9,2-1.5,2.6,0,0,0,0,0,0-1.1.9-.5-2.4-.5-2.9.7-4.6,1.6-9.1,2.2-13.7.4-2.4.6-4.8-2.4-5.3-.9-.2-1.5,0-2,.4h0c-.8.8-.9,2.5-1.5,3.7-1.2,3.6-2.4,7.3-3.7,10.9-.2.5-.5,1.4-.9,1.9,0,0,0,0,0,0-.2.1-.4.2-.6.2-.6-.5-.2-1.9-.2-2.7.7-4.5,1.5-8.9,2.2-13.5.6-3-.4-4.2-3.4-4.5-.5,0-.9.1-1.2.4h0c-.4.5-.6,1.1-.8,1.6-.7,2.4-1.4,4.9-2.2,7.3h.1ZM348.4,483.2c.7.9,1.1,2.2,1.4,3.4.9,3.4,1.6,7,2.5,10.4.4,1.7,1.8,3,3.4,3.7.4.2.7.3.9.3.9,0,1.2-1.1,1.2-2.2,0-3.2-.6-6.2-.9-9.3,0-.7-.1-1.6.1-2.2.2-.2.3-.4.5-.4.6,0,1.1,1.5,1.2,2,.9,3.4,1.9,6.8,2.6,10.2.4,2.3,1.4,4.5,3.8,5.4.5.2.8.3,1.1.3h.1c1.2,0,.9-1.9.7-3.3-.4-2.8-.7-5.6-1-8.5-.1-1.5.2-2.2.5-2.2s.8.7,1.2,1.9c1,3.6,2,7.1,2.8,10.7.4,2.6,1.7,4.5,4.4,5.2.5.2.8.2,1.1.2.7,0,.9-.5.8-1.6.2-.8-2-11.6-.6-11.8.1,0,.3.1.5.3.5.6.7,1.5.9,2.2.9,3.3,1.9,6.5,2.6,9.9.2,1.2.6,2.5,1.4,3.5.4.6,2.3,1.9,3.5,1.9s.9-.2.9-.9c-.2-3.3-1-6.6-1.2-9.9,0-.7.2-1.9.7-1.9.2,0,.4.2.6.6,1.5,3.9,2.2,8.2,3.4,12.2.4,1.9,2.2,3.5,3.8,4.5.3.2.6.4.8.4h.2c.2-.1.4-.4.4-.6.4-1.9.1-3.8-.1-5.6-.1-.9-.2-1.6-.4-2.4h0c0-.4,0-.6-.1-.9v-.2c0-.6,0-1.4,0-2.4s.2-1.9.5-2c.4,0,.9,1,1.4,2.2,1.1,3.7,1.9,7.4,2.7,11.2.3,2.3,1.4,4.5,3.7,5.4.3.1.6.2.9.2h.3c.8-.3.6-1.5.6-2.2-.4-3.5-.8-7-1.2-10.5,0-1.4.2-1.9.5-2,.5,0,1.3,1.2,1.5,2.6,1,4,2.1,8,2.9,12.1.4,2.1,1.2,4.3,3.4,5.1.6.2,1,.4,1.2.2,0,0,.1,0,.1,0,.4-.2.5-.8.5-1.6-.2-4.2-.9-8.3-1.2-12.5,0-.5-.2-2.6.4-2.7h.2c.5.4.8,1.4,1,2,1.4,5.4,2.6,10.8,4.1,16.2.4,1.8,1.3,3.4,2.9,4.4,4.3,3.1,8.8,5.9,13.2,8.9s.9.5,1.2.5h0c.4-.1,0-1.2-.3-1.6-4.4-9.2-9-18.3-14.8-26.8-6.5-8.9-14-17.2-21.6-25.3-7.2-6.9-15.1-13.2-22.9-19.3-5-3.8-10.3-7.4-15.9-10.3-12.3-6-25.6-9.6-38.9-12.5-.5-.1-1.1-.2-1.5-.2h-.6c-2,0-3,1.3-1,3.6,8.7,10.8,11.3,23.2,10.1,36.7,0,1.1-.2,2.5.5,3.3.5.5,1.2.8,1.8,1,5.6,1.8,11.1,3.6,16.6,5.6.4.1.7.2.9.2h.3c1.1,0,.8-1.4.7-3.1-.3-3-.7-5.9-1.1-8.8-.1-.5-.2-2.6.4-2.7.1,0,.3.1.5.4h0ZM253.6,604.3c2.8,5.2,8.3,8.3,14.3,7.9,7.7-.5,13.8-6.9,13.8-14.6h0c.2-7.8-6-14.8-13.8-15.2-11.6-1.1-19.9,11.8-14.4,21.9ZM266.8,450.4c8.2.1,14.9-6.6,14.9-14.8h0c.1-10.9-11-18.2-20.8-13.9-14.8,6.6-10.5,28.4,5.9,28.6ZM347.1,439.6c.5.2,1.4.4,1.4-.4-.2-1.4-1.2-2.4-2.4-2.9-1.3-.6-2.8-.8-4.1-.8h-.1c-.5,0-3.8.2-2.5,1.2,2.4,1.4,5.2,2,7.7,3ZM340.6,614.9c.2-.6,0-1.5-.9-1.5-4.3.7-8.6,1.8-12.9,2.6-1.6.4-1.3,1.2,0,1.7,2,.7,3.7,1.6,5.7,2h.2c3.5.3,7.4-1.1,7.9-4.8h0ZM298.2,483c1.4,0,1.5-1.4,1.5-2.6-.5-3.6-1.4-7.2-2.1-10.7-.2-1.7-.7-2.9-2.2-1.2-2.5,2.8-5.1,5.5-7.5,8.3-2.3,2.5-1.6,4,1.6,4.6,2.8.5,5.5,1.1,8.3,1.5h.4,0ZM297.7,498.5c.1-.8.4-1.8,0-2.5-.5-.7-1.6-.8-2.5-.9-5.1-.5-9.6-1.2-14.1-1.5-3.4,0-6.5.2-8.8,2.6-2.7,3-5.1,6.3-7.3,9.6-3.9,5.9-7.9,11.8-11.6,17.8-1.2,1.8-.5,3.9.6,5.6,2.3,3.8,4.4,7.7,6.5,11.6,1.7,3.6,2.9,3.1,5.9,1.1,15.3-10,27.1-25.5,31.3-43.4h0ZM289.4,455.6c1-1.2.5-2.5-.5-3.4-1.6-1.8-3.1-3.6-4.8-5.4-1.8-1.9-2.6-2.4-4.5-.4-3.5,3.6-7.9,6-12.8,5.8-8.2-.3-14.8-5.1-16.5-13.2-1-3.6-3.8-5.6-6.8-7.5-3.3-2.2-6.9-4.1-11-4.3h0c0-.1-.1-.1-.1-.1-3.9-.2-7.1,2-7.8,5.8-.7,3.2-1,6.6-.9,9.9.4,12.4,4.2,24.1,7.6,35.9.5,1.5.9,3.9,2.5,4.6,1.5.6,3.6-.1,5.2-.3,8.6-.9,17.2-1.5,25.8-2.5,2.2-.2,4.4-1.1,5.7-2.9,6.3-7.3,12.7-14.7,18.9-22.2h0ZM270.9,580.1c0-.2,0-.5-.2-.8-.9-1.3-1.9-2.6-2.8-3.9-2.4-3.4-4.5-6.9-6.8-10.5-4.6-7.5-9.2-15.1-13.9-22.5-2-2.9-3.6-2.5-5.2.4-10.7,19-19.1,39.3-22.3,60.9-.2,2.2-.2,4.5.2,6.8.8,4.4,2.8,6.9,7.4,6.6,8-.6,14.9-5.1,21.2-9.7,2.4-1.6,2.9-3,2-5.8-1.4-5.2-.3-10.5,2.7-14.5,2.8-3.9,7.9-6.6,13-6.8,1.2-.2,2.6,0,3.8-.2.4,0,.6-.1.8-.3h0ZM255.2,498.4c.9-1.3.8-2.9-1.1-3.1h-.1c-3.8.5-7.6.9-11.5,1.2-.9.1-2.2.3-2.8,1.2-.5.9,0,2,.3,2.9.9,2.1,1.8,4.1,2.8,6.1,2.1,4,3.3,6.1,6.3,1.3,2.2-3.1,4.2-6.3,6.2-9.6h0ZM236.8,527.5c.9-1.5.9-3.2,0-4.8-2.9-6.6-6-13.1-9-19.6-1.3-3.4-3-3.6-6.2-2.9-11.1,1.9-21.3,6.8-30.7,12.9-2.6,1.8-5.8,3.2-7.8,5.8-.5.7-1,1.7-1.4,2.7s-.6,2.2-.6,3.2h0c2.1,7.1,9.6,9.8,15.7,12.5h0c8.1,3.5,16.5,6.3,25.2,8.4,1.4.3,3.2.9,4.5.1.9-.5,1.5-1.6,1.9-2.5,2.7-5.4,5.5-10.6,8.2-15.9h0Z"/>
            <path d="M349.9,519c.8-2.4,1.5-4.9,2.2-7.3.2-.6.4-1.2.8-1.5-.4.4-.6.9-.7,1.5-.7,2.4-1.4,4.9-2.2,7.3-.5,1.3-1.9,6.6-3.3,8.1,1.4-1.6,2.8-6.8,3.2-8.1h0Z"/>
            <path d="M355.8,500.7c-1.6-.7-3-2-3.4-3.7-.9-3.4-1.6-7-2.5-10.4-.3-1.2-.7-2.5-1.4-3.4-.2-.3-.4-.4-.5-.4.1,0,.4.1.6.4.7.9,1.1,2.2,1.4,3.4.9,3.4,1.6,7,2.5,10.4.4,1.7,1.8,3,3.4,3.7.4.2.6.3.9.3-.2,0-.6,0-.9-.3Z"/>
            <path d="M317.7,450.6c8.7,10.8,11.3,23.2,10.1,36.7,0,1.1-.2,2.5.5,3.3.5.5,1.2.8,1.8,1,5.6,1.8,11.1,3.6,16.6,5.6.4.1.6.2.9.2-.2,0-.6-.1-.9-.2-5.5-1.9-11-3.8-16.6-5.6-.6-.2-1.4-.5-1.8-1-.8-.8-.5-2.2-.5-3.3,1.2-13.5-1.4-25.9-10.1-36.7-2-2.4-1-3.6,1-3.6-2,0-2.9,1.3-.9,3.6h0Z"/>
            <path d="M303.9,548.4c10.7-11.8,18.3-26.2,21.4-42.2.3-1.9.6-3.1,1.2-3.8-.6.6-.8,1.8-1.1,3.7-3.1,16-10.7,30.5-21.5,42.2Z"/>
            <path class="cls-4" d="M281.7,435.6c0,8.2-6.8,14.9-14.9,14.8-16.3-.2-20.7-22-5.9-28.6,9.8-4.3,20.9,3,20.8,13.8h0Z"/>
            <path d="M303.7,600c-8.2-9.8-16.1-19.7-24.1-29.6-.7-.9-.9-1.8-.2-2.5-.6.7-.4,1.5.2,2.4,8,9.9,15.9,19.8,24.1,29.6,2.6,3,6.2,5.3,10.3,5.1,16.3-1.2,32.5-4.2,47.7-10.2,22.3-7.9,43.3-19.8,60.8-35.8-17.5,16-38.6,27.9-60.9,35.9-15.3,6-31.4,9-47.7,10.2-4.1.2-7.6-2.1-10.3-5.1h0Z"/>
            <path class="cls-2" d="M268,582.5c7.8.4,14,7.3,13.8,15.1h0c0,7.8-6.1,14.3-13.8,14.8-6,.4-11.6-2.8-14.3-7.9-5.5-10.1,2.8-22.9,14.4-21.9Z"/>
          </g>
          <g id="LINE_WORK">
            <path d="M442.7,549.1c0-.1-.2-.2-.3-.4-1.3-1.2-2.9-2.5-3.5-4.2-1.9-6.4-2.5-13.2-4.9-19.5-2.8-7.8-6.8-14.9-11.5-21.7-11.9-17.2-26.7-32-43.7-44-4.8-3.5-9.5-6.9-14.2-10.5-1.4-1.1-2.5-2.5-2.9-4.2-1.5-5.8-1.8-12.2-5.7-16.9-4.9-6.2-13.4-7.3-20.7-4.9-7.1,2.1-13.3,5.6-19.2,9.8-1.5,1.1-3.3,1.8-5.2,1.6-7.8-.8-15.5-1.9-23.3-2.6-.9-.1-2-.2-2.9-.5-1.2-.4-1.9-1.7-2.5-2.9-4.9-10.5-17.8-12.9-26.5-5.6-1.5,1.1-3,.3-4.4-.6-5.8-3.6-12.1-6.5-18.9-7.5-4.8-.4-11.6,2.3-15.2,6.4-2.5,2.6-3.2,6.2-4.1,9.5-3.6,17.5,1.6,34.8,6.8,51.4,1.4,4.6.9,5-3.7,6.2-14.6,3.7-29.9,8.2-40.3,19.8-5.1,5.6-7.6,13.1-6,20.6,1.2,7.6,6.3,13.3,12.8,16.9,11.2,6.5,23.5,9.9,35.7,13.5,2.1.6,1.3,2.5.7,4.1-5.8,15.8-12.7,31.9-10.6,49,.6,5.1,2.1,10.3,5.9,13.9,5.3,4.9,13.5,5.9,20.3,4.1,4.4-1.2,8.5-3.3,12.3-5.5,4.2-2.4,8.2-5.3,12-8.5.6-.5,1.2-.9,1.9-1.3,1.2-.6,2.5-.4,3.8-.3,4.6.5,8.8-.7,12.5-3.5,1-.8,2.2-1.8,3.5-1.6,2.6.4,5.2,1.5,7.8,2.2,3.4,1.1,6.9,2.1,10.3,3.2,2.8.9,4.9,3.1,7.2,4.8,2.2,1.8,4.3,3.5,6.6,5.1,9.5,7,25.2,13,34.9,3.2,4-4.2,5.3-9.7,5.8-15.3,0-2.1.9-3.5,3-4.1,30-11.1,61-27.2,78.5-55,1.1-1.5,1.6-3.8,3-5,.8-.5,2.1,0,3.2.6.4.2.9.5,1.4.5h.2c0,.1,0-.2,0-.2h0ZM342,435.4h.1c2.5,0,6.1.9,6.5,3.8,0,.8-.9.6-1.4.4-2.5-1-5.3-1.6-7.7-3-1.3-.9,2-1.2,2.5-1.2h0ZM297.6,469.6c.7,3.5,1.5,7.1,2.1,10.7h0s0,0,0,0h0c0,0,0,0,0,0,0,1.3-.1,2.8-1.9,2.5-2.8-.4-5.6-1-8.3-1.5-3.2-.6-3.9-2.1-1.6-4.6,2.5-2.8,5-5.6,7.5-8.3,1.5-1.7,2-.5,2.2,1.2h0ZM255.2,498.4c-2,3.2-4,6.5-6.2,9.6-3.1,4.8-4.3,2.7-6.3-1.3-1-2-1.9-4-2.8-6.1-.4-.9-.8-2-.3-2.9.6-.9,1.9-1.1,2.8-1.2,3.9-.4,7.7-.7,11.5-1.2h.1c1.9.2,2.1,1.8,1.1,3.1ZM253.3,523.6c3.8-6,7.7-11.9,11.6-17.8,2.3-3.2,4.6-6.6,7.3-9.6,2.3-2.4,5.4-2.5,8.8-2.6h.1-.1c4.5.4,9,1,14.1,1.5.9.1,2,.2,2.5.9.4.6.1,1.7,0,2.5-4.2,18-16.1,33.5-31.3,43.4-2.9,2-4.2,2.5-5.9-1.1-2.1-3.9-4.2-7.8-6.5-11.6-1.1-1.7-1.9-3.8-.6-5.6h0ZM260.9,421.7c9.8-4.3,20.9,3,20.8,13.8h0c0,8.3-6.8,15-14.9,14.9-16.3-.2-20.7-22-5.9-28.6ZM224.7,433.1c.7-3.8,3.9-6.1,7.8-5.8h.1c4.1.4,7.7,2.2,11,4.4,2.9,1.9,5.8,3.9,6.8,7.5,1.8,8.1,8.3,12.9,16.5,13.2,4.8.2,9.2-2.2,12.8-5.8,1.9-2.1,2.8-1.5,4.5.4,1.6,1.7,3.2,3.5,4.8,5.4.9.9,1.5,2.2.5,3.4-6.2,7.5-12.6,14.8-18.9,22.2-1.4,1.8-3.5,2.7-5.7,2.9-8.6.9-17.2,1.6-25.8,2.5-1.6.2-3.7.9-5.2.3-1.5-.7-2-3.1-2.5-4.6-3.4-11.8-7.2-23.5-7.6-35.9,0-3.3.2-6.6.9-9.9h0ZM196.9,537.4c-6.1-2.8-13.6-5.4-15.7-12.4h0c0-2.2.9-4.6,1.9-6.1,1.9-2.6,5.1-4,7.8-5.8,9.4-6.1,19.6-10.9,30.7-12.9,3.2-.7,4.9-.5,6.2,2.9,3,6.5,6.1,13.1,9,19.6.8,1.5.8,3.3,0,4.8-2.7,5.3-5.5,10.5-8.2,15.9-.5.9-1.1,2-1.9,2.5-1.3.8-3.1.2-4.5-.1-8.6-2.1-17.1-4.9-25.2-8.4h-.1,0ZM248.6,607.6c-6.3,4.6-13.2,9.1-21.2,9.7-4.6.3-6.6-2.3-7.4-6.6-.4-2.2-.4-4.5-.2-6.8,3.2-21.6,11.6-41.9,22.3-60.9,1.6-2.9,3.2-3.3,5.2-.4,4.7,7.4,9.2,15,13.9,22.5,2.2,3.6,4.4,7.1,6.8,10.5.9,1.3,1.9,2.6,2.8,3.9.2.3.2.6.2.8h0c-.1.2-.4.3-.8.3-1.2.1-2.6,0-3.8.2-5.1.2-10.2,2.8-13,6.8-3,4-4.1,9.2-2.7,14.5.9,2.8.4,4.1-2,5.8h0ZM281.7,597.5h0c0,7.8-6.1,14.3-13.8,14.8-6,.4-11.6-2.8-14.3-7.9-5.5-10.1,2.8-22.9,14.4-21.9,7.8.4,14,7.3,13.8,15.1ZM340.6,614.9c-.5,3.7-4.4,5.1-7.9,4.8h-.2c-2-.4-3.7-1.3-5.7-2-1.3-.5-1.6-1.4,0-1.7,4.3-.8,8.6-1.9,12.9-2.6.8,0,1.1.8.9,1.5h0ZM434.1,547.4c-19.5,21.9-44.9,37.7-72.4,47.4-15.3,6-31.4,9-47.7,10.2-4.1.2-7.6-2.1-10.3-5.1-8.2-9.8-16.1-19.7-24.1-29.6-.8-1.1-.9-2.1.4-2.9,23-13,40.3-35.1,45.3-61.3.7-4.2,1.1-5.1,5.5-3.6,5.1,1.5,10.2,2.9,15.3,4.4,1.2.3,2.4,1,2.3,2.4-.6,4.6-1.6,9.3-2.4,13.9,0,1-1.2,3.7-.1,4.3,1.5,0,3.5-7,4-8.5.8-2.4,1.5-4.9,2.2-7.3.3-1,.8-2.1,2-2,3,.3,4,1.5,3.4,4.5-.6,4.5-1.5,9-2.2,13.5,0,.8-.4,2.2.2,2.7.9,0,1.3-1.5,1.6-2.2,1.3-3.6,2.5-7.2,3.7-10.9.8-1.8.6-4.7,3.4-4.1,3.1.5,2.8,2.9,2.4,5.3-.6,4.6-1.5,9.1-2.2,13.7,0,.6-.6,4.1.6,2.8.6-.6,1.2-1.7,1.5-2.6,1.5-4.2,2.8-8.5,4.2-12.8.4-1.1.4-2.8,1.9-2.9h.6c1,.2,2.3.5,2.9,1.3.6.9.5,2.2.4,3.3-.6,4.2-1.2,8.4-1.9,12.6,0,1.1-1.8,5.8-.4,6,.9-.4,1.3-1.8,1.7-2.7,1.9-5.2,3.7-10.4,5.2-15.6.9-2.1,4.6-.4,4.6,1.5.1.8,0,1.6,0,2.4-.5,4.4-1.1,8.8-1.8,13.1-.2,2.1-.9,4.2-1,6.2.1.9.7.7,1.1,0,2.8-5.6,4.4-11.6,6.2-17.6.2-.7.5-1.6,1.2-1.9,1.3-.8,3.4.3,3.5,1.9.1.8,0,1.7-.1,2.5-.9,5.3-1.7,10.6-2.5,15.8,0,.8-.4,1.7-.2,2.5.2.8.7.8,1.1.1,1.7-4.1,3-8.3,4.5-12.5.6-1.9.9-3.9,1.9-5.6.6-1.4,1.9-1.5,3.2-.6,1.1.6,1.4,1.9,1.3,3-.2,5.9-1.9,11.6-2.8,17.5,0,.7-.5,2.8.4,2.8h.1c.4-.1.7-.8.9-1.2.6-1.2,1.2-2.5,1.6-3.8,1.4-3.8,2.4-7.7,3.6-11.5.3-.8.6-1.8,1.1-2.4.9-1.2,2.6-.4,3.4.6.5.8.5,1.9.4,2.8-.5,4.9-1.6,9.8-2.4,14.7,0,.9-.4,2.4.3,3,.8.2,1.2-1.4,1.5-2,1.6-4.8,3.2-9.6,4.8-14.4.5-1.3.8-1.7,2-1.1,1.3.6,2.7,1.5,4.1,2.1,3.2,1.6,6.5,3.4,9.7,5.1,1.4.7,2.8,1.6,1.2,3.2h0ZM435.2,542.8h0c-.4,0-.9-.2-1.2-.5-4.4-2.9-8.9-5.8-13.2-8.9-1.6-1-2.5-2.6-2.9-4.4-1.5-5.4-2.6-10.8-4.1-16.2-.2-.6-.5-1.6-1-2-.9-.4-.6,2.1-.6,2.6.2,4.2.9,8.3,1.2,12.5,0,1.4-.3,2.2-1.8,1.5-2.2-.8-3.1-2.9-3.4-5.1-.9-4.1-1.9-8.1-2.9-12.1-.4-2.2-2.3-4.2-2.1-.6.4,3.5.9,7.1,1.2,10.5,0,.8.2,1.9-.6,2.2-.3.1-.7,0-1.1-.2-2.3-.9-3.4-3.1-3.7-5.4-.8-3.8-1.6-7.5-2.7-11.2-.8-2.1-1.9-3.5-1.9-.2s.4,3.9.6,5.9c.2,1.8.5,3.8.1,5.6,0,.3-.2.5-.4.6-.2.1-.6,0-1-.3-1.6-1-3.4-2.5-3.8-4.5-1.2-4-1.9-8.3-3.4-12.2-.9-1.7-1.5.3-1.4,1.3.2,3.4.9,6.6,1.2,9.9-.2,2.2-3.8-.1-4.4-.9-.8-.9-1.2-2.3-1.4-3.5-.7-3.4-1.6-6.6-2.6-9.9-.2-.7-.5-1.6-.9-2.2-2.4-2.5.4,10.6.1,11.5.1,1.5-.3,2-1.9,1.4-2.6-.7-3.9-2.6-4.4-5.2-.8-3.6-1.8-7.1-2.8-10.7-.7-2.7-2-2.6-1.8.3.3,2.8.6,5.6,1,8.5.2,1.6.7,4.1-1.8,3-2.4-.9-3.4-3.1-3.8-5.4-.7-3.5-1.7-6.9-2.6-10.2-.2-.6-.9-2.9-1.7-1.6-.2.6-.2,1.5-.1,2.2.3,3.1.8,6.1.9,9.3,0,1.4-.4,2.8-2.1,1.9-1.6-.7-3-2-3.4-3.7-.9-3.4-1.6-7-2.5-10.4-.3-1.2-.7-2.5-1.4-3.4-1.2-1.5-1.1,1.6-.9,2.3.4,2.9.8,5.8,1.1,8.8.2,2.1.6,3.8-1.9,2.9-5.5-1.9-11-3.8-16.6-5.6-.6-.2-1.4-.5-1.8-1-.8-.8-.6-2.2-.5-3.3,1.2-13.5-1.4-25.9-10.1-36.7-2.6-3.1-.1-4.2,3.1-3.4,13.3,2.8,26.6,6.5,38.9,12.5,5.6,2.9,10.9,6.5,15.9,10.3,7.9,6.1,15.7,12.4,22.9,19.3,7.6,8.1,15.1,16.4,21.6,25.3,5.8,8.4,10.4,17.6,14.8,26.8.2.4.6,1.5.3,1.5h0Z"/>
          </g>
        </g>
      </g>
    </g>
  </g>
</svg>