<?xml version="1.0" encoding="UTF-8"?>
<svg xmlns="http://www.w3.org/2000/svg" version="1.1" viewBox="0 0 1920 1080">
  <defs>
    <style>
      .cls-1 {
        fill: #ec008c;
      }

      .cls-2 {
        fill: #00aeef;
      }

      .cls-3 {
        fill: #fff;
      }
    </style>
  </defs>
  <!-- Generator: Adobe Illustrator 28.7.1, SVG Export Plug-In . SVG Version: 1.2.0 Build 142)  -->
  <g>
    <g id="Layer_1">
      <g>
        <g>
          <path d="M1148.4,564.8c.4-1,.6-1.7,1.1-2-.4.4-.6,1-1,1.9-2.8,8.2-5.4,16.4-8.2,24.5-.3.8-.8,2.2-1.5,2.9.6-.8,1-2.1,1.4-2.8,2.8-8.1,5.4-16.3,8.2-24.5Z"/>
          <path d="M1142.7,521.7c-.3-1.1-.8-2.8-1.7-3.4,0,0-.2,0-.3,0,.1,0,.2,0,.4,0,.9.6,1.4,2.3,1.7,3.4,2.4,9.1,4.4,18.4,6.9,27.5.7,3,2.2,5.7,4.9,7.4,7.3,5.2,14.9,10.1,22.4,15.1s1.5.8,2.1.8h0-.1c-.6.1-1.5-.4-2.1-.8-7.5-5-15.1-9.9-22.4-15.1-2.7-1.7-4.2-4.4-4.9-7.4-2.5-9.1-4.5-18.4-6.9-27.5Z"/>
          <path d="M1133.1,538c.6,3.6,2.1,7.3,5.8,8.6.9.4,1.6.5,2,.4-.5.2-1.2,0-2.1-.4-3.7-1.3-5.2-5-5.8-8.6-1.5-6.9-3.3-13.7-5-20.5-.4-2.2-1.7-4.3-2.6-4.4.9,0,2.3,2.1,2.7,4.4,1.7,6.8,3.5,13.6,5,20.5Z"/>
          <path d="M1124.1,586.6c-.3.5-.6,1.1-1,1.6.4-.5.7-1.1.9-1.5,1-2.1,2-4.2,2.8-6.4,2.3-6.4,4-13.1,6.1-19.6.5-1.3,1.1-3,1.9-4,0-.1.2-.2.3-.3,0,0-.1.1-.2.2-.8,1-1.4,2.7-1.9,4-2.1,6.5-3.8,13.2-6.1,19.6-.8,2.2-1.8,4.3-2.8,6.4Z"/>
          <path d="M1117.2,528.7c-1.3-6.4-2.8-12.7-4.6-19-.8-2-1.7-3.6-2.4-3.7.7-.1,1.7,1.6,2.5,3.7,1.8,6.3,3.3,12.6,4.6,19,.5,3.9,2.4,7.7,6.3,9.2.5.2,1,.4,1.4.4-.4,0-1-.2-1.5-.4-3.9-1.5-5.8-5.3-6.3-9.2Z"/>
          <path class="cls-3" d="M1108.2,529.7c-2.7-1.7-5.8-4.3-6.5-7.6-2-6.8-3.2-14.1-5.8-20.7-.5-.9-.9-1.2-1.2-1.1-.9,0-1.3,2.1-1.3,3.3.3,5.7,1.6,11.3,2,16.9,0,1.1-.7,1.6-1.5,1.6-2,0-5.1-2.2-5.8-3.2-1.4-1.6-2-3.9-2.4-5.9-1.2-5.8-2.8-11.3-4.4-16.9-.4-1.2-.8-2.7-1.6-3.7-.4-.4-.7-.6-.9-.5-2.5-.2,1.4,18.6,1,20.1.1,1.9-.2,2.8-1.3,2.8-.5,0-1-.2-1.8-.4-4.5-1.2-6.7-4.4-7.4-8.8-1.4-6.1-3.1-12.1-4.8-18.2-.6-2.3-1.4-3.4-2.1-3.3-.7,0-1.2,1.2-1,3.8.5,4.8,1.1,9.6,1.7,14.4.3,2.2.9,5.3-1.1,5.6,0,0-.1,0-.2,0-.5,0-1.1-.2-1.8-.5-4-1.5-5.8-5.3-6.4-9.2-1.2-5.9-2.9-11.7-4.5-17.4-.2-.9-1.1-3.6-2.1-3.4-.3,0-.6.2-.9.6-.4,1.1-.2,2.6-.2,3.8.5,5.2,1.5,10.4,1.5,15.8s-.4,3.7-1.9,3.8c-.4,0-.9-.2-1.5-.5-2.7-1.2-5.1-3.4-5.8-6.3-1.5-5.8-2.8-11.9-4.3-17.7-.5-2-1.2-4.2-2.4-5.8-.4-.5-.8-.7-1-.7-1.1-.1-.9,3.6-.7,4.6.6,5,1.3,9.9,1.8,15,.2,2.8.7,5.1-1.1,5.3-.1,0-.3,0-.5,0-.4,0-.9-.2-1.5-.4-9.4-3.3-18.7-6.5-28.2-9.5-1.1-.4-2.3-.8-3.1-1.7-1.3-1.3-1-3.8-.9-5.6,2.1-22.9-2.3-44-17.1-62.4-3.3-4-1.7-6.1,1.6-6.2.3,0,.7,0,1.1,0,.8,0,1.6.2,2.5.4,22.6,4.8,45.2,11,66.1,21.2,9.6,4.9,18.6,11,27.1,17.5,13.4,10.4,26.7,21.1,39,32.8,12.9,13.7,25.6,27.9,36.7,43,9.9,14.3,17.7,29.9,25.2,45.5h-.1c.4.5.8,1.5.8,2.2s0,.3-.1.4h0c-.6,0-1.5-.4-2.1-.8-7.5-5-15.1-9.9-22.4-15.1-2.7-1.7-4.2-4.4-4.9-7.4-2.5-9.1-4.5-18.4-6.9-27.5-.3-1.1-.8-2.8-1.7-3.4-.1,0-.2,0-.4,0-1.3,0-.8,3.6-.8,4.6.4,7.1,1.6,14.2,2,21.3,0,1.4-.1,2.4-.7,2.8,0,0-.1,0-.2.1-.5.1-1.1,0-2-.4-3.7-1.3-5.2-5-5.8-8.6-1.5-6.9-3.3-13.7-5-20.5-.4-2.3-1.8-4.5-2.7-4.4-.6,0-1.1.9-1,3.4.7,6,1.5,12,2.1,17.9,0,1.3.3,3.3-1.1,3.8-.1,0-.3,0-.4,0-.4,0-.9-.2-1.4-.4-3.9-1.5-5.8-5.3-6.3-9.2-1.3-6.4-2.8-12.7-4.6-19-.8-2.1-1.8-3.8-2.5-3.7-.5,0-.9.9-.9,3.4s.1,2.8.2,4.1c0,.1,0,.2,0,.3,0,.5.1,1,.2,1.4v.2c.2,1.3.4,2.7.5,4,.4,3.1.9,6.4.2,9.6-.1.5-.4.9-.7,1.1,0,0-.2,0-.3,0-.4,0-.8-.2-1.3-.6Z"/>
          <path d="M1109.6,513.9c0,.5.1.9.2,1.4,0-.4-.1-.9-.2-1.4Z"/>
          <path d="M1107.8,581c-.1.2-.2.3-.4.5,0-.1.2-.2.3-.4,2.9-6.9,5.1-14.2,7.6-21.3,1.1-3.2,1.6-6.6,3.2-9.6.2-.4.4-.7.6-1-.2.3-.4.6-.5.9-1.6,3-2.1,6.4-3.2,9.6-2.5,7.1-4.7,14.4-7.6,21.3Z"/>
          <path d="M1101.6,522.1c-2-6.8-3.2-14.1-5.8-20.7-.4-.8-.8-1.1-1.1-1.1.3,0,.8.3,1.2,1.1,2.6,6.6,3.8,13.9,5.8,20.7.7,3.3,3.8,5.9,6.5,7.6.5.4.9.6,1.3.6-.4,0-.9-.2-1.4-.6-2.7-1.7-5.8-4.3-6.5-7.6Z"/>
          <path d="M1102.7,545.4c-3,10.2-5.7,20.5-10.5,30-.3.6-.7,1-1,1,.3,0,.7-.4.9-.9,4.8-9.5,7.5-19.8,10.5-30,.3-1,.7-2.2,1.5-2.9-.7.7-1.1,1.9-1.4,2.8Z"/>
          <path d="M1079.7,492.4c.8,1,1.2,2.5,1.6,3.7,1.6,5.6,3.2,11.1,4.4,16.9.4,2,1,4.3,2.4,5.9.7,1,3.8,3.2,5.8,3.2-2,0-5.2-2.2-5.9-3.2-1.4-1.6-2-3.9-2.4-5.9-1.2-5.8-2.8-11.3-4.4-16.9-.4-1.2-.8-2.7-1.6-3.7-.3-.3-.6-.5-.8-.5.2,0,.5.1.9.5Z"/>
          <path d="M1078.5,562.5c-.5,1.2-1,3-2,4,.9-1,1.4-2.7,1.9-3.9,3.2-8.8,6.3-17.7,8.8-26.6.1-.3.3-.6.5-.8-.2.2-.3.4-.4.7-2.5,8.9-5.6,17.8-8.8,26.6Z"/>
          <path class="cls-3" d="M1039.3,516.9c.5-.5,1.1-.7,1.9-.6,5.1.5,6.8,2.5,5.8,7.6-1.1,7.7-2.5,15.3-3.7,22.9,0,1.3-.7,3.8.4,4.6.4,0,.8-.2,1.1-.5,0,0,0,0,.1-.1.8-.8,1.3-2.4,1.7-3.3,2.2-6.1,4.3-12.3,6.3-18.5.8-2,1-4.8,2.4-6.2,0,0,0,0,.1,0,.7-.6,1.7-.9,3.2-.6,5.2.8,4.7,5,4.1,9-1.1,7.8-2.6,15.5-3.8,23.3,0,1-1,6.7,1,4.8,0,0,.1,0,.1-.1s0,0,.1-.1c1-1.1,2-2.9,2.5-4.5,2.5-7.2,4.7-14.5,7.1-21.8.5-1.3.6-3.3,1.7-4.3.4-.3.8-.5,1.4-.6h1c1.7.4,3.9.8,4.9,2.2,1.1,1.6.8,3.8.6,5.6-1,7.2-2,14.3-3.2,21.4,0,1.8-3,9.9-.6,10.2.3-.1.6-.3.9-.6,0,0,.1-.1.2-.2.9-1,1.4-2.7,2-4,3.2-8.8,6.3-17.7,8.8-26.6.1-.3.3-.5.4-.7,0,0,.1-.1.2-.2,2.2-1.8,7.2.8,7.2,3.6.3,1.3,0,2.7,0,4-.9,7.4-1.9,14.9-3.1,22.3-.4,3.5-1.7,7.1-1.7,10.6.1.8.4,1,.8.9,0,0,0,0,0,0,.4,0,.7-.4,1-1,4.8-9.5,7.5-19.8,10.5-30,.3-1,.7-2.1,1.4-2.8,0,0,0,0,.1,0,.1-.1.2-.2.4-.3,2.2-1.3,5.8.5,6,3.3.2,1.4,0,2.9-.2,4.2-1.5,9-2.9,18-4.3,26.9-.1,1.4-.6,2.9-.3,4.3.3,1.2,1,1.3,1.6.6,0,0,0,0,0,0,.1-.1.2-.3.4-.5,2.9-6.9,5.1-14.2,7.6-21.3,1.1-3.2,1.6-6.6,3.2-9.6.2-.4.3-.6.5-.9,0-.1.2-.2.3-.3,1.2-1.1,2.9-1,4.6.2,1.8,1,2.3,3.2,2.2,5.1-.3,10.1-3.2,19.8-4.7,29.7,0,1.2-.9,4.9.7,4.9h.2c.2-.1.5-.3.7-.6.4-.4.8-1.1,1-1.6,1-2.1,2-4.2,2.8-6.4,2.3-6.4,4-13.1,6.1-19.6.5-1.3,1.1-3,1.9-4,0,0,.1-.1.2-.2,1.6-1.6,4.2-.3,5.4,1.4.8,1.3.9,3.2.7,4.8-.9,8.4-2.8,16.7-4.1,25-.1,1.5-.7,4,.5,5.1.4,0,.8-.1,1.1-.5,0,0,0,0,.1-.1.7-.8,1.1-2.2,1.5-2.9,2.8-8.1,5.4-16.3,8.2-24.5.3-.9.6-1.5,1-1.9,0,0,0,0,0,0,.5-.5,1.2-.4,2.3.1,2.2,1.1,4.6,2.5,6.9,3.5,5.5,2.8,11,5.7,16.5,8.6h-.1c2.3,1.3,4.7,2.8,2.1,5.5-1,1.2-2.1,2.3-3.1,3.5-5.2,5.7-10.7,11.1-16.4,16.3-29.8,27.1-65.5,47.4-103.4,60.9-26,10.2-53.4,15.3-81.2,17.3-7,.3-13-3.6-17.5-8.7-13.9-16.6-27.4-33.5-41-50.3-1.1-1.5-1.5-2.9-.4-4.1,0,0,.1-.1.2-.2.2-.2.5-.4.8-.6,10.4-5.9,20.2-12.9,29-20.8,4.1-3.7,8-7.6,11.7-11.6,18.2-20.1,31.2-44.7,36.5-71.8.5-3.1,1-5.2,1.9-6.3,0,0,.1-.1.2-.2,1.2-1,3.3-.8,7.1.5,8.7,2.6,17.3,5,26.1,7.4,2,.5,4.1,1.7,3.9,4.1-1,7.9-2.7,15.8-4,23.6-.2,1.7-2,6.3-.2,7.3.4,0,.7-.2,1.1-.6,0,0,.1-.1.2-.2,2.4-2.6,4.9-11.6,5.6-13.8,1.3-4.1,2.5-8.3,3.7-12.4.3-.9.6-1.9,1.2-2.6h.1Z"/>
          <path d="M1069.3,505.6c.7,4.4,2.9,7.6,7.4,8.8.7.3,1.3.4,1.8.4-.5,0-1.1-.1-1.9-.4-4.5-1.2-6.7-4.4-7.4-8.8-1.4-6.1-3.1-12.1-4.8-18.2-.6-2.2-1.4-3.3-2-3.3.6,0,1.5,1.1,2.1,3.3,1.7,6.1,3.4,12.1,4.8,18.2Z"/>
          <path d="M1062.6,554.5c-.5,1.6-1.5,3.4-2.5,4.5,0,0,0,0-.1.1,1-1.1,2-2.9,2.5-4.5,2.5-7.2,4.7-14.5,7.1-21.8.5-1.4.7-3.4,1.8-4.4-1,1-1.2,3-1.7,4.3-2.4,7.3-4.6,14.6-7.1,21.8Z"/>
          <path d="M1047.1,477.4c1-.1,1.9,2.6,2.1,3.4,1.6,5.7,3.3,11.5,4.5,17.4.6,3.9,2.4,7.7,6.4,9.2.7.3,1.3.5,1.8.5-.5,0-1.1-.1-1.9-.5-4-1.5-5.8-5.3-6.4-9.2-1.2-5.9-2.9-11.7-4.5-17.4-.2-.9-1.1-3.4-2-3.4Z"/>
          <path d="M1046.5,547.6c2.2-6.1,4.3-12.3,6.3-18.5.9-2.1,1-4.9,2.5-6.3-1.3,1.4-1.5,4.2-2.4,6.2-2,6.2-4.1,12.4-6.3,18.5-.4.9-.9,2.4-1.7,3.3.7-.9,1.2-2.3,1.6-3.2Z"/>
          <path d="M1191.3,582.7c.2.2.4.4.5.6v.5l-.4-.2c-.8,0-1.6-.4-2.3-.8-2-1-4.2-1.9-5.5-1-2.4,2.1-3.2,6-5.1,8.5-29.8,47.3-82.5,74.6-133.5,93.5-3.5,1-5.1,3.4-5.1,6.9-.8,9.5-3,18.8-9.8,26-16.6,16.7-43.2,6.5-59.4-5.4-3.9-2.7-7.5-5.7-11.2-8.7-3.8-3-7.4-6.7-12.2-8.2-5.8-1.9-11.7-3.7-17.5-5.5-4.4-1.2-8.7-3-13.2-3.7-2.3-.2-4.3,1.5-6,2.8-6.3,4.8-13.3,6.8-21.2,6-2.2-.2-4.4-.5-6.4.5s-2.3,1.4-3.3,2.2c-6.4,5.5-13.2,10.4-20.4,14.5-6.6,3.7-13.6,7.2-21,9.3-11.6,3.2-25.6,1.5-34.6-6.9-6.4-6-9-15-10-23.6-3.5-29.1,8.3-56.5,18.1-83.3,1-2.6,2.3-5.8-1.2-6.9-20.9-6.2-41.8-12-60.8-23-11-6.1-19.8-15.8-21.8-28.7-2.7-12.7,1.5-25.5,10.2-35,17.7-19.7,43.7-27.4,68.5-33.7,7.9-2,8.6-2.7,6.3-10.5-8.9-28.3-17.8-57.7-11.6-87.5,1.6-5.7,2.8-11.7,7-16.2,6.1-7,17.7-11.6,25.8-10.9,11.6,1.8,22.4,6.6,32.2,12.8,2.3,1.6,4.8,3,7.4,1.1,14.9-12.3,36.7-8.3,45.1,9.6,1,2,2.1,4.2,4.2,4.9,1.5.6,3.3.7,4.9.9,13.2,1.2,26.4,3,39.6,4.4,3.3.3,6.3-.9,8.9-2.8,10.1-7.1,20.7-13.2,32.7-16.7,12.4-4.1,26.8-2.3,35.2,8.3,6.6,8.1,7.1,19,9.7,28.8.7,2.9,2.5,5.4,4.9,7.2,8,6,16.1,11.8,24.2,17.8,28.9,20.5,54.1,45.7,74.3,74.9,8,11.5,14.9,23.7,19.6,36.9,4.1,10.7,5.1,22.2,8.3,33.1,1,2.9,3.7,5.1,5.9,7.2ZM1034.1,532.1c-.8,2.2-3.2,11-5.5,13.7,0,0-.1.1-.2.2-.3.3-.7.5-1,.5-1.8-1,.2-5.6.2-7.3,1.3-7.8,3-15.7,4-23.6.2-2.4-1.9-3.6-3.9-4.1-8.8-2.4-17.4-4.8-26.1-7.4-3.9-1.3-6-1.5-7.2-.4,0,0-.1.1-.2.2-1,1.1-1.5,3.1-2,6.4-5.2,27.1-18.2,51.7-36.4,71.7-3.7,4.1-7.6,8-11.7,11.6-8.8,7.9-18.5,14.9-28.9,20.7-.3.2-.6.4-.9.7,0,0-.1.1-.2.2-1.2,1.2-.9,2.6.3,4.2,13.6,16.8,27.1,33.7,41,50.3,4.5,5.1,10.5,9,17.5,8.7,27.8-2,55.2-7.1,81.2-17.3,38-13.4,73.7-33.8,103.5-61,5.7-5.2,11.2-10.6,16.4-16.3,1.1-1.2,2.2-2.4,3.2-3.6h.1c2.6-2.8.2-4.3-2.1-5.5-5.5-2.9-11-5.8-16.5-8.6-2.3-1-4.7-2.4-6.9-3.5-1.2-.6-1.9-.6-2.4,0,0,0,0,0,0,0-.4.3-.7,1-1.1,2-2.8,8.2-5.4,16.4-8.2,24.5-.3.7-.7,2.1-1.4,2.8,0,0,0,0-.1.1-.3.3-.6.4-1,.4-1.2-1.1-.5-3.6-.5-5.1,1.3-8.3,3.2-16.6,4.1-25,.2-1.6.1-3.5-.7-4.8-1.2-1.7-3.9-3-5.5-1.3,0,0-.2.2-.3.3-.8,1-1.4,2.7-1.9,4-2.1,6.5-3.8,13.2-6.1,19.6-.8,2.2-1.8,4.3-2.8,6.4-.2.4-.6,1-.9,1.5-.2.2-.4.4-.6.4h-.2c-1.6,0-.7-3.6-.7-4.8,1.5-9.9,4.4-19.6,4.7-29.7.1-1.9-.4-4.1-2.2-5.1-1.8-1.2-3.5-1.3-4.7,0-.1,0-.2.2-.3.3-.3.3-.5.6-.6,1-1.6,3-2.1,6.4-3.2,9.6-2.5,7.1-4.7,14.4-7.6,21.3,0,.1-.2.3-.3.4,0,0,0,0,0,0-.6.6-1.3.4-1.5-.7-.3-1.4.3-2.9.3-4.3,1.4-8.9,2.8-17.9,4.3-26.9.2-1.3.4-2.8.2-4.2-.2-2.8-3.8-4.6-6-3.3-.2.1-.3.2-.5.4,0,0,0,0-.1,0-.8.7-1.2,1.9-1.5,2.9-3,10.2-5.7,20.5-10.5,30-.3.5-.6.8-.9.9,0,0,0,0,0,0-.3,0-.6-.3-.7-1,.1-3.5,1.3-7.1,1.7-10.6,1.2-7.4,2.2-14.9,3.1-22.3,0-1.3.2-2.7,0-4,0-2.8-5.1-5.5-7.3-3.5,0,0-.1.1-.2.2-.2.2-.4.5-.5.8-2.5,8.9-5.6,17.8-8.8,26.6-.5,1.2-1,2.9-1.9,3.9,0,0-.1.1-.2.2-.2.2-.5.4-.8.5-2.4-.3.6-8.4.6-10.2,1.2-7.1,2.2-14.2,3.2-21.4.2-1.8.5-4-.6-5.6-1-1.4-3.2-1.8-4.9-2.2h-1c-.7,0-1.1.3-1.5.7-1.1,1-1.2,3.1-1.8,4.4-2.4,7.3-4.6,14.6-7.1,21.8-.5,1.6-1.5,3.4-2.5,4.5,0,0-.1,0-.1.1-1.9,1.6-.9-4-.9-4.9,1.2-7.8,2.7-15.5,3.8-23.3.6-4,1.1-8.2-4.1-9-1.6-.3-2.6,0-3.4.7,0,0,0,0-.1,0-1.4,1.4-1.6,4.2-2.5,6.3-2,6.2-4.1,12.4-6.3,18.5-.4.8-.9,2.3-1.6,3.2,0,0,0,.1-.1.1-.3.2-.6.4-1,.4-1.1-.8-.4-3.3-.4-4.6,1.2-7.6,2.6-15.2,3.7-22.9,1-5.1-.7-7.1-5.8-7.6-.9,0-1.5.2-2,.7h-.1c-.7.8-1.1,1.8-1.4,2.8-1.2,4.1-2.4,8.3-3.7,12.4ZM1031.5,471.1c1.2,1.6,1.9,3.8,2.4,5.8,1.5,5.8,2.8,11.9,4.3,17.7.7,2.9,3.1,5.1,5.8,6.3.6.3,1.2.5,1.6.5,1.6,0,2-1.9,2-3.8-.1-5.4-1-10.6-1.5-15.8-.1-1.2-.2-2.7.2-3.8.3-.4.5-.6.8-.6,1,0,1.8,2.6,2,3.4,1.6,5.7,3.3,11.5,4.5,17.4.6,3.9,2.4,7.7,6.4,9.2.8.3,1.4.5,1.9.5,0,0,.1,0,.2,0,2.1-.1,1.5-3.3,1.2-5.6-.6-4.8-1.2-9.6-1.7-14.4-.2-2.5.3-3.8.9-3.8.6,0,1.4,1.2,2,3.3,1.7,6.1,3.4,12.1,4.8,18.2.7,4.4,2.9,7.6,7.4,8.8.8.3,1.4.4,1.9.4,1.2,0,1.6-.9,1.4-2.8.4-1.4-3.4-19.8-1.1-20.1.2,0,.5.2.8.5.8,1,1.2,2.5,1.6,3.7,1.6,5.6,3.2,11.1,4.4,16.9.4,2,1,4.3,2.4,5.9.7,1,3.9,3.2,5.9,3.2.9,0,1.5-.4,1.6-1.6-.4-5.6-1.7-11.2-2-16.9,0-1.2.4-3.2,1.2-3.3.3,0,.7.3,1.1,1.1,2.6,6.6,3.8,13.9,5.8,20.7.7,3.3,3.8,5.9,6.5,7.6.5.4,1,.6,1.4.6.1,0,.3,0,.4,0,.3-.2.7-.6.7-1.1.7-3.2.2-6.5-.2-9.6-.2-1.6-.4-2.7-.6-4v-.2c0-.5-.1-.9-.2-1.4,0-.1,0-.2,0-.3,0-1.1-.1-2.4-.1-4.1s.3-3.3.8-3.4c.7,0,1.6,1.7,2.4,3.7,1.8,6.3,3.3,12.6,4.6,19,.5,3.9,2.4,7.7,6.3,9.2.5.2,1,.4,1.5.4.2,0,.4,0,.5,0,1.4-.5,1.1-2.5,1.1-3.8-.6-5.9-1.4-11.9-2.1-17.9-.1-2.4.3-3.3.9-3.4.9,0,2.2,2.1,2.6,4.4,1.7,6.8,3.5,13.6,5,20.5.6,3.6,2.1,7.3,5.8,8.6,1,.4,1.7.6,2.1.4,0,0,.2,0,.2-.1.7-.4.8-1.4.8-2.8-.4-7.1-1.6-14.2-2-21.3,0-.9-.4-4.4.7-4.6,0,0,.2,0,.3,0,.9.6,1.4,2.3,1.7,3.4,2.4,9.1,4.4,18.4,6.9,27.5.7,3,2.2,5.7,4.9,7.4,7.3,5.2,14.9,10.1,22.4,15.1s1.5.9,2.1.9h.1c0-.1,0-.1,0-.1.6-.1-.1-1.9-.5-2.6-7.5-15.6-15.3-31.2-25.2-45.5-11.1-15.1-23.8-29.3-36.7-43-12.3-11.7-25.6-22.4-39-32.8-8.5-6.5-17.5-12.6-27.1-17.5-20.9-10.2-43.5-16.4-66.1-21.2-.9-.2-1.8-.4-2.6-.4-.4,0-.7,0-1.1,0-3.4.1-5.1,2.2-1.7,6.2,14.8,18.4,19.2,39.5,17.1,62.4,0,1.8-.4,4.3.9,5.6.8.9,2,1.3,3.1,1.7,9.5,3,18.8,6.2,28.2,9.5.6.2,1.2.3,1.6.4.2,0,.4,0,.5,0,1.9,0,1.4-2.4,1.2-5.3-.5-5.1-1.2-10-1.8-15-.2-.9-.4-4.5.6-4.6.2,0,.5.2.9.7ZM870.2,677.2c4.7,8.8,14.2,14.2,24.4,13.5,13.1-.8,23.5-11.8,23.5-24.9v-.2c.4-13.1-10.2-25-23.4-25.6-19.8-1.8-33.9,20.1-24.5,37.2ZM892.7,415.3c13.9.2,25.4-11.2,25.4-25.1v-.2c.2-18.3-18.7-30.7-35.4-23.4-25.2,11.2-17.8,48.3,10,48.7ZM1029.3,397c.9.3,2.4.6,2.4-.7-.3-2.4-2-4-4.1-5-2.2-1-4.8-1.4-6.9-1.4h-.2c-.9-.1-6.5.4-4.3,2,4.1,2.3,8.8,3.4,13.1,5.1ZM1018.2,695.2c.3-1.1-.1-2.5-1.5-2.5-7.3,1.2-14.6,3-21.9,4.4-2.8.6-2.2,2.1,0,2.9,3.4,1.2,6.3,2.7,9.7,3.4h.3c5.9.5,12.6-1.9,13.4-8.2ZM946.1,470.8c2.3,0,2.5-2.4,2.5-4.5-.9-6.1-2.3-12.2-3.5-18.2-.4-2.9-1.2-4.9-3.8-2-4.3,4.7-8.6,9.4-12.8,14.2-3.9,4.2-2.8,6.8,2.7,7.8,4.7.9,9.4,1.9,14.2,2.6.2,0,.5,0,.7,0ZM945.3,497.2c.2-1.3.7-3.1,0-4.2-.9-1.2-2.8-1.3-4.3-1.5-8.7-.9-16.4-2-24-2.6-5.8,0-11,.3-14.9,4.4-4.6,5.1-8.6,10.8-12.5,16.3-6.7,10-13.4,20-19.8,30.2-2.1,3.1-.8,6.7,1.1,9.6,3.9,6.5,7.5,13.1,11.1,19.8,2.9,6.1,5,5.3,10,1.9,26-17,46.1-43.3,53.3-73.9ZM931.1,424.3c1.7-2,.8-4.2-.8-5.8-2.7-3.1-5.3-6.2-8.1-9.1-3-3.2-4.4-4.1-7.7-.6-6,6.1-13.5,10.2-21.7,9.9-14-.5-25.1-8.7-28.1-22.4-1.7-6.1-6.5-9.6-11.5-12.8-5.6-3.7-11.8-6.9-18.7-7.3v-.2h-.2c-6.7-.4-12.1,3.4-13.3,9.9-1.2,5.5-1.7,11.2-1.6,16.8.7,21.1,7.2,41,12.9,61,.8,2.6,1.6,6.7,4.2,7.9,2.6,1.1,6.2-.2,8.9-.5,14.6-1.5,29.2-2.6,43.8-4.2,3.8-.3,7.4-1.8,9.7-4.9,10.8-12.5,21.6-25,32.2-37.7ZM899.7,636c.1-.3,0-.8-.3-1.3-1.5-2.2-3.2-4.4-4.7-6.6-4.1-5.7-7.7-11.7-11.5-17.8-7.9-12.7-15.6-25.6-23.6-38.2-3.4-4.9-6.1-4.2-8.8.7-18.2,32.3-32.5,66.8-38,103.6-.4,3.8-.4,7.7.3,11.5,1.3,7.4,4.8,11.8,12.6,11.3,13.6-1.1,25.3-8.6,36-16.5,4.1-2.8,4.9-5.1,3.4-9.8-2.4-8.9-.5-17.8,4.6-24.6,4.8-6.7,13.5-11.2,22.1-11.5,2.1-.3,4.5,0,6.5-.3.6,0,1.1-.2,1.3-.5h0ZM873,497.1c1.6-2.2,1.3-5-1.9-5.3h-.2c-6.5.9-13,1.5-19.6,2.1-1.6.2-3.8.5-4.8,2-.9,1.5,0,3.4.5,4.9,1.5,3.6,3,7,4.7,10.4,3.5,6.8,5.6,10.3,10.8,2.2,3.7-5.3,7.1-10.8,10.5-16.3ZM841.7,546.5c1.5-2.5,1.5-5.5.1-8.1-5-11.2-10.2-22.3-15.3-33.4-2.2-5.7-5.1-6.1-10.6-4.9-18.9,3.3-36.3,11.6-52.3,21.9-4.5,3.1-9.9,5.4-13.2,9.9-.9,1.2-1.7,2.9-2.3,4.6s-1,3.7-1,5.5v.2c3.5,11.9,16.4,16.4,26.7,21.1h.1c13.8,6,28.1,10.7,42.8,14.3,2.4.5,5.5,1.5,7.7.2,1.5-.9,2.5-2.7,3.3-4.3,4.6-9.1,9.4-18,14-27Z"/>
          <path d="M1034.1,532.1c1.3-4.1,2.5-8.3,3.7-12.4.3-1,.7-2,1.4-2.6-.6.7-1,1.6-1.2,2.6-1.2,4.1-2.4,8.3-3.7,12.4-.8,2.2-3.3,11.2-5.6,13.8,2.3-2.7,4.8-11.5,5.5-13.7Z"/>
          <path d="M1044,500.9c-2.7-1.2-5.1-3.4-5.8-6.3-1.5-5.8-2.8-11.9-4.3-17.7-.5-2-1.2-4.2-2.4-5.8-.4-.5-.7-.7-.9-.7.2,0,.6.2,1,.7,1.2,1.6,1.9,3.8,2.4,5.8,1.5,5.8,2.8,11.9,4.3,17.7.7,2.9,3.1,5.1,5.8,6.3.6.3,1.1.5,1.5.5-.4,0-1-.1-1.6-.5Z"/>
          <path d="M979.3,415.7c14.8,18.4,19.2,39.5,17.1,62.4-.1,1.8-.4,4.3.9,5.6.8.9,2,1.3,3.1,1.7,9.5,3,18.8,6.2,28.2,9.5.6.2,1.1.3,1.5.4-.4,0-1-.2-1.6-.4-9.4-3.3-18.7-6.5-28.2-9.5-1.1-.4-2.3-.8-3.1-1.7-1.3-1.3-.9-3.8-.9-5.6,2.1-22.9-2.3-44-17.1-62.4-3.4-4-1.7-6.1,1.7-6.2-3.4.1-5,2.2-1.6,6.2Z"/>
          <path d="M955.8,582c18.2-20.1,31.1-44.6,36.4-71.7.5-3.2,1-5.3,2-6.4-1,1.1-1.4,3.1-1.9,6.3-5.2,27.2-18.2,51.8-36.5,71.8Z"/>
          <path class="cls-2" d="M918.1,390.2c0,13.9-11.5,25.3-25.4,25.1-27.8-.4-35.2-37.5-10-48.7,16.7-7.3,35.6,5.1,35.4,23.4v.2Z"/>
          <path d="M955.4,669.8c-13.9-16.6-27.4-33.5-41-50.3-1.2-1.6-1.5-3-.3-4.2-1.1,1.2-.7,2.6.4,4.1,13.6,16.8,27.1,33.7,41,50.3,4.5,5.1,10.5,9,17.5,8.7,27.8-2,55.2-7.1,81.2-17.3,37.9-13.4,73.6-33.7,103.4-60.9-29.8,27.2-65.6,47.5-103.5,61-26,10.2-53.4,15.3-81.2,17.3-7,.3-13-3.6-17.5-8.7Z"/>
          <path class="cls-1" d="M894.7,640c13.2.6,23.8,12.5,23.4,25.6v.2c0,13.1-10.4,24.1-23.5,24.9-10.2.7-19.7-4.7-24.4-13.5-9.4-17.1,4.7-39,24.5-37.2Z"/>
        </g>
        <g id="LINE_WORK">
          <path d="M1191.8,583.3c0-.2-.3-.4-.5-.6-2.2-2.1-4.9-4.3-5.9-7.2-3.2-10.9-4.2-22.4-8.3-33.1-4.7-13.2-11.6-25.4-19.6-36.9-20.2-29.2-45.4-54.4-74.3-74.9-8.1-6-16.2-11.8-24.2-17.8-2.4-1.8-4.2-4.3-4.9-7.2-2.6-9.8-3.1-20.7-9.7-28.8-8.4-10.6-22.8-12.4-35.2-8.3-12,3.5-22.6,9.6-32.7,16.7-2.6,1.9-5.6,3.1-8.9,2.8-13.2-1.4-26.4-3.2-39.6-4.4-1.6-.2-3.4-.3-4.9-.9-2.1-.7-3.2-2.9-4.2-4.9-8.4-17.9-30.2-21.9-45.1-9.6-2.6,1.9-5.1.5-7.4-1.1-9.8-6.2-20.6-11-32.2-12.8-8.1-.7-19.7,3.9-25.8,10.9-4.2,4.5-5.4,10.5-7,16.2-6.2,29.8,2.7,59.2,11.6,87.5,2.3,7.8,1.6,8.5-6.3,10.5-24.8,6.3-50.8,14-68.5,33.7-8.7,9.5-12.9,22.3-10.2,35,2,12.9,10.8,22.6,21.8,28.7,19,11,39.9,16.8,60.8,23,3.5,1.1,2.2,4.3,1.2,6.9-9.8,26.8-21.6,54.2-18.1,83.3,1,8.6,3.6,17.6,10,23.6,9,8.4,23,10.1,34.6,6.9,7.4-2.1,14.4-5.6,21-9.3,7.2-4.1,14-9,20.4-14.5,1-.8,2.1-1.6,3.3-2.2,2-1,4.2-.7,6.4-.5,7.9.8,14.9-1.2,21.2-6,1.7-1.3,3.7-3,6-2.8,4.5.7,8.8,2.5,13.2,3.7,5.8,1.8,11.7,3.6,17.5,5.5,4.8,1.5,8.4,5.2,12.2,8.2,3.7,3,7.3,6,11.2,8.7,16.2,11.9,42.8,22.1,59.4,5.4,6.8-7.2,9-16.5,9.8-26,0-3.5,1.6-5.9,5.1-6.9,51-18.9,103.7-46.2,133.5-93.5,1.9-2.5,2.7-6.4,5.1-8.5,1.3-.9,3.5,0,5.5,1,.7.4,1.5.8,2.3.8l.4.2v-.5h0ZM1020.5,389.9h.2c4.3,0,10.3,1.5,11,6.4,0,1.3-1.5,1-2.4.7-4.3-1.7-9-2.8-13.1-5.1-2.2-1.6,3.4-2.1,4.3-2h0ZM945.1,448.1c1.2,6,2.6,12.1,3.5,18.2h0q0,.1,0,0h0c0,.1,0,0,0,0,0,2.2-.2,4.8-3.2,4.3-4.8-.7-9.5-1.7-14.2-2.6-5.5-1-6.6-3.6-2.7-7.8,4.2-4.8,8.5-9.5,12.8-14.2,2.6-2.9,3.4-.9,3.8,2h0ZM873,497.1c-3.4,5.5-6.8,11-10.5,16.3-5.2,8.1-7.3,4.6-10.8-2.2-1.7-3.4-3.2-6.8-4.7-10.4-.6-1.5-1.4-3.4-.5-4.9,1-1.5,3.2-1.8,4.8-2,6.6-.6,13.1-1.2,19.6-2.1h.2c3.2.3,3.5,3.1,1.9,5.3ZM869.8,539.8c6.4-10.2,13.1-20.2,19.8-30.2,3.9-5.5,7.9-11.2,12.5-16.3,3.9-4.1,9.1-4.3,14.9-4.4h.2-.2c7.6.6,15.3,1.7,24,2.6,1.5.2,3.4.3,4.3,1.5.7,1.1.2,2.9,0,4.2-7.2,30.6-27.3,56.9-53.3,73.9-5,3.4-7.1,4.2-10-1.9-3.6-6.7-7.2-13.3-11.1-19.8-1.9-2.9-3.2-6.5-1.1-9.6h0ZM882.7,366.6c16.7-7.3,35.6,5.1,35.4,23.4v.2c0,13.9-11.5,25.3-25.4,25.1-27.8-.4-35.2-37.5-10-48.7ZM821,385.9c1.2-6.5,6.6-10.3,13.3-9.9h.2v.2c6.9.4,13.1,3.6,18.7,7.3,5,3.2,9.8,6.7,11.5,12.8,3,13.7,14.1,21.9,28.1,22.4,8.2.3,15.7-3.8,21.7-9.9,3.3-3.5,4.7-2.6,7.7.6,2.8,2.9,5.4,6,8.1,9.1,1.6,1.6,2.5,3.8.8,5.8-10.6,12.7-21.4,25.2-32.2,37.7-2.3,3.1-5.9,4.6-9.7,4.9-14.6,1.6-29.2,2.7-43.8,4.2-2.7.3-6.3,1.6-8.9.5-2.6-1.2-3.4-5.3-4.2-7.9-5.7-20-12.2-39.9-12.9-61,0-5.6.4-11.3,1.6-16.8h0ZM773.8,563.3c-10.3-4.7-23.2-9.2-26.7-21.1v-.2h0c0-3.6,1.5-7.6,3.3-10.1,3.3-4.5,8.7-6.8,13.2-9.9,16-10.3,33.4-18.6,52.3-21.9,5.5-1.2,8.4-.8,10.6,4.9,5.1,11.1,10.3,22.2,15.3,33.4,1.4,2.6,1.4,5.6,0,8.1-4.6,9-9.4,17.9-14,27-.8,1.6-1.8,3.4-3.3,4.3-2.2,1.3-5.3.3-7.7-.2-14.7-3.6-29-8.3-42.8-14.3h-.2ZM861.7,682.7c-10.7,7.9-22.4,15.4-36,16.5-7.8.5-11.3-3.9-12.6-11.3-.7-3.8-.7-7.7-.3-11.5,5.5-36.8,19.8-71.3,38-103.6,2.7-4.9,5.4-5.6,8.8-.7,8,12.6,15.7,25.5,23.6,38.2,3.8,6.1,7.4,12.1,11.5,17.8,1.5,2.2,3.2,4.4,4.7,6.6.3.5.4,1,.3,1.3h0c-.2.3-.7.5-1.3.5-2,.2-4.4,0-6.5.3-8.6.3-17.3,4.8-22.1,11.5-5.1,6.8-7,15.7-4.6,24.6,1.5,4.7.7,7-3.4,9.8h0ZM918.1,665.6v.2c0,13.1-10.4,24.1-23.5,24.9-10.2.7-19.7-4.7-24.4-13.5-9.4-17.1,4.7-39,24.5-37.2,13.2.6,23.8,12.5,23.4,25.6ZM1018.2,695.2c-.8,6.3-7.5,8.7-13.4,8.2h-.3c-3.4-.7-6.3-2.2-9.7-3.4-2.2-.8-2.8-2.3,0-2.9,7.3-1.4,14.6-3.2,21.9-4.4,1.4,0,1.8,1.4,1.5,2.5h0ZM1177.3,580.4c-33.1,37.2-76.4,64.2-123.1,80.7-26,10.2-53.4,15.3-81.2,17.3-7,.3-13-3.6-17.5-8.7-13.9-16.6-27.4-33.5-41-50.3-1.4-1.9-1.6-3.6.7-5,39.1-22.1,68.5-59.7,77.1-104.2,1.2-7.1,1.9-8.6,9.3-6.1,8.7,2.6,17.3,5,26.1,7.4,2,.5,4.1,1.7,3.9,4.1-1,7.9-2.7,15.8-4,23.6,0,1.7-2,6.3-.2,7.3,2.6,0,5.9-11.9,6.8-14.5,1.3-4.1,2.5-8.3,3.7-12.4.5-1.7,1.4-3.6,3.4-3.4,5.1.5,6.8,2.5,5.8,7.6-1.1,7.7-2.5,15.3-3.7,22.9,0,1.3-.7,3.8.4,4.6,1.5,0,2.2-2.6,2.8-3.8,2.2-6.1,4.3-12.3,6.3-18.5,1.3-3.1,1-8,5.8-7,5.2.8,4.7,5,4.1,9-1.1,7.8-2.6,15.5-3.8,23.3,0,1-1.1,7,1.1,4.7,1-1.1,2-2.9,2.5-4.5,2.5-7.2,4.7-14.5,7.1-21.8.7-1.8.7-4.8,3.2-5h1c1.7.4,3.9.8,4.9,2.2,1.1,1.6.8,3.8.6,5.6-1,7.2-2,14.3-3.2,21.4,0,1.8-3,9.9-.6,10.2,1.6-.6,2.2-3,2.9-4.6,3.2-8.8,6.3-17.7,8.8-26.6,1.5-3.5,7.8-.6,7.9,2.6.2,1.3,0,2.7,0,4-.9,7.4-1.9,14.9-3.1,22.3-.4,3.5-1.6,7.1-1.7,10.6.2,1.5,1.2,1.2,1.8,0,4.8-9.5,7.5-19.8,10.5-30,.4-1.2.9-2.7,2-3.3,2.2-1.3,5.8.5,6,3.3.2,1.4,0,2.9-.2,4.2-1.5,9-2.9,18-4.3,26.9,0,1.4-.6,2.9-.3,4.3.3,1.4,1.2,1.3,1.9.2,2.9-6.9,5.1-14.2,7.6-21.3,1.1-3.2,1.6-6.6,3.2-9.6,1.1-2.4,3.3-2.6,5.5-1.1,1.8,1,2.3,3.2,2.2,5.1-.3,10.1-3.2,19.8-4.7,29.7,0,1.2-.9,4.8.7,4.8h.2c.6-.2,1.2-1.3,1.6-2,1-2.1,2-4.2,2.8-6.4,2.3-6.4,4-13.1,6.1-19.6.5-1.3,1.1-3,1.9-4,1.6-2,4.4-.7,5.7,1.1.8,1.3.9,3.2.7,4.8-.9,8.4-2.8,16.7-4.1,25,0,1.5-.7,4,.5,5.1,1.4.3,2.1-2.3,2.6-3.4,2.8-8.1,5.4-16.3,8.2-24.5.8-2.2,1.3-2.9,3.4-1.9,2.2,1.1,4.6,2.5,6.9,3.5,5.5,2.8,11,5.7,16.5,8.6,2.3,1.2,4.7,2.7,2.1,5.4h-.1ZM1179.1,572.5h0c-.6,0-1.5-.4-2.1-.8-7.5-5-15.1-9.9-22.4-15.1-2.7-1.7-4.2-4.4-4.9-7.4-2.5-9.1-4.5-18.4-6.9-27.5-.3-1.1-.8-2.8-1.7-3.4-1.6-.6-1.1,3.5-1.1,4.5.4,7.1,1.6,14.2,2,21.3,0,2.4-.5,3.7-3.1,2.5-3.7-1.3-5.2-5-5.8-8.6-1.5-6.9-3.3-13.7-5-20.5-.7-3.8-3.9-7.1-3.6-1,.7,6,1.5,12,2.1,17.9,0,1.3.3,3.3-1.1,3.8-.5.2-1.2,0-1.9-.3-3.9-1.5-5.8-5.3-6.3-9.2-1.3-6.4-2.8-12.7-4.6-19-1.4-3.6-3.3-5.9-3.3-.3s.6,6.7,1,10.1c.4,3.1.9,6.4.2,9.6,0,.5-.4.9-.7,1.1-.4.2-1,0-1.7-.5-2.7-1.7-5.8-4.3-6.5-7.6-2-6.8-3.2-14.1-5.8-20.7-1.6-2.9-2.5.5-2.4,2.2.3,5.7,1.6,11.3,2,16.9-.3,3.8-6.4-.2-7.4-1.6-1.4-1.6-2-3.9-2.4-5.9-1.2-5.8-2.8-11.3-4.4-16.9-.4-1.2-.8-2.7-1.6-3.7-4-4.2.6,18,.2,19.6.2,2.6-.5,3.4-3.2,2.4-4.5-1.2-6.7-4.4-7.4-8.8-1.4-6.1-3.1-12.1-4.8-18.2-1.2-4.6-3.4-4.4-3,.5.5,4.8,1.1,9.6,1.7,14.4.4,2.8,1.2,7-3.1,5.1-4-1.5-5.8-5.3-6.4-9.2-1.2-5.9-2.9-11.7-4.5-17.4-.3-1.1-1.6-5-2.9-2.8-.4,1.1-.3,2.6-.2,3.8.5,5.2,1.4,10.4,1.5,15.8,0,2.4-.7,4.8-3.5,3.3-2.7-1.2-5.1-3.4-5.8-6.3-1.5-5.8-2.8-11.9-4.3-17.7-.5-2-1.2-4.2-2.4-5.8-2.1-2.6-1.8,2.7-1.6,3.9.6,5,1.3,9.9,1.8,15,.3,3.6,1,6.4-3.2,4.9-9.4-3.3-18.7-6.5-28.2-9.5-1.1-.4-2.3-.8-3.1-1.7-1.3-1.3-1-3.8-.9-5.6,2.1-22.9-2.3-44-17.1-62.4-4.4-5.3-.2-7.2,5.3-5.8,22.6,4.8,45.2,11,66.1,21.2,9.6,4.9,18.6,11,27.1,17.5,13.4,10.4,26.7,21.1,39,32.8,12.9,13.7,25.6,27.9,36.7,43,9.9,14.3,17.7,29.9,25.2,45.5.4.7,1.1,2.5.5,2.6h0Z"/>
        </g>
      </g>
    </g>
  </g>
</svg>