<?xml version="1.0" encoding="UTF-8"?>
<svg xmlns="http://www.w3.org/2000/svg" version="1.1" viewBox="0 0 1920 1080">
  <defs>
    <style>
      .cls-1 {
        fill: #def4fc;
      }

      .cls-2 {
        fill: #fcdff0;
      }

      .cls-3 {
        fill: #ec008c;
      }

      .cls-4 {
        fill: #00aeef;
      }

      .cls-5 {
        fill: #fff;
      }

      .cls-6 {
        fill: #aee5f9;
      }

      .cls-7 {
        fill: #eb018c;
      }

      .cls-8 {
        fill: #01aeee;
      }

      .cls-9 {
        fill: #eb048d;
      }
    </style>
  </defs>
  <!-- Generator: Adobe Illustrator 28.7.1, SVG Export Plug-In . SVG Version: 1.2.0 Build 142)  -->
  <g>
    <g id="Layer_1">
      <g id="Layer_1-2" data-name="Layer_1">
        <g>
          <path class="cls-8" d="M772.7,667.2v-36.2q0-3,3.1-3h11.9c2.2,0,2.7.5,2.7,2.7v65.6c0,2.2-.5,2.7-2.6,2.7h-12.7c-1.6,0-2.6-.5-3.4-1.8-8.2-13-16.4-26-24.6-39-.2-.3-.4-.7-.6-1l-.2-.2v40c0,1.3-.7,1.9-1.9,1.9h-13.8c-1.5,0-2-.5-2-2v-67.2c0-.9.3-1.5,1.3-1.6.5,0,1-.1,1.5-.1h13.9c1.7,0,2.9.6,3.8,2.1,6.7,10.9,13.4,21.7,20.2,32.5,1,1.7,2.1,3.3,3.2,5,0,0,.2.2.3.3v-.6h-.1Z"/>
          <path class="cls-8" d="M1152.3,676.3v20.2c0,1.8-.6,2.4-2.3,2.4h-13.6c-1.9,0-2.3-.4-2.3-2.2v-66.1c0-2.2.3-2.6,2.6-2.6h28.1c5.9,0,11.4,1.4,16.1,5.1,4.4,3.4,7.2,7.9,8.3,13.4,1.1,5.3.8,10.5-1.4,15.5-1.6,3.7-4.2,6.5-7.5,8.8-.4.3-.7.5-1.2.8,1.7,3.4,3.4,6.9,5.2,10.3,2.4,4.7,4.7,9.4,7.1,14.1,1.1,2.1.6,2.9-1.8,2.9h-14.8c-2.5,0-3-.6-4.1-3.1-1.5-3.6-3.2-7-4.9-10.6-.9-2-1.8-4-2.7-6-.4-.8-.7-1.6-1.1-2.4,0-.2-.4-.5-.7-.5h-9,0ZM1152.3,660.8c3.9,0,7.6,0,11.3,0,3.5-.2,5.9-2.3,7-5.5,2.1-6.1-1.4-11.6-7.9-11.4h-10.4v16.9h0Z"/>
          <path class="cls-8" d="M1017.9,644.4v11h23.5c2,0,2.6.6,2.6,2.6v10.3c0,2-.6,2.5-2.6,2.5h-23.5v11.7h31.4c2.3,0,2.6.4,2.7,2.6v11.3c0,2-.5,2.5-2.5,2.5h-47.3c-.5,0-1,0-1.4,0-.8-.2-1.2-.7-1.1-1.5v-67.5c0-.9.3-1.5,1.3-1.7.5,0,1-.2,1.5-.2h45.9c2.3,0,2.8.5,2.8,2.8v11.3c0,1.8-.6,2.4-2.5,2.4h-30.9,0Z"/>
          <path class="cls-8" d="M803.2,652.6v-22.1c0-2.4.3-2.6,2.6-2.6h12.7c2.4,0,2.8.4,2.8,2.8v37.2c0,3.2.4,6.2,1.8,9.1,3.1,6.4,11,8.4,16.8,4.7,3.6-2.3,5.7-5.8,5.8-10.1.3-13.5.3-27.1.4-40.6,0-3,0-3.1,3.1-3.1h12.4c2.2,0,2.7.5,2.7,2.7v40.4c0,6.1-1.3,11.8-4.7,17-4.5,6.8-11,10.5-18.9,11.9-6.3,1.1-12.6.8-18.7-1.1-3.2-1-6.1-2.7-8.8-4.8-3.8-3-6.3-6.8-8-11.2-1.5-3.7-2-7.5-1.9-11.5v-18.7h0Z"/>
          <path class="cls-8" d="M1116.5,698.9h-7.1c-1.2,0-1.9-.6-2.2-1.7-1-2.8-2-5.6-2.9-8.4-.3-.8-.6-1-1.4-1h-23.3c-.8,0-1.2.2-1.4,1-.9,2.7-1.8,5.4-2.8,8.1-.5,1.6-1.1,2-2.7,2h-13.9c-2,0-2.5-.7-1.8-2.6,1.4-3.6,2.8-7.3,4.2-10.9,1.6-4.2,3.2-8.5,4.9-12.8,1.3-3.4,2.7-6.8,4-10.2,1.5-3.8,2.9-7.6,4.4-11.5,1.1-2.8,2.2-5.6,3.3-8.5,1.1-2.8,2.1-5.6,3.2-8.4.6-1.6,1.3-3.3,1.9-4.9.3-.8,1-1.3,1.9-1.3h12.8c1.1,0,1.9.6,2.2,1.6,2.5,6.4,4.9,12.7,7.4,19.1,3.5,9.2,7.1,18.4,10.6,27.7,2.5,6.6,5.1,13.3,7.6,19.9.7,1.9,0,2.7-1.9,2.7h-7.1.1ZM1098.9,672.6c-2.6-7.6-5.1-15-7.6-22.4-2.5,7.4-5,14.8-7.5,22.4h15.1Z"/>
          <path class="cls-8" d="M908.9,626.6c9.5,0,16.9,2.3,23.5,7,1.5,1.1,1.6,1.9.5,3.4-2.5,3.3-5,6.5-7.4,9.8-.2.3-.4.5-.6.7-.8.9-1.7,1.1-2.8.4-1.3-.8-2.7-1.6-4.1-2.2-6.4-2.8-14.1-2-19.6,3-5.2,4.7-7.1,10.7-6.3,17.5,1.1,8.3,7.3,15,15.5,16.4,5.1.9,9.8-.4,14-3.5,1.5-1.1,2.6-1,3.8.6,2.5,3.4,5,6.7,7.5,10.1,1.1,1.5.9,2.2-.6,3.4-4,3-8.6,4.9-13.4,6.2-1.8.5-3.7.7-5.6.7-2.5,0-5,.2-7.4,0-1.8,0-3.6-.5-5.4-1-2.4-.7-4.7-1.5-6.9-2.6-2.9-1.4-5.6-3.4-8.1-5.5-3.3-2.8-5.8-6.2-7.9-10-1.8-3.2-3.1-6.6-3.6-10.3-.4-2.8-.9-5.6-.8-8.4.3-7.8,2.7-14.9,7.3-21.2,3.6-4.8,8.2-8.5,13.7-11,5-2.3,10.3-3.4,14.5-3.3l.2-.2Z"/>
          <path class="cls-8" d="M961.7,681.5h26.8c2.1,0,2.6.5,2.6,2.6v12.1c0,2.1-.5,2.6-2.6,2.6h-43.8c-.8-.2-1.2-.6-1.2-1.5v-67.6c0-.8.3-1.5,1.2-1.6.5,0,.9-.2,1.4-.2h12.7c2.4,0,2.8.5,2.8,2.9v49.2c0,16.4,0,.9,0,1.6h0Z"/>
          <path class="cls-9" d="M810.8,724.7v-22h5.6c.3,0,.8.9.8,1.4v30.1c0,1.6-.4,2-2,2-5.1,0-3.7.3-6.7-4-4.5-6.3-8.9-12.7-13.5-19.3v21.3c0,1.5-.4,2-2,2-5.1,0-4.4.4-4.4-4.2v-27.2c0-.7,0-1.3,0-2.1h5.7c.5,0,1,.6,1.4,1,4.4,6.2,8.7,12.4,13.1,18.6.6.8,1.2,1.6,1.7,2.4h.3,0Z"/>
          <path class="cls-7" d="M1080.5,703c5.3,0,10.5-.3,15.7,0,4.8.4,7.9,3.9,7.8,8.9,0,2.4-1.3,4.5-3.9,6.3,1.8.8,3.3,1.9,4.3,3.6,3,4.9.5,11.8-5,13.4-1.5.4-3,.7-4.5.7h-14.4v-33.1.2ZM1086.8,730.6h7.7c2.9,0,4.7-1.9,4.7-4.6s-2-4.7-4.8-4.8h-7.1c-.2,0-.4,0-.5,0v9.3h0ZM1086.8,716.2c2.6,0,5.1.2,7.6,0,2-.2,3.2-2,3.2-4s-1.2-3.5-3.3-3.7c-2.5-.2-5,0-7.5,0v7.8h0Z"/>
          <path class="cls-9" d="M1031.1,702.2c9.4-.3,17.4,7.6,17.3,17.3,0,9.5-7.6,17.4-17.6,17.2-9.7-.2-16.2-7.1-16.9-15.5-1-12.4,8.4-19.4,17.2-19ZM1020.4,719.3c0,6.2,4.8,11.2,10.7,11.2s10.6-5,10.7-11c0-6.1-4.7-11.1-10.7-11.2-5.9,0-10.7,4.9-10.8,11h.1Z"/>
          <path class="cls-9" d="M992.4,702.2c9.5-.4,17.5,7.7,17.3,17.2,0,9.6-7.6,17.4-17.6,17.3-9.7-.2-16.2-7-16.9-15.4-1.1-12,8-19.4,17.2-19.1ZM1003.2,719.4c0-6.1-4.8-11.1-10.7-11.1s-10.7,4.9-10.7,11,4.8,11.2,10.8,11.1c5.8,0,10.6-5,10.7-11h0Z"/>
          <path class="cls-9" d="M861.5,702.7q2.8,0,3.9,2.6c3.7,9.5,7.5,19.1,11.2,28.6.7,1.9.4,2.3-1.6,2.3h-2.3c-1.6,0-2.1-.4-2.7-1.9-.5-1.3-.9-2.7-1.5-3.9,0-.3-.6-.7-1-.7h-12.3c-.4,0-.9.5-1,.8-.6,1.4-1.1,3-1.7,4.4-.2.4-.7,1-1.1,1h-5c-.2,0-.6-.8-.5-1,1.4-3.8,2.9-7.5,4.4-11.2,1.1-2.8,2.3-5.7,3.4-8.5,1.5-3.8,2.9-7.7,4.4-11.5.3-.7.7-1.2,1.6-1h1.8,0ZM866.5,724.1c-1.7-4.6-3.3-9-5-13.4-1.7,4.5-3.3,8.9-5,13.4h10Z"/>
          <path class="cls-9" d="M768.4,702.7c2.8,0,2.9,0,3.9,2.6,3.7,9.5,7.5,19.1,11.2,28.6.7,1.9.4,2.3-1.6,2.3-5.4,0-3.9,0-5.7-4.3-.2-.6-.4-1.2-.7-1.7-.2-.3-.6-.5-.9-.5h-12.3c-.4,0-.9.4-1.1.8-.6,1.4-1.1,3-1.7,4.4-.2.5-.7,1.1-1.2,1.1-1.6,0-3.3,0-4.9,0s-.7-.7-.6-1c.9-2.3,1.8-4.6,2.7-6.9,1.2-3.1,2.5-6.3,3.7-9.4,1.5-3.7,2.9-7.4,4.4-11.1.4-1.1,1-2.1,1.3-3.3s1-1.8,2.3-1.6h1.3-.1ZM763.4,724.1h9.9c-1.7-4.5-3.3-8.9-4.9-13.4-1.7,4.5-3.3,8.9-5,13.4Z"/>
          <path class="cls-9" d="M1135.4,736.3h-.5c-3.1,0-2.6-.3-3.5-2.5-.5-1.2-.9-2.3-1.4-3.5,0-.3-.6-.5-.9-.5h-12.5c-.3,0-.8.4-1,.8-.6,1.5-1.1,3-1.7,4.4-.2.5-.8,1.2-1.2,1.2-1.6,0-3.2,0-4.8,0s-.8-.6-.5-1.2c1.7-4.4,3.4-8.7,5.2-13.1,1.9-4.7,3.8-9.4,5.7-14.1.5-1.2.9-2.4,1.3-3.6.3-.8.7-1.4,1.8-1.3,1.2,0,2.4,0,3.6,0s1.1.5,1.3.9c4,10,7.9,20,11.8,29.9.9,2.4.7,2.7-1.9,2.7h-.8ZM1123.1,710.7c-1.7,4.5-3.3,8.9-4.9,13.4h9.9c-1.7-4.5-3.3-8.9-4.9-13.4h0Z"/>
          <path class="cls-9" d="M891.6,702.2c4.3,0,7.8,1.3,11.1,3.7.8.6.9,1.2.2,2-.8.8-1.5,1.6-2.2,2.5-.6.7-1.1.8-1.8.2-2.8-2-5.8-3-9.3-2.1-2.8.7-3.4,2.8-2.5,4.4.5.9,1.7,1.7,2.7,2.1,2.9,1.2,6,2.1,9,3.4,3.6,1.6,5.7,4.4,5.5,8.6-.3,3.9-2.2,6.7-5.7,8.2-2,.9-4.3,1.5-6.4,1.5-4.1,0-8.1-1.1-11.3-4,0,0-.3-.2-.5-.3-1.7-1.2-1.7-1.9-.3-3.3.6-.6,1.2-1.2,1.7-1.8.6-.7,1.2-.7,1.9,0,2.5,2.4,5.5,3.5,9,3.4,1.4,0,2.6-.5,3.8-1.4,1.8-1.3,1.7-4.6-.8-5.6-2.3-1-4.8-1.7-7.2-2.6-2.2-.8-4.4-1.7-6.1-3.5-2.3-2.4-2.9-5.2-2-8.5,1.3-4.8,5.6-6.4,9.6-6.8h1.6Z"/>
          <path class="cls-7" d="M957.2,723.6v10.3c0,2.2-.2,2.4-2.4,2.4-4.7,0-4,.2-4-4v-27.5c0-.7,0-1.3,0-2.1h20.7c1.1,0,1.6.5,1.6,1.6v3c0,1.1-.5,1.2-1.4,1.2h-14.6v9.3h10.9c1.5,0,1.6.2,1.6,1.7v2.3c0,1.5-.2,1.7-1.6,1.7h-11,.1Z"/>
          <path class="cls-7" d="M738.9,708.6v9.3h11c1.2,0,1.6.5,1.5,1.6v2.6c0,1-.4,1.4-1.4,1.4h-11.2v10.8c0,1.5-.2,1.8-1.7,1.9h-3.4c-.9,0-1.4-.6-1.3-1.5v-30.2c0-.6,0-1.2.2-2h20.7c1.2,0,1.7.3,1.6,1.5v2.8q0,1.6-1.6,1.6h-14.3v.2Z"/>
          <path class="cls-9" d="M920.2,716.6c2.3-4.4,4.4-8.7,6.6-12.9.3-.7.8-1,1.6-1h4.7c1.4,0,1.7.4,1,1.6-2.2,3.8-4.4,7.6-6.6,11.4-1.2,2.1-2.5,4.2-3.7,6.4-.2.4-.3,1-.3,1.5v10.7c0,1.7-.3,2-2.1,2-2.9,0-4.4-1.4-4.4-4.3v-8.2c0-.6-.2-1.2-.5-1.8-3-5.2-5.9-10.3-8.9-15.5-.5-.9-1-1.9-1.5-2.8-.4-.7-.2-1.1.6-1.1h5.5c.5,0,1.1.6,1.3,1.1,2.2,4.1,4.4,8.3,6.8,12.7v.2Z"/>
          <path class="cls-9" d="M1065.6,709v25.3c0,1.2-.4,1.9-1.6,2-1.2,0-2.5,0-3.7,0-.7,0-1.3-.5-1.2-1.4v-26.1h-8.2q-1.6,0-1.6-1.6v-3.4c0-.7.3-1.1,1-1.1h23.8c.9,0,1.2.4,1.3,1.2v3.6c0,.9-.4,1.3-1.4,1.2h-8.2l-.2.2h0Z"/>
          <path class="cls-9" d="M838.3,709v25.3c0,1.2-.4,1.9-1.6,2-1.2,0-2.5,0-3.7,0-.7,0-1.3-.5-1.2-1.4v-26.1h-8.2q-1.6,0-1.6-1.6v-3.4c0-.7.3-1.1,1-1.1h23.8c.9,0,1.2.4,1.3,1.2v3.6c0,.9-.4,1.3-1.4,1.2h-8.2s-.2,0-.2.2h0Z"/>
          <path class="cls-7" d="M1143.4,735.9v-33.2h5.3c.7,0,1,.4,1,1v26.2h13.9c1.4,0,1.6.2,1.6,1.6v3.4c0,.7-.2,1.3-1.1,1.3h-20.7v-.3Z"/>
          <path class="cls-7" d="M1170,702.7h5.3c.8,0,1,.5,1,1.2v26h13.9c1.4,0,1.6.2,1.6,1.6v3.2c0,.7-.2,1.3-1.1,1.3h-20.6v-33.2h-.1Z"/>
          <path class="cls-6" d="M772.7,667.2v.6c0,0-.2-.2-.3-.3,0,0,.2-.2.3-.3Z"/>
          <path class="cls-1" d="M746.2,657.1v-.2l.2.2h-.2Z"/>
          <path class="cls-2" d="M838.3,709l.2-.2-.2.2Z"/>
          <path class="cls-2" d="M1065.6,709l.2-.2-.2.2Z"/>
        </g>
      </g>
      <g id="Layer_1-3" data-name="Layer_1">
        <g>
          <g>
            <path d="M729,687.7c.1-.3.2-.5.3-.6-.1.1-.2.3-.3.5-.8,2.3-1.5,4.7-2.3,7,0,.2-.2.6-.4.8.2-.2.3-.6.4-.8.8-2.3,1.5-4.6,2.3-7h0Z"/>
            <path d="M727.4,675.4c0-.3-.2-.8-.5-1h0,.1c.3.2.4.7.5,1,.7,2.6,1.3,5.2,2,7.8.2.9.6,1.6,1.4,2.1,2.1,1.5,4.2,2.9,6.4,4.3s.4.2.6.2h0c-.2,0-.4-.1-.6-.2-2.1-1.4-4.3-2.8-6.4-4.3-.8-.5-1.2-1.3-1.4-2.1-.7-2.6-1.3-5.2-2-7.8Z"/>
            <path d="M724.6,680.1c.2,1,.6,2.1,1.7,2.5.3.1.5.1.6.1-.1,0-.3,0-.6-.1-1.1-.4-1.5-1.4-1.7-2.5-.4-2-.9-3.9-1.4-5.8-.1-.6-.5-1.2-.7-1.3.3,0,.7.6.8,1.3.5,1.9,1,3.9,1.4,5.8Z"/>
            <path d="M722.1,693.9c0,.1-.2.3-.3.5.1-.1.2-.3.3-.4.3-.6.6-1.2.8-1.8.7-1.8,1.1-3.7,1.7-5.6.1-.4.3-.9.5-1.1,0,0,0,0,0,0,0,0,0,0,0,0-.2.3-.4.8-.5,1.1-.6,1.9-1.1,3.8-1.7,5.6-.2.6-.5,1.2-.8,1.8h0Z"/>
            <path d="M720.1,677.4c-.4-1.8-.8-3.6-1.3-5.4-.2-.6-.5-1-.7-1.1.2,0,.5.5.7,1.1.5,1.8.9,3.6,1.3,5.4.1,1.1.7,2.2,1.8,2.6.1,0,.3.1.4.1-.1,0-.3,0-.4-.1-1.1-.4-1.7-1.5-1.8-2.6Z"/>
            <path class="cls-5" d="M717.5,677.7c-.8-.5-1.7-1.2-1.9-2.2-.6-1.9-.9-4-1.7-5.9-.1-.3-.3-.3-.3-.3-.3,0-.4.6-.4.9,0,1.6.5,3.2.6,4.8,0,.3-.2.5-.4.5-.6,0-1.5-.6-1.7-.9-.4-.5-.6-1.1-.7-1.7-.3-1.7-.8-3.2-1.3-4.8-.1-.3-.2-.8-.5-1.1-.1-.1-.2-.2-.3-.1-.7,0,.4,5.3.3,5.7,0,.5,0,.8-.4.8s-.3,0-.5-.1c-1.3-.3-1.9-1.3-2.1-2.5-.4-1.7-.9-3.4-1.4-5.2-.2-.7-.4-1-.6-.9-.2,0-.3.3-.3,1.1.1,1.4.3,2.7.5,4.1,0,.6.3,1.5-.3,1.6h0c-.1,0-.3,0-.5-.1-1.1-.4-1.7-1.5-1.8-2.6-.3-1.7-.8-3.3-1.3-5,0-.3-.3-1-.6-1,0,0-.2,0-.3.2-.1.3,0,.7,0,1.1.1,1.5.4,3,.4,4.5s-.1,1.1-.5,1.1c-.1,0-.3,0-.4-.1-.8-.3-1.5-1-1.7-1.8-.4-1.7-.8-3.4-1.2-5-.1-.6-.3-1.2-.7-1.7-.1-.1-.2-.2-.3-.2-.3,0-.3,1-.2,1.3.2,1.4.4,2.8.5,4.3,0,.8.2,1.5-.3,1.5h-.1c-.1,0-.3,0-.4-.1-2.7-.9-5.3-1.9-8-2.7-.3-.1-.7-.2-.9-.5-.4-.4-.3-1.1-.3-1.6.6-6.5-.7-12.5-4.9-17.8-.9-1.1-.5-1.7.5-1.8h.3c.2,0,.5,0,.7.1,6.4,1.4,12.9,3.1,18.8,6,2.7,1.4,5.3,3.1,7.7,5,3.8,3,7.6,6,11.1,9.3,3.7,3.9,7.3,8,10.5,12.3,2.8,4.1,5,8.5,7.2,13h0c.1.1.2.4.2.6s0,0,0,.1h0c-.2,0-.4-.1-.6-.2-2.1-1.4-4.3-2.8-6.4-4.3-.8-.5-1.2-1.3-1.4-2.1-.7-2.6-1.3-5.2-2-7.8,0-.3-.2-.8-.5-1h-.1c-.4,0-.2,1-.2,1.3.1,2,.5,4,.6,6.1,0,.4,0,.7-.2.8,0,0,0,0,0,0-.1,0-.3,0-.6-.1-1.1-.4-1.5-1.4-1.7-2.5-.4-2-.9-3.9-1.4-5.8-.1-.7-.5-1.3-.8-1.3-.2,0-.3.3-.3,1,.2,1.7.4,3.4.6,5.1,0,.4,0,.9-.3,1.1h-.1c-.1,0-.3,0-.4-.1-1.1-.4-1.7-1.5-1.8-2.6-.4-1.8-.8-3.6-1.3-5.4-.2-.6-.5-1.1-.7-1.1-.1,0-.3.3-.3,1s0,.8,0,1.2h0c0,.2,0,.4,0,.5h0c0,.4.1.8.1,1.2.1.9.3,1.8,0,2.7,0,.1-.1.3-.2.3h0c-.1,0-.2,0-.4-.2h0Z"/>
            <path d="M717.9,673.2c0,.1,0,.3,0,.4,0-.1,0-.3,0-.4Z"/>
            <path d="M717.4,692.3c0,0,0,0-.1.1,0,0,0,0,0-.1.8-2,1.5-4,2.2-6.1.3-.9.5-1.9.9-2.7,0-.1.1-.2.2-.3,0,0-.1.2-.1.3-.5.9-.6,1.8-.9,2.7-.7,2-1.3,4.1-2.2,6.1Z"/>
            <path d="M715.7,675.5c-.6-1.9-.9-4-1.7-5.9-.1-.2-.2-.3-.3-.3,0,0,.2,0,.3.3.7,1.9,1.1,4,1.7,5.9.2.9,1.1,1.7,1.9,2.2.1.1.3.2.4.2-.1,0-.3,0-.4-.2-.8-.5-1.7-1.2-1.9-2.2Z"/>
            <path d="M716,682.2c-.9,2.9-1.6,5.8-3,8.6,0,.2-.2.3-.3.3,0,0,.2-.1.3-.3,1.4-2.7,2.1-5.6,3-8.6,0-.3.2-.6.4-.8-.2.2-.3.5-.4.8h0Z"/>
            <path d="M709.4,667.1c.2.3.3.7.5,1.1.5,1.6.9,3.2,1.3,4.8.1.6.3,1.2.7,1.7.2.3,1.1.9,1.7.9-.6,0-1.5-.6-1.7-.9-.4-.5-.6-1.1-.7-1.7-.3-1.7-.8-3.2-1.3-4.8-.1-.3-.2-.8-.5-1.1,0,0-.2-.1-.2-.1,0,0,.1,0,.3.1Z"/>
            <path d="M709.1,687c-.1.3-.3.9-.6,1.1.3-.3.4-.8.5-1.1.9-2.5,1.8-5,2.5-7.6,0,0,0-.2.1-.2,0,0,0,.1-.1.2-.7,2.5-1.6,5.1-2.5,7.6Z"/>
            <path class="cls-5" d="M697.9,674.1c.1-.1.3-.2.5-.2,1.5.1,1.9.7,1.7,2.2-.3,2.2-.7,4.4-1.1,6.5,0,.4-.2,1.1.1,1.3.1,0,.2,0,.3-.1h0c.2-.3.4-.7.5-1,.6-1.7,1.2-3.5,1.8-5.3.2-.6.3-1.4.7-1.8h0c.2-.2.5-.3.9-.2,1.5.2,1.3,1.4,1.2,2.6-.3,2.2-.7,4.4-1.1,6.6,0,.3-.3,1.9.3,1.4,0,0,0,0,0,0s0,0,0,0c.3-.3.6-.8.7-1.3.7-2.1,1.3-4.1,2-6.2.1-.4.2-.9.5-1.2.1,0,.2-.1.4-.2h.3c.5.1,1.1.2,1.4.6.3.5.2,1.1.2,1.6-.3,2.1-.6,4.1-.9,6.1,0,.5-.9,2.8-.2,2.9,0,0,.2,0,.3-.2,0,0,0,0,0,0,.3-.3.4-.8.6-1.1.9-2.5,1.8-5,2.5-7.6,0,0,0-.1.1-.2,0,0,0,0,0,0,.6-.5,2.1.2,2.1,1,0,.4,0,.8,0,1.1-.3,2.1-.5,4.2-.9,6.4-.1,1-.5,2-.5,3,0,.2.1.3.2.3h0c.1,0,.2-.1.3-.3,1.4-2.7,2.1-5.6,3-8.6,0-.3.2-.6.4-.8h0s0,0,.1,0c.6-.4,1.7.1,1.7.9,0,.4,0,.8,0,1.2-.4,2.6-.8,5.1-1.2,7.7,0,.4-.2.8,0,1.2,0,.3.3.4.5.2h0s0,0,.1-.1c.8-2,1.5-4,2.2-6.1.3-.9.5-1.9.9-2.7,0-.1,0-.2.1-.3,0,0,0,0,0,0,.3-.3.8-.3,1.3,0,.5.3.7.9.6,1.5,0,2.9-.9,5.6-1.3,8.5,0,.3-.3,1.4.2,1.4h0c0,0,.1,0,.2-.2.1-.1.2-.3.3-.5.3-.6.6-1.2.8-1.8.7-1.8,1.1-3.7,1.7-5.6.1-.4.3-.9.5-1.1,0,0,0,0,0,0,.5-.5,1.2,0,1.5.4.2.4.3.9.2,1.4-.3,2.4-.8,4.8-1.2,7.1,0,.4-.2,1.1.1,1.5.1,0,.2,0,.3-.1h0c.2-.3.3-.7.4-.9.8-2.3,1.5-4.6,2.3-7,0-.3.2-.4.3-.5h0c.1-.1.3-.1.7,0,.6.3,1.3.7,2,1,1.6.8,3.1,1.6,4.7,2.5h0c.7.4,1.3.8.6,1.6-.3.3-.6.7-.9,1-1.5,1.6-3.1,3.2-4.7,4.6-8.5,7.7-18.7,13.5-29.5,17.4-7.4,2.9-15.2,4.4-23.1,4.9-2,0-3.7-1-5-2.5-4-4.7-7.8-9.5-11.7-14.3-.3-.4-.4-.8-.1-1.2h0c0-.1.1-.2.2-.2,3-1.7,5.8-3.7,8.3-5.9,1.2-1.1,2.3-2.2,3.3-3.3,5.2-5.7,8.9-12.7,10.4-20.5.1-.9.3-1.5.5-1.8,0,0,0,0,0,0,.3-.3.9-.2,2,.1,2.5.7,4.9,1.4,7.4,2.1.6.1,1.2.5,1.1,1.2-.3,2.3-.8,4.5-1.1,6.7,0,.5-.6,1.8,0,2.1.1,0,.2,0,.3-.2,0,0,0,0,0,0,.7-.7,1.4-3.3,1.6-3.9.4-1.2.7-2.4,1.1-3.5,0-.3.2-.5.3-.7h0Z"/>
            <path d="M706.4,670.8c.2,1.3.8,2.2,2.1,2.5.2,0,.4.1.5.1-.1,0-.3,0-.5-.1-1.3-.3-1.9-1.3-2.1-2.5-.4-1.7-.9-3.4-1.4-5.2-.2-.6-.4-.9-.6-.9.2,0,.4.3.6.9.5,1.7,1,3.4,1.4,5.2h0Z"/>
            <path d="M704.5,684.8c-.1.5-.4,1-.7,1.3h0c.3-.3.6-.8.7-1.3.7-2.1,1.3-4.1,2-6.2.1-.4.2-1,.5-1.3-.3.3-.3.9-.5,1.2-.7,2.1-1.3,4.2-2,6.2h0Z"/>
            <path d="M700.1,662.8c.3,0,.5.7.6,1,.5,1.6.9,3.3,1.3,5,.2,1.1.7,2.2,1.8,2.6.2,0,.4.1.5.1-.1,0-.3,0-.5-.1-1.1-.4-1.7-1.5-1.8-2.6-.3-1.7-.8-3.3-1.3-5,0-.3-.3-1-.6-1Z"/>
            <path d="M699.9,682.8c.6-1.7,1.2-3.5,1.8-5.3.3-.6.3-1.4.7-1.8-.4.4-.4,1.2-.7,1.8-.6,1.8-1.2,3.5-1.8,5.3-.1.3-.3.7-.5.9.2-.3.3-.7.5-.9Z"/>
            <path d="M741.2,692.8c0,0,.1.1.1.2h0c0,.1-.1,0-.1,0-.2,0-.5-.1-.7-.2-.6-.3-1.2-.5-1.6-.3-.7.6-.9,1.7-1.5,2.4-8.5,13.5-23.5,21.3-38.1,26.7-1,.3-1.5,1-1.5,2-.2,2.7-.9,5.4-2.8,7.4-4.7,4.8-12.3,1.9-16.9-1.5-1.1-.8-2.1-1.6-3.2-2.5-1.1-.9-2.1-1.9-3.5-2.3-1.7-.5-3.3-1.1-5-1.6-1.3-.3-2.5-.9-3.8-1.1-.7,0-1.2.4-1.7.8-1.8,1.4-3.8,1.9-6,1.7-.6,0-1.3-.1-1.8.1s-.7.4-.9.6c-1.8,1.6-3.8,3-5.8,4.1-1.9,1.1-3.9,2.1-6,2.7-3.3.9-7.3.4-9.9-2-1.8-1.7-2.6-4.3-2.9-6.7-1-8.3,2.4-16.1,5.2-23.7.3-.7.7-1.7-.3-2-6-1.8-11.9-3.4-17.3-6.6-3.1-1.7-5.6-4.5-6.2-8.2-.8-3.6.4-7.3,2.9-10,5-5.6,12.5-7.8,19.5-9.6,2.3-.6,2.5-.8,1.8-3-2.5-8.1-5.1-16.4-3.3-24.9.5-1.6.8-3.3,2-4.6,1.7-2,5-3.3,7.4-3.1,3.3.5,6.4,1.9,9.2,3.6.7.5,1.4.9,2.1.3,4.2-3.5,10.5-2.4,12.9,2.7.3.6.6,1.2,1.2,1.4.4.2.9.2,1.4.3,3.8.3,7.5.9,11.3,1.3.9,0,1.8-.3,2.5-.8,2.9-2,5.9-3.8,9.3-4.8,3.5-1.2,7.6-.7,10,2.4,1.9,2.3,2,5.4,2.8,8.2.2.8.7,1.5,1.4,2.1,2.3,1.7,4.6,3.4,6.9,5.1,8.2,5.8,15.4,13,21.2,21.4,2.3,3.3,4.2,6.8,5.6,10.5,1.2,3.1,1.5,6.3,2.4,9.4.3.8,1.1,1.5,1.7,2.1h0ZM696.4,678.4c-.2.6-.9,3.1-1.6,3.9,0,0,0,0,0,0,0,0-.2.1-.3.1-.5-.3,0-1.6,0-2.1.4-2.2.9-4.5,1.1-6.7,0-.7-.5-1-1.1-1.2-2.5-.7-5-1.4-7.4-2.1-1.1-.4-1.7-.4-2.1-.1,0,0,0,0,0,0-.3.3-.4.9-.6,1.8-1.5,7.7-5.2,14.7-10.4,20.4-1.1,1.2-2.2,2.3-3.3,3.3-2.5,2.3-5.3,4.2-8.2,5.9,0,0-.2.1-.3.2h0c-.3.4-.3.8,0,1.3,3.9,4.8,7.7,9.6,11.7,14.3,1.3,1.5,3,2.6,5,2.5,7.9-.6,15.7-2,23.1-4.9,10.8-3.8,21-9.6,29.5-17.4,1.6-1.5,3.2-3,4.7-4.6.3-.3.6-.7.9-1h0c.7-.8,0-1.2-.6-1.6-1.6-.8-3.1-1.7-4.7-2.5-.7-.3-1.3-.7-2-1-.3-.2-.5-.2-.7,0h0c-.1,0-.2.3-.3.6-.8,2.3-1.5,4.7-2.3,7,0,.2-.2.6-.4.8h0c0,.1-.2.1-.3.1-.3-.3-.1-1-.1-1.5.4-2.4.9-4.7,1.2-7.1,0-.5,0-1-.2-1.4-.3-.5-1.1-.9-1.6-.4,0,0,0,0,0,0-.2.3-.4.8-.5,1.1-.6,1.9-1.1,3.8-1.7,5.6-.2.6-.5,1.2-.8,1.8,0,.1-.2.3-.3.4,0,0-.1.1-.2.1h0c-.5,0-.2-1-.2-1.4.4-2.8,1.3-5.6,1.3-8.5,0-.5-.1-1.2-.6-1.5-.5-.3-1-.4-1.3,0,0,0,0,0,0,0,0,0-.1.2-.2.3-.5.9-.6,1.8-.9,2.7-.7,2-1.3,4.1-2.2,6.1,0,0,0,0,0,.1h0c-.2.2-.4.1-.4-.2,0-.4,0-.8,0-1.2.4-2.5.8-5.1,1.2-7.7,0-.4.1-.8,0-1.2,0-.8-1.1-1.3-1.7-.9,0,0,0,0-.1.1h0c-.2.2-.3.5-.4.8-.9,2.9-1.6,5.8-3,8.6,0,.1-.2.2-.3.3h0c0,0-.2,0-.2-.3,0-1,.4-2,.5-3,.3-2.1.6-4.2.9-6.4,0-.4,0-.8,0-1.1,0-.8-1.5-1.6-2.1-1,0,0,0,0,0,0,0,0-.1.1-.1.2-.7,2.5-1.6,5.1-2.5,7.6-.1.3-.3.8-.5,1.1,0,0,0,0,0,0,0,0-.1.1-.2.1-.7,0,.2-2.4.2-2.9.3-2,.6-4,.9-6.1,0-.5.1-1.1-.2-1.6-.3-.4-.9-.5-1.4-.6h-.3c-.2,0-.3,0-.4.2-.3.3-.3.9-.5,1.3-.7,2.1-1.3,4.2-2,6.2-.1.5-.4,1-.7,1.3,0,0,0,0,0,0-.5.5-.3-1.1-.3-1.4.3-2.2.8-4.4,1.1-6.6.2-1.1.3-2.3-1.2-2.6-.5,0-.7,0-1,.2h0c-.4.4-.5,1.2-.7,1.8-.6,1.8-1.2,3.5-1.8,5.3-.1.2-.3.7-.5.9,0,0,0,0,0,0,0,0-.2.1-.3.1-.3-.2-.1-.9-.1-1.3.3-2.2.7-4.3,1.1-6.5.3-1.5-.2-2-1.7-2.2-.3,0-.4,0-.6.2h0c-.2.2-.3.5-.4.8-.3,1.2-.7,2.4-1.1,3.5h0ZM695.7,661c.3.5.5,1.1.7,1.7.4,1.7.8,3.4,1.2,5,.2.8.9,1.5,1.7,1.8.2,0,.3.1.5.1.5,0,.6-.5.6-1.1,0-1.5-.3-3-.4-4.5,0-.3,0-.8,0-1.1,0-.1.1-.2.2-.2.3,0,.5.7.6,1,.5,1.6.9,3.3,1.3,5,.2,1.1.7,2.2,1.8,2.6.2,0,.4.1.5.1h0c.6,0,.4-.9.3-1.6-.2-1.4-.3-2.7-.5-4.1,0-.7,0-1.1.3-1.1s.4.3.6.9c.5,1.7,1,3.4,1.4,5.2.2,1.3.8,2.2,2.1,2.5.2,0,.4.1.5.1.3,0,.5-.3.4-.8.1-.4-1-5.6-.3-5.7,0,0,.1,0,.2.1.2.3.3.7.5,1.1.5,1.6.9,3.2,1.3,4.8.1.6.3,1.2.7,1.7.2.3,1.1.9,1.7.9s.4-.1.5-.5c-.1-1.6-.5-3.2-.6-4.8,0-.3.1-.9.3-.9,0,0,.2,0,.3.3.7,1.9,1.1,4,1.7,5.9.2.9,1.1,1.7,1.9,2.2.1.1.3.2.4.2h.1c0,0,.2-.2.2-.3.2-.9,0-1.9,0-2.7,0-.5-.1-.8-.2-1.1h0c0-.2,0-.3,0-.5h0c0-.4,0-.8,0-1.3s0-.9.2-1c.2,0,.5.5.7,1.1.5,1.8.9,3.6,1.3,5.4.1,1.1.7,2.2,1.8,2.6.1,0,.3.1.4.1h.1c.4-.1.3-.7.3-1.1-.2-1.7-.4-3.4-.6-5.1,0-.7,0-.9.3-1,.3,0,.6.6.7,1.3.5,1.9,1,3.9,1.4,5.8.2,1,.6,2.1,1.7,2.5.3.1.5.2.6.1,0,0,0,0,0,0,.2-.1.2-.4.2-.8-.1-2-.5-4-.6-6.1,0-.3-.1-1.3.2-1.3h0c.3.2.4.7.5,1,.7,2.6,1.3,5.2,2,7.8.2.9.6,1.6,1.4,2.1,2.1,1.5,4.2,2.9,6.4,4.3s.4.3.6.3h0c.2,0,0-.6-.1-.8-2.1-4.4-4.4-8.9-7.2-13-3.2-4.3-6.8-8.4-10.5-12.3-3.5-3.3-7.3-6.4-11.1-9.3-2.4-1.9-5-3.6-7.7-5-6-2.9-12.4-4.7-18.8-6-.3,0-.5-.1-.7-.1h-.3c-1,0-1.5.6-.5,1.8,4.2,5.2,5.5,11.3,4.9,17.8,0,.5-.1,1.2.3,1.6.2.3.6.4.9.5,2.7.9,5.4,1.8,8,2.7.2,0,.3,0,.5.1h.1c.5,0,.4-.7.3-1.5-.1-1.5-.3-2.9-.5-4.3,0-.3-.1-1.3.2-1.3,0,0,.1,0,.3.2h0ZM649.7,719.7c1.3,2.5,4,4,7,3.8,3.7-.2,6.7-3.4,6.7-7.1h0c.1-3.8-2.9-7.2-6.7-7.4-5.6-.5-9.7,5.7-7,10.6ZM656.1,645.1c4,0,7.2-3.2,7.2-7.2h0c0-5.3-5.3-8.8-10.1-6.7-7.2,3.2-5.1,13.8,2.9,13.9ZM695,639.9c.3,0,.7.2.7-.2,0-.7-.6-1.1-1.2-1.4-.6-.3-1.4-.4-2-.4h0c-.3,0-1.9.1-1.2.6,1.2.7,2.5,1,3.7,1.5ZM691.9,724.9c0-.3,0-.7-.4-.7-2.1.3-4.2.9-6.2,1.3-.8.2-.6.6,0,.8,1,.3,1.8.8,2.8,1h0c1.7.1,3.6-.5,3.8-2.3h0ZM671.3,660.9c.7,0,.7-.7.7-1.3-.3-1.7-.7-3.5-1-5.2-.1-.8-.3-1.4-1.1-.6-1.2,1.3-2.5,2.7-3.6,4-1.1,1.2-.8,1.9.8,2.2,1.3.3,2.7.5,4,.7h.2,0ZM671.1,668.4c0-.4.2-.9,0-1.2-.3-.3-.8-.4-1.2-.4-2.5-.3-4.7-.6-6.8-.7-1.7,0-3.1,0-4.2,1.3-1.3,1.5-2.5,3.1-3.6,4.6-1.9,2.9-3.8,5.7-5.6,8.6-.6.9-.2,1.9.3,2.7,1.1,1.9,2.1,3.7,3.2,5.6.8,1.7,1.4,1.5,2.9.5,7.4-4.8,13.1-12.3,15.2-21.1h0ZM667.1,647.7c.5-.6.2-1.2-.2-1.7-.8-.9-1.5-1.8-2.3-2.6-.9-.9-1.3-1.2-2.2-.2-1.7,1.7-3.8,2.9-6.2,2.8-4-.1-7.2-2.5-8-6.4-.5-1.7-1.9-2.7-3.3-3.6-1.6-1.1-3.4-2-5.3-2.1h0c0,0,0,0,0,0-1.9-.1-3.4,1-3.8,2.8-.3,1.6-.5,3.2-.5,4.8.2,6,2.1,11.7,3.7,17.4.2.7.5,1.9,1.2,2.3.7.3,1.8,0,2.5-.1,4.2-.4,8.3-.7,12.5-1.2,1.1,0,2.1-.5,2.8-1.4,3.1-3.6,6.2-7.1,9.2-10.7h0ZM658.1,708c0,0,0-.2,0-.4-.4-.6-.9-1.3-1.3-1.9-1.2-1.6-2.2-3.3-3.3-5.1-2.3-3.6-4.4-7.3-6.7-10.9-1-1.4-1.7-1.2-2.5.2-5.2,9.2-9.3,19-10.8,29.5-.1,1.1-.1,2.2,0,3.3.4,2.1,1.4,3.4,3.6,3.2,3.9-.3,7.2-2.5,10.3-4.7,1.2-.8,1.4-1.5,1-2.8-.7-2.5-.1-5.1,1.3-7,1.4-1.9,3.8-3.2,6.3-3.3.6,0,1.3,0,1.9,0,.2,0,.3,0,.4-.1h0ZM650.5,668.4c.5-.6.4-1.4-.5-1.5h0c-1.9.3-3.7.4-5.6.6-.5,0-1.1.1-1.4.6-.3.4,0,1,.1,1.4.4,1,.9,2,1.3,3,1,1.9,1.6,2.9,3.1.6,1.1-1.5,2-3.1,3-4.6h0ZM641.6,682.5c.4-.7.4-1.6,0-2.3-1.4-3.2-2.9-6.4-4.4-9.5-.6-1.6-1.5-1.7-3-1.4-5.4.9-10.3,3.3-14.9,6.2-1.3.9-2.8,1.5-3.8,2.8-.3.3-.5.8-.7,1.3s-.3,1.1-.3,1.6h0c1,3.4,4.7,4.7,7.6,6.1h0c3.9,1.7,8,3.1,12.2,4.1.7.1,1.6.4,2.2,0,.4-.3.7-.8.9-1.2,1.3-2.6,2.7-5.1,4-7.7h0Z"/>
            <path d="M696.4,678.4c.4-1.2.7-2.4,1.1-3.5,0-.3.2-.6.4-.7-.2.2-.3.5-.3.7-.3,1.2-.7,2.4-1.1,3.5-.2.6-.9,3.2-1.6,3.9.7-.8,1.4-3.3,1.6-3.9h0Z"/>
            <path d="M699.2,669.5c-.8-.3-1.5-1-1.7-1.8-.4-1.7-.8-3.4-1.2-5-.1-.6-.3-1.2-.7-1.7-.1-.1-.2-.2-.3-.2,0,0,.2,0,.3.2.3.5.5,1.1.7,1.7.4,1.7.8,3.4,1.2,5,.2.8.9,1.5,1.7,1.8.2,0,.3.1.4.1-.1,0-.3,0-.5-.1Z"/>
            <path d="M680.8,645.2c4.2,5.2,5.5,11.3,4.9,17.8,0,.5-.1,1.2.3,1.6.2.3.6.4.9.5,2.7.9,5.4,1.8,8,2.7.2,0,.3,0,.4.1-.1,0-.3,0-.5-.1-2.7-.9-5.3-1.9-8-2.7-.3-.1-.7-.2-.9-.5-.4-.4-.3-1.1-.3-1.6.6-6.5-.7-12.5-4.9-17.8-1-1.1-.5-1.7.5-1.8-1,0-1.4.6-.5,1.8h0Z"/>
            <path d="M674.1,692.6c5.2-5.7,8.9-12.7,10.4-20.4.1-.9.3-1.5.6-1.8-.3.3-.4.9-.5,1.8-1.5,7.8-5.2,14.8-10.4,20.5Z"/>
            <path class="cls-4" d="M663.3,637.9c0,4-3.3,7.2-7.2,7.2-7.9-.1-10-10.7-2.9-13.9,4.8-2.1,10.1,1.5,10.1,6.7h0Z"/>
            <path d="M674,717.6c-4-4.7-7.8-9.5-11.7-14.3-.3-.5-.4-.9,0-1.2-.3.3-.2.7.1,1.2,3.9,4.8,7.7,9.6,11.7,14.3,1.3,1.5,3,2.6,5,2.5,7.9-.6,15.7-2,23.1-4.9,10.8-3.8,21-9.6,29.5-17.4-8.5,7.8-18.7,13.5-29.5,17.4-7.4,2.9-15.2,4.4-23.1,4.9-2,0-3.7-1-5-2.5h0Z"/>
            <path class="cls-3" d="M656.7,709.1c3.8.2,6.8,3.6,6.7,7.3h0c0,3.8-3,6.9-6.7,7.2-2.9.2-5.6-1.3-7-3.8-2.7-4.9,1.3-11.1,7-10.6Z"/>
          </g>
          <g id="LINE_WORK">
            <path d="M741.4,693c0,0,0-.1-.1-.2-.6-.6-1.4-1.2-1.7-2.1-.9-3.1-1.2-6.4-2.4-9.4-1.3-3.8-3.3-7.2-5.6-10.5-5.8-8.3-12.9-15.5-21.2-21.4-2.3-1.7-4.6-3.4-6.9-5.1-.7-.5-1.2-1.2-1.4-2.1-.7-2.8-.9-5.9-2.8-8.2-2.4-3-6.5-3.5-10-2.4-3.4,1-6.4,2.7-9.3,4.8-.7.5-1.6.9-2.5.8-3.8-.4-7.5-.9-11.3-1.3-.5,0-1,0-1.4-.3-.6-.2-.9-.8-1.2-1.4-2.4-5.1-8.6-6.2-12.9-2.7-.7.5-1.5.1-2.1-.3-2.8-1.8-5.9-3.1-9.2-3.6-2.3-.2-5.6,1.1-7.4,3.1-1.2,1.3-1.5,3-2,4.6-1.8,8.5.8,16.9,3.3,24.9.7,2.2.5,2.4-1.8,3-7.1,1.8-14.5,4-19.5,9.6-2.5,2.7-3.7,6.4-2.9,10,.6,3.7,3.1,6.4,6.2,8.2,5.4,3.1,11.4,4.8,17.3,6.6,1,.3.6,1.2.3,2-2.8,7.6-6.2,15.4-5.2,23.7.3,2.5,1,5,2.9,6.7,2.6,2.4,6.6,2.9,9.9,2,2.1-.6,4.1-1.6,6-2.7,2.1-1.2,4-2.6,5.8-4.1.3-.2.6-.5.9-.6.6-.3,1.2-.2,1.8-.1,2.3.2,4.2-.3,6-1.7.5-.4,1.1-.9,1.7-.8,1.3.2,2.5.7,3.8,1.1,1.7.5,3.3,1,5,1.6,1.4.4,2.4,1.5,3.5,2.3,1.1.9,2.1,1.7,3.2,2.5,4.6,3.4,12.2,6.3,16.9,1.5,1.9-2.1,2.6-4.7,2.8-7.4,0-1,.5-1.7,1.5-2,14.5-5.4,29.6-13.2,38.1-26.7.5-.7.8-1.8,1.5-2.4.4-.3,1,0,1.6.3.2.1.4.2.7.2h.1c0,0,0,0,0,0h0ZM692.5,637.8h0c1.2,0,2.9.4,3.1,1.8,0,.4-.4.3-.7.2-1.2-.5-2.6-.8-3.7-1.5-.6-.5,1-.6,1.2-.6h0ZM671,654.4c.3,1.7.7,3.4,1,5.2h0s0,0,0,0h0s0,0,0,0c0,.6,0,1.4-.9,1.2-1.4-.2-2.7-.5-4-.7-1.6-.3-1.9-1-.8-2.2,1.2-1.4,2.4-2.7,3.6-4,.7-.8,1-.3,1.1.6h0ZM650.5,668.4c-1,1.6-1.9,3.1-3,4.6-1.5,2.3-2.1,1.3-3.1-.6-.5-1-.9-1.9-1.3-3-.2-.4-.4-1-.1-1.4.3-.4.9-.5,1.4-.6,1.9-.2,3.7-.3,5.6-.6h0c.9,0,1,.9.5,1.5ZM649.6,680.6c1.8-2.9,3.7-5.8,5.6-8.6,1.1-1.6,2.3-3.2,3.6-4.6,1.1-1.2,2.6-1.2,4.2-1.3h0,0c2.2.2,4.4.5,6.8.7.4,0,1,0,1.2.4.2.3,0,.8,0,1.2-2.1,8.7-7.8,16.2-15.2,21.1-1.4,1-2,1.2-2.9-.5-1-1.9-2.1-3.8-3.2-5.6-.5-.8-.9-1.9-.3-2.7h0ZM653.3,631.2c4.8-2.1,10.1,1.5,10.1,6.7h0c0,4-3.3,7.3-7.2,7.2-7.9-.1-10-10.7-2.9-13.9ZM635.7,636.7c.3-1.9,1.9-2.9,3.8-2.8h0c2,.2,3.7,1.1,5.3,2.1,1.4.9,2.8,1.9,3.3,3.6.9,3.9,4,6.2,8,6.4,2.3,0,4.5-1.1,6.2-2.8.9-1,1.3-.7,2.2.2.8.8,1.5,1.7,2.3,2.6.5.5.7,1.1.2,1.7-3,3.6-6.1,7.2-9.2,10.7-.7.9-1.7,1.3-2.8,1.4-4.2.5-8.3.8-12.5,1.2-.8,0-1.8.5-2.5.1-.7-.3-1-1.5-1.2-2.3-1.6-5.7-3.5-11.4-3.7-17.4,0-1.6.1-3.2.5-4.8h0ZM622.2,687.3c-2.9-1.3-6.6-2.6-7.6-6h0c0-1.1.4-2.2.9-2.9.9-1.3,2.5-1.9,3.8-2.8,4.6-2.9,9.5-5.3,14.9-6.2,1.6-.3,2.4-.2,3,1.4,1.5,3.2,2.9,6.3,4.4,9.5.4.7.4,1.6,0,2.3-1.3,2.6-2.7,5.1-4,7.7-.2.5-.5,1-.9,1.2-.6.4-1.5,0-2.2,0-4.2-1-8.3-2.4-12.2-4.1h0,0ZM647.3,721.3c-3.1,2.3-6.4,4.4-10.3,4.7-2.2.1-3.2-1.1-3.6-3.2-.2-1.1-.2-2.2,0-3.3,1.6-10.5,5.6-20.3,10.8-29.5.8-1.4,1.5-1.6,2.5-.2,2.3,3.6,4.5,7.3,6.7,10.9,1.1,1.7,2.1,3.4,3.3,5.1.4.6.9,1.3,1.3,1.9,0,.1.1.3,0,.4h0c0,0-.2.1-.4.1-.6,0-1.3,0-1.9,0-2.5,0-4.9,1.4-6.3,3.3-1.5,1.9-2,4.5-1.3,7,.4,1.3.2,2-1,2.8h0ZM663.3,716.4h0c0,3.8-3,6.9-6.7,7.2-2.9.2-5.6-1.3-7-3.8-2.7-4.9,1.3-11.1,7-10.6,3.8.2,6.8,3.6,6.7,7.3ZM691.9,724.9c-.2,1.8-2.1,2.5-3.8,2.3h0c-1-.2-1.8-.6-2.8-1-.6-.2-.8-.7,0-.8,2.1-.4,4.2-.9,6.2-1.3.4,0,.5.4.4.7h0ZM737.2,692.2c-9.4,10.6-21.8,18.3-35.1,23-7.4,2.9-15.2,4.4-23.1,4.9-2,0-3.7-1-5-2.5-4-4.7-7.8-9.5-11.7-14.3-.4-.5-.5-1,.2-1.4,11.1-6.3,19.5-17,22-29.7.3-2,.5-2.5,2.7-1.7,2.5.7,4.9,1.4,7.4,2.1.6.1,1.2.5,1.1,1.2-.3,2.3-.8,4.5-1.1,6.7,0,.5-.6,1.8,0,2.1.7,0,1.7-3.4,1.9-4.1.4-1.2.7-2.4,1.1-3.5.1-.5.4-1,1-1,1.5.1,1.9.7,1.7,2.2-.3,2.2-.7,4.4-1.1,6.5,0,.4-.2,1.1.1,1.3.4,0,.6-.7.8-1.1.6-1.7,1.2-3.5,1.8-5.3.4-.9.3-2.3,1.7-2,1.5.2,1.3,1.4,1.2,2.6-.3,2.2-.7,4.4-1.1,6.6,0,.3-.3,2,.3,1.3.3-.3.6-.8.7-1.3.7-2.1,1.3-4.1,2-6.2.2-.5.2-1.4.9-1.4h.3c.5.1,1.1.2,1.4.6.3.5.2,1.1.2,1.6-.3,2.1-.6,4.1-.9,6.1,0,.5-.9,2.8-.2,2.9.5-.2.6-.9.8-1.3.9-2.5,1.8-5,2.5-7.6.4-1,2.2-.2,2.3.7,0,.4,0,.8,0,1.1-.3,2.1-.5,4.2-.9,6.4-.1,1-.5,2-.5,3,0,.4.3.3.5,0,1.4-2.7,2.1-5.6,3-8.6.1-.3.3-.8.6-.9.6-.4,1.7.1,1.7.9,0,.4,0,.8,0,1.2-.4,2.6-.8,5.1-1.2,7.7,0,.4-.2.8,0,1.2,0,.4.3.4.5,0,.8-2,1.5-4,2.2-6.1.3-.9.5-1.9.9-2.7.3-.7.9-.7,1.6-.3.5.3.7.9.6,1.5,0,2.9-.9,5.6-1.3,8.5,0,.3-.3,1.4.2,1.4h0c.2,0,.3-.4.5-.6.3-.6.6-1.2.8-1.8.7-1.8,1.1-3.7,1.7-5.6.1-.4.3-.9.5-1.1.5-.6,1.3-.2,1.6.3.2.4.3.9.2,1.4-.3,2.4-.8,4.8-1.2,7.1,0,.4-.2,1.1.1,1.5.4,0,.6-.7.7-1,.8-2.3,1.5-4.6,2.3-7,.2-.6.4-.8,1-.5.6.3,1.3.7,2,1,1.6.8,3.1,1.6,4.7,2.5.7.3,1.3.8.6,1.5h0ZM737.7,689.9h0c-.2,0-.4-.1-.6-.2-2.1-1.4-4.3-2.8-6.4-4.3-.8-.5-1.2-1.3-1.4-2.1-.7-2.6-1.3-5.2-2-7.8,0-.3-.2-.8-.5-1-.5-.2-.3,1-.3,1.3.1,2,.5,4,.6,6.1,0,.7-.1,1.1-.9.7-1.1-.4-1.5-1.4-1.7-2.5-.4-2-.9-3.9-1.4-5.8-.2-1.1-1.1-2-1-.3.2,1.7.4,3.4.6,5.1,0,.4,0,.9-.3,1.1-.1,0-.3,0-.5,0-1.1-.4-1.7-1.5-1.8-2.6-.4-1.8-.8-3.6-1.3-5.4-.4-1-.9-1.7-.9,0s.2,1.9.3,2.9c.1.9.3,1.8,0,2.7,0,.1-.1.3-.2.3-.1,0-.3,0-.5-.1-.8-.5-1.7-1.2-1.9-2.2-.6-1.9-.9-4-1.7-5.9-.5-.8-.7.1-.7.6,0,1.6.5,3.2.6,4.8,0,1.1-1.8,0-2.1-.5-.4-.5-.6-1.1-.7-1.7-.3-1.7-.8-3.2-1.3-4.8-.1-.3-.2-.8-.5-1.1-1.1-1.2.2,5.1,0,5.6,0,.7-.1,1-.9.7-1.3-.3-1.9-1.3-2.1-2.5-.4-1.7-.9-3.4-1.4-5.2-.3-1.3-1-1.3-.9.1.1,1.4.3,2.7.5,4.1.1.8.3,2-.9,1.5-1.1-.4-1.7-1.5-1.8-2.6-.3-1.7-.8-3.3-1.3-5,0-.3-.5-1.4-.8-.8-.1.3,0,.7,0,1.1.1,1.5.4,3,.4,4.5,0,.7-.2,1.4-1,.9-.8-.3-1.5-1-1.7-1.8-.4-1.7-.8-3.4-1.2-5-.1-.6-.3-1.2-.7-1.7-.6-.7-.5.8-.5,1.1.2,1.4.4,2.8.5,4.3,0,1,.3,1.8-.9,1.4-2.7-.9-5.3-1.9-8-2.7-.3-.1-.7-.2-.9-.5-.4-.4-.3-1.1-.3-1.6.6-6.5-.7-12.5-4.9-17.8-1.3-1.5,0-2.1,1.5-1.7,6.4,1.4,12.9,3.1,18.8,6,2.7,1.4,5.3,3.1,7.7,5,3.8,3,7.6,6,11.1,9.3,3.7,3.9,7.3,8,10.5,12.3,2.8,4.1,5,8.5,7.2,13,.1.2.3.7.1.7h0Z"/>
          </g>
        </g>
      </g>
    </g>
  </g>
</svg>